%TF.GenerationSoftware,KiCad,Pcbnew,8.0.1*%
%TF.CreationDate,2024-04-10T08:00:09+05:30*%
%TF.ProjectId,AquaSense,41717561-5365-46e7-9365-2e6b69636164,V 1.0*%
%TF.SameCoordinates,Original*%
%TF.FileFunction,Legend,Top*%
%TF.FilePolarity,Positive*%
%FSLAX46Y46*%
G04 Gerber Fmt 4.6, Leading zero omitted, Abs format (unit mm)*
G04 Created by KiCad (PCBNEW 8.0.1) date 2024-04-10 08:00:09*
%MOMM*%
%LPD*%
G01*
G04 APERTURE LIST*
%ADD10C,0.100000*%
%ADD11C,0.150000*%
%ADD12C,0.120000*%
%ADD13C,0.127000*%
%ADD14C,0.200000*%
G04 APERTURE END LIST*
D10*
X64082000Y-72095000D02*
X64082000Y-39595000D01*
X106082000Y-39595000D02*
X106082000Y-72095000D01*
X75822000Y-77262000D02*
X110978000Y-77262000D01*
X110978000Y-127300000D01*
X75822000Y-127300000D01*
X75822000Y-77262000D01*
X64082000Y-39595000D02*
X106082000Y-39595000D01*
X106082000Y-72095000D02*
X64082000Y-72095000D01*
X40258265Y-63271704D02*
X40734455Y-63271704D01*
X40163027Y-63557419D02*
X40496360Y-62557419D01*
X40496360Y-62557419D02*
X40829693Y-63557419D01*
X93624228Y-108541925D02*
X93767085Y-108113353D01*
X93767085Y-108113353D02*
X93909942Y-107970496D01*
X93909942Y-107970496D02*
X94195657Y-107827639D01*
X94195657Y-107827639D02*
X94624228Y-107827639D01*
X94624228Y-107827639D02*
X94909942Y-107970496D01*
X94909942Y-107970496D02*
X95052800Y-108113353D01*
X95052800Y-108113353D02*
X95195657Y-108399068D01*
X95195657Y-108399068D02*
X95195657Y-109541925D01*
X95195657Y-109541925D02*
X92195657Y-109541925D01*
X92195657Y-109541925D02*
X92195657Y-108541925D01*
X92195657Y-108541925D02*
X92338514Y-108256211D01*
X92338514Y-108256211D02*
X92481371Y-108113353D01*
X92481371Y-108113353D02*
X92767085Y-107970496D01*
X92767085Y-107970496D02*
X93052800Y-107970496D01*
X93052800Y-107970496D02*
X93338514Y-108113353D01*
X93338514Y-108113353D02*
X93481371Y-108256211D01*
X93481371Y-108256211D02*
X93624228Y-108541925D01*
X93624228Y-108541925D02*
X93624228Y-109541925D01*
X94338514Y-106684782D02*
X94338514Y-105256211D01*
X95195657Y-106970496D02*
X92195657Y-105970496D01*
X92195657Y-105970496D02*
X95195657Y-104970496D01*
X92195657Y-104399067D02*
X92195657Y-102684782D01*
X95195657Y-103541924D02*
X92195657Y-103541924D01*
X92195657Y-102113353D02*
X92195657Y-100399068D01*
X95195657Y-101256210D02*
X92195657Y-101256210D01*
X93624228Y-99399068D02*
X93624228Y-98399068D01*
X95195657Y-97970496D02*
X95195657Y-99399068D01*
X95195657Y-99399068D02*
X92195657Y-99399068D01*
X92195657Y-99399068D02*
X92195657Y-97970496D01*
X95195657Y-94970496D02*
X93767085Y-95970496D01*
X95195657Y-96684782D02*
X92195657Y-96684782D01*
X92195657Y-96684782D02*
X92195657Y-95541925D01*
X92195657Y-95541925D02*
X92338514Y-95256210D01*
X92338514Y-95256210D02*
X92481371Y-95113353D01*
X92481371Y-95113353D02*
X92767085Y-94970496D01*
X92767085Y-94970496D02*
X93195657Y-94970496D01*
X93195657Y-94970496D02*
X93481371Y-95113353D01*
X93481371Y-95113353D02*
X93624228Y-95256210D01*
X93624228Y-95256210D02*
X93767085Y-95541925D01*
X93767085Y-95541925D02*
X93767085Y-96684782D01*
X93767085Y-93113353D02*
X95195657Y-93113353D01*
X92195657Y-94113353D02*
X93767085Y-93113353D01*
X93767085Y-93113353D02*
X92195657Y-92113353D01*
X35315884Y-124617419D02*
X35315884Y-123617419D01*
X35315884Y-123617419D02*
X35553979Y-123617419D01*
X35553979Y-123617419D02*
X35696836Y-123665038D01*
X35696836Y-123665038D02*
X35792074Y-123760276D01*
X35792074Y-123760276D02*
X35839693Y-123855514D01*
X35839693Y-123855514D02*
X35887312Y-124045990D01*
X35887312Y-124045990D02*
X35887312Y-124188847D01*
X35887312Y-124188847D02*
X35839693Y-124379323D01*
X35839693Y-124379323D02*
X35792074Y-124474561D01*
X35792074Y-124474561D02*
X35696836Y-124569800D01*
X35696836Y-124569800D02*
X35553979Y-124617419D01*
X35553979Y-124617419D02*
X35315884Y-124617419D01*
X39370646Y-60140752D02*
X39608741Y-60807419D01*
X39608741Y-60807419D02*
X39846836Y-60140752D01*
X40656360Y-60759800D02*
X40561122Y-60807419D01*
X40561122Y-60807419D02*
X40370646Y-60807419D01*
X40370646Y-60807419D02*
X40275408Y-60759800D01*
X40275408Y-60759800D02*
X40227789Y-60712180D01*
X40227789Y-60712180D02*
X40180170Y-60616942D01*
X40180170Y-60616942D02*
X40180170Y-60331228D01*
X40180170Y-60331228D02*
X40227789Y-60235990D01*
X40227789Y-60235990D02*
X40275408Y-60188371D01*
X40275408Y-60188371D02*
X40370646Y-60140752D01*
X40370646Y-60140752D02*
X40561122Y-60140752D01*
X40561122Y-60140752D02*
X40656360Y-60188371D01*
X41513503Y-60759800D02*
X41418265Y-60807419D01*
X41418265Y-60807419D02*
X41227789Y-60807419D01*
X41227789Y-60807419D02*
X41132551Y-60759800D01*
X41132551Y-60759800D02*
X41084932Y-60712180D01*
X41084932Y-60712180D02*
X41037313Y-60616942D01*
X41037313Y-60616942D02*
X41037313Y-60331228D01*
X41037313Y-60331228D02*
X41084932Y-60235990D01*
X41084932Y-60235990D02*
X41132551Y-60188371D01*
X41132551Y-60188371D02*
X41227789Y-60140752D01*
X41227789Y-60140752D02*
X41418265Y-60140752D01*
X41418265Y-60140752D02*
X41513503Y-60188371D01*
X34580646Y-126490752D02*
X34818741Y-127157419D01*
X34818741Y-127157419D02*
X35056836Y-126490752D01*
X35866360Y-127109800D02*
X35771122Y-127157419D01*
X35771122Y-127157419D02*
X35580646Y-127157419D01*
X35580646Y-127157419D02*
X35485408Y-127109800D01*
X35485408Y-127109800D02*
X35437789Y-127062180D01*
X35437789Y-127062180D02*
X35390170Y-126966942D01*
X35390170Y-126966942D02*
X35390170Y-126681228D01*
X35390170Y-126681228D02*
X35437789Y-126585990D01*
X35437789Y-126585990D02*
X35485408Y-126538371D01*
X35485408Y-126538371D02*
X35580646Y-126490752D01*
X35580646Y-126490752D02*
X35771122Y-126490752D01*
X35771122Y-126490752D02*
X35866360Y-126538371D01*
X36723503Y-127109800D02*
X36628265Y-127157419D01*
X36628265Y-127157419D02*
X36437789Y-127157419D01*
X36437789Y-127157419D02*
X36342551Y-127109800D01*
X36342551Y-127109800D02*
X36294932Y-127062180D01*
X36294932Y-127062180D02*
X36247313Y-126966942D01*
X36247313Y-126966942D02*
X36247313Y-126681228D01*
X36247313Y-126681228D02*
X36294932Y-126585990D01*
X36294932Y-126585990D02*
X36342551Y-126538371D01*
X36342551Y-126538371D02*
X36437789Y-126490752D01*
X36437789Y-126490752D02*
X36628265Y-126490752D01*
X36628265Y-126490752D02*
X36723503Y-126538371D01*
X87721884Y-141223466D02*
X88483789Y-141223466D01*
X88102836Y-141604419D02*
X88102836Y-140842514D01*
X89721884Y-141223466D02*
X90483789Y-141223466D01*
X87721884Y-130463466D02*
X88483789Y-130463466D01*
X88102836Y-130844419D02*
X88102836Y-130082514D01*
X89721884Y-130463466D02*
X90483789Y-130463466D01*
X41058265Y-91251704D02*
X41534455Y-91251704D01*
X40963027Y-91537419D02*
X41296360Y-90537419D01*
X41296360Y-90537419D02*
X41629693Y-91537419D01*
X40464455Y-85620752D02*
X40464455Y-86430276D01*
X40464455Y-86430276D02*
X40416836Y-86525514D01*
X40416836Y-86525514D02*
X40369217Y-86573133D01*
X40369217Y-86573133D02*
X40273979Y-86620752D01*
X40273979Y-86620752D02*
X40131122Y-86620752D01*
X40131122Y-86620752D02*
X40035884Y-86573133D01*
X40464455Y-86239800D02*
X40369217Y-86287419D01*
X40369217Y-86287419D02*
X40178741Y-86287419D01*
X40178741Y-86287419D02*
X40083503Y-86239800D01*
X40083503Y-86239800D02*
X40035884Y-86192180D01*
X40035884Y-86192180D02*
X39988265Y-86096942D01*
X39988265Y-86096942D02*
X39988265Y-85811228D01*
X39988265Y-85811228D02*
X40035884Y-85715990D01*
X40035884Y-85715990D02*
X40083503Y-85668371D01*
X40083503Y-85668371D02*
X40178741Y-85620752D01*
X40178741Y-85620752D02*
X40369217Y-85620752D01*
X40369217Y-85620752D02*
X40464455Y-85668371D01*
X40940646Y-85620752D02*
X40940646Y-86287419D01*
X40940646Y-85715990D02*
X40988265Y-85668371D01*
X40988265Y-85668371D02*
X41083503Y-85620752D01*
X41083503Y-85620752D02*
X41226360Y-85620752D01*
X41226360Y-85620752D02*
X41321598Y-85668371D01*
X41321598Y-85668371D02*
X41369217Y-85763609D01*
X41369217Y-85763609D02*
X41369217Y-86287419D01*
X42273979Y-86287419D02*
X42273979Y-85287419D01*
X42273979Y-86239800D02*
X42178741Y-86287419D01*
X42178741Y-86287419D02*
X41988265Y-86287419D01*
X41988265Y-86287419D02*
X41893027Y-86239800D01*
X41893027Y-86239800D02*
X41845408Y-86192180D01*
X41845408Y-86192180D02*
X41797789Y-86096942D01*
X41797789Y-86096942D02*
X41797789Y-85811228D01*
X41797789Y-85811228D02*
X41845408Y-85715990D01*
X41845408Y-85715990D02*
X41893027Y-85668371D01*
X41893027Y-85668371D02*
X41988265Y-85620752D01*
X41988265Y-85620752D02*
X42178741Y-85620752D01*
X42178741Y-85620752D02*
X42273979Y-85668371D01*
X78543027Y-54447419D02*
X79114455Y-54447419D01*
X78828741Y-55447419D02*
X78828741Y-54447419D01*
X79447789Y-55447419D02*
X79447789Y-54447419D01*
X79447789Y-54447419D02*
X79685884Y-54447419D01*
X79685884Y-54447419D02*
X79828741Y-54495038D01*
X79828741Y-54495038D02*
X79923979Y-54590276D01*
X79923979Y-54590276D02*
X79971598Y-54685514D01*
X79971598Y-54685514D02*
X80019217Y-54875990D01*
X80019217Y-54875990D02*
X80019217Y-55018847D01*
X80019217Y-55018847D02*
X79971598Y-55209323D01*
X79971598Y-55209323D02*
X79923979Y-55304561D01*
X79923979Y-55304561D02*
X79828741Y-55399800D01*
X79828741Y-55399800D02*
X79685884Y-55447419D01*
X79685884Y-55447419D02*
X79447789Y-55447419D01*
X80400170Y-55399800D02*
X80543027Y-55447419D01*
X80543027Y-55447419D02*
X80781122Y-55447419D01*
X80781122Y-55447419D02*
X80876360Y-55399800D01*
X80876360Y-55399800D02*
X80923979Y-55352180D01*
X80923979Y-55352180D02*
X80971598Y-55256942D01*
X80971598Y-55256942D02*
X80971598Y-55161704D01*
X80971598Y-55161704D02*
X80923979Y-55066466D01*
X80923979Y-55066466D02*
X80876360Y-55018847D01*
X80876360Y-55018847D02*
X80781122Y-54971228D01*
X80781122Y-54971228D02*
X80590646Y-54923609D01*
X80590646Y-54923609D02*
X80495408Y-54875990D01*
X80495408Y-54875990D02*
X80447789Y-54828371D01*
X80447789Y-54828371D02*
X80400170Y-54733133D01*
X80400170Y-54733133D02*
X80400170Y-54637895D01*
X80400170Y-54637895D02*
X80447789Y-54542657D01*
X80447789Y-54542657D02*
X80495408Y-54495038D01*
X80495408Y-54495038D02*
X80590646Y-54447419D01*
X80590646Y-54447419D02*
X80828741Y-54447419D01*
X80828741Y-54447419D02*
X80971598Y-54495038D01*
X82162075Y-55447419D02*
X82162075Y-54780752D01*
X82162075Y-54875990D02*
X82209694Y-54828371D01*
X82209694Y-54828371D02*
X82304932Y-54780752D01*
X82304932Y-54780752D02*
X82447789Y-54780752D01*
X82447789Y-54780752D02*
X82543027Y-54828371D01*
X82543027Y-54828371D02*
X82590646Y-54923609D01*
X82590646Y-54923609D02*
X82590646Y-55447419D01*
X82590646Y-54923609D02*
X82638265Y-54828371D01*
X82638265Y-54828371D02*
X82733503Y-54780752D01*
X82733503Y-54780752D02*
X82876360Y-54780752D01*
X82876360Y-54780752D02*
X82971599Y-54828371D01*
X82971599Y-54828371D02*
X83019218Y-54923609D01*
X83019218Y-54923609D02*
X83019218Y-55447419D01*
X83876360Y-55399800D02*
X83781122Y-55447419D01*
X83781122Y-55447419D02*
X83590646Y-55447419D01*
X83590646Y-55447419D02*
X83495408Y-55399800D01*
X83495408Y-55399800D02*
X83447789Y-55304561D01*
X83447789Y-55304561D02*
X83447789Y-54923609D01*
X83447789Y-54923609D02*
X83495408Y-54828371D01*
X83495408Y-54828371D02*
X83590646Y-54780752D01*
X83590646Y-54780752D02*
X83781122Y-54780752D01*
X83781122Y-54780752D02*
X83876360Y-54828371D01*
X83876360Y-54828371D02*
X83923979Y-54923609D01*
X83923979Y-54923609D02*
X83923979Y-55018847D01*
X83923979Y-55018847D02*
X83447789Y-55114085D01*
X84209694Y-54780752D02*
X84590646Y-54780752D01*
X84352551Y-54447419D02*
X84352551Y-55304561D01*
X84352551Y-55304561D02*
X84400170Y-55399800D01*
X84400170Y-55399800D02*
X84495408Y-55447419D01*
X84495408Y-55447419D02*
X84590646Y-55447419D01*
X85304932Y-55399800D02*
X85209694Y-55447419D01*
X85209694Y-55447419D02*
X85019218Y-55447419D01*
X85019218Y-55447419D02*
X84923980Y-55399800D01*
X84923980Y-55399800D02*
X84876361Y-55304561D01*
X84876361Y-55304561D02*
X84876361Y-54923609D01*
X84876361Y-54923609D02*
X84923980Y-54828371D01*
X84923980Y-54828371D02*
X85019218Y-54780752D01*
X85019218Y-54780752D02*
X85209694Y-54780752D01*
X85209694Y-54780752D02*
X85304932Y-54828371D01*
X85304932Y-54828371D02*
X85352551Y-54923609D01*
X85352551Y-54923609D02*
X85352551Y-55018847D01*
X85352551Y-55018847D02*
X84876361Y-55114085D01*
X85781123Y-55447419D02*
X85781123Y-54780752D01*
X85781123Y-54971228D02*
X85828742Y-54875990D01*
X85828742Y-54875990D02*
X85876361Y-54828371D01*
X85876361Y-54828371D02*
X85971599Y-54780752D01*
X85971599Y-54780752D02*
X86066837Y-54780752D01*
X87066838Y-54780752D02*
X87304933Y-55447419D01*
X87304933Y-55447419D02*
X87543028Y-54780752D01*
X88447790Y-55447419D02*
X87876362Y-55447419D01*
X88162076Y-55447419D02*
X88162076Y-54447419D01*
X88162076Y-54447419D02*
X88066838Y-54590276D01*
X88066838Y-54590276D02*
X87971600Y-54685514D01*
X87971600Y-54685514D02*
X87876362Y-54733133D01*
X88876362Y-55352180D02*
X88923981Y-55399800D01*
X88923981Y-55399800D02*
X88876362Y-55447419D01*
X88876362Y-55447419D02*
X88828743Y-55399800D01*
X88828743Y-55399800D02*
X88876362Y-55352180D01*
X88876362Y-55352180D02*
X88876362Y-55447419D01*
X89543028Y-54447419D02*
X89638266Y-54447419D01*
X89638266Y-54447419D02*
X89733504Y-54495038D01*
X89733504Y-54495038D02*
X89781123Y-54542657D01*
X89781123Y-54542657D02*
X89828742Y-54637895D01*
X89828742Y-54637895D02*
X89876361Y-54828371D01*
X89876361Y-54828371D02*
X89876361Y-55066466D01*
X89876361Y-55066466D02*
X89828742Y-55256942D01*
X89828742Y-55256942D02*
X89781123Y-55352180D01*
X89781123Y-55352180D02*
X89733504Y-55399800D01*
X89733504Y-55399800D02*
X89638266Y-55447419D01*
X89638266Y-55447419D02*
X89543028Y-55447419D01*
X89543028Y-55447419D02*
X89447790Y-55399800D01*
X89447790Y-55399800D02*
X89400171Y-55352180D01*
X89400171Y-55352180D02*
X89352552Y-55256942D01*
X89352552Y-55256942D02*
X89304933Y-55066466D01*
X89304933Y-55066466D02*
X89304933Y-54828371D01*
X89304933Y-54828371D02*
X89352552Y-54637895D01*
X89352552Y-54637895D02*
X89400171Y-54542657D01*
X89400171Y-54542657D02*
X89447790Y-54495038D01*
X89447790Y-54495038D02*
X89543028Y-54447419D01*
X34744455Y-121260752D02*
X34744455Y-122070276D01*
X34744455Y-122070276D02*
X34696836Y-122165514D01*
X34696836Y-122165514D02*
X34649217Y-122213133D01*
X34649217Y-122213133D02*
X34553979Y-122260752D01*
X34553979Y-122260752D02*
X34411122Y-122260752D01*
X34411122Y-122260752D02*
X34315884Y-122213133D01*
X34744455Y-121879800D02*
X34649217Y-121927419D01*
X34649217Y-121927419D02*
X34458741Y-121927419D01*
X34458741Y-121927419D02*
X34363503Y-121879800D01*
X34363503Y-121879800D02*
X34315884Y-121832180D01*
X34315884Y-121832180D02*
X34268265Y-121736942D01*
X34268265Y-121736942D02*
X34268265Y-121451228D01*
X34268265Y-121451228D02*
X34315884Y-121355990D01*
X34315884Y-121355990D02*
X34363503Y-121308371D01*
X34363503Y-121308371D02*
X34458741Y-121260752D01*
X34458741Y-121260752D02*
X34649217Y-121260752D01*
X34649217Y-121260752D02*
X34744455Y-121308371D01*
X35220646Y-121260752D02*
X35220646Y-121927419D01*
X35220646Y-121355990D02*
X35268265Y-121308371D01*
X35268265Y-121308371D02*
X35363503Y-121260752D01*
X35363503Y-121260752D02*
X35506360Y-121260752D01*
X35506360Y-121260752D02*
X35601598Y-121308371D01*
X35601598Y-121308371D02*
X35649217Y-121403609D01*
X35649217Y-121403609D02*
X35649217Y-121927419D01*
X36553979Y-121927419D02*
X36553979Y-120927419D01*
X36553979Y-121879800D02*
X36458741Y-121927419D01*
X36458741Y-121927419D02*
X36268265Y-121927419D01*
X36268265Y-121927419D02*
X36173027Y-121879800D01*
X36173027Y-121879800D02*
X36125408Y-121832180D01*
X36125408Y-121832180D02*
X36077789Y-121736942D01*
X36077789Y-121736942D02*
X36077789Y-121451228D01*
X36077789Y-121451228D02*
X36125408Y-121355990D01*
X36125408Y-121355990D02*
X36173027Y-121308371D01*
X36173027Y-121308371D02*
X36268265Y-121260752D01*
X36268265Y-121260752D02*
X36458741Y-121260752D01*
X36458741Y-121260752D02*
X36553979Y-121308371D01*
X40110646Y-88150752D02*
X40348741Y-88817419D01*
X40348741Y-88817419D02*
X40586836Y-88150752D01*
X41396360Y-88769800D02*
X41301122Y-88817419D01*
X41301122Y-88817419D02*
X41110646Y-88817419D01*
X41110646Y-88817419D02*
X41015408Y-88769800D01*
X41015408Y-88769800D02*
X40967789Y-88722180D01*
X40967789Y-88722180D02*
X40920170Y-88626942D01*
X40920170Y-88626942D02*
X40920170Y-88341228D01*
X40920170Y-88341228D02*
X40967789Y-88245990D01*
X40967789Y-88245990D02*
X41015408Y-88198371D01*
X41015408Y-88198371D02*
X41110646Y-88150752D01*
X41110646Y-88150752D02*
X41301122Y-88150752D01*
X41301122Y-88150752D02*
X41396360Y-88198371D01*
X42253503Y-88769800D02*
X42158265Y-88817419D01*
X42158265Y-88817419D02*
X41967789Y-88817419D01*
X41967789Y-88817419D02*
X41872551Y-88769800D01*
X41872551Y-88769800D02*
X41824932Y-88722180D01*
X41824932Y-88722180D02*
X41777313Y-88626942D01*
X41777313Y-88626942D02*
X41777313Y-88341228D01*
X41777313Y-88341228D02*
X41824932Y-88245990D01*
X41824932Y-88245990D02*
X41872551Y-88198371D01*
X41872551Y-88198371D02*
X41967789Y-88150752D01*
X41967789Y-88150752D02*
X42158265Y-88150752D01*
X42158265Y-88150752D02*
X42253503Y-88198371D01*
X39844455Y-57510752D02*
X39844455Y-58320276D01*
X39844455Y-58320276D02*
X39796836Y-58415514D01*
X39796836Y-58415514D02*
X39749217Y-58463133D01*
X39749217Y-58463133D02*
X39653979Y-58510752D01*
X39653979Y-58510752D02*
X39511122Y-58510752D01*
X39511122Y-58510752D02*
X39415884Y-58463133D01*
X39844455Y-58129800D02*
X39749217Y-58177419D01*
X39749217Y-58177419D02*
X39558741Y-58177419D01*
X39558741Y-58177419D02*
X39463503Y-58129800D01*
X39463503Y-58129800D02*
X39415884Y-58082180D01*
X39415884Y-58082180D02*
X39368265Y-57986942D01*
X39368265Y-57986942D02*
X39368265Y-57701228D01*
X39368265Y-57701228D02*
X39415884Y-57605990D01*
X39415884Y-57605990D02*
X39463503Y-57558371D01*
X39463503Y-57558371D02*
X39558741Y-57510752D01*
X39558741Y-57510752D02*
X39749217Y-57510752D01*
X39749217Y-57510752D02*
X39844455Y-57558371D01*
X40320646Y-57510752D02*
X40320646Y-58177419D01*
X40320646Y-57605990D02*
X40368265Y-57558371D01*
X40368265Y-57558371D02*
X40463503Y-57510752D01*
X40463503Y-57510752D02*
X40606360Y-57510752D01*
X40606360Y-57510752D02*
X40701598Y-57558371D01*
X40701598Y-57558371D02*
X40749217Y-57653609D01*
X40749217Y-57653609D02*
X40749217Y-58177419D01*
X41653979Y-58177419D02*
X41653979Y-57177419D01*
X41653979Y-58129800D02*
X41558741Y-58177419D01*
X41558741Y-58177419D02*
X41368265Y-58177419D01*
X41368265Y-58177419D02*
X41273027Y-58129800D01*
X41273027Y-58129800D02*
X41225408Y-58082180D01*
X41225408Y-58082180D02*
X41177789Y-57986942D01*
X41177789Y-57986942D02*
X41177789Y-57701228D01*
X41177789Y-57701228D02*
X41225408Y-57605990D01*
X41225408Y-57605990D02*
X41273027Y-57558371D01*
X41273027Y-57558371D02*
X41368265Y-57510752D01*
X41368265Y-57510752D02*
X41558741Y-57510752D01*
X41558741Y-57510752D02*
X41653979Y-57558371D01*
D11*
X43738666Y-55129819D02*
X43738666Y-55844104D01*
X43738666Y-55844104D02*
X43691047Y-55986961D01*
X43691047Y-55986961D02*
X43595809Y-56082200D01*
X43595809Y-56082200D02*
X43452952Y-56129819D01*
X43452952Y-56129819D02*
X43357714Y-56129819D01*
X44691047Y-55129819D02*
X44214857Y-55129819D01*
X44214857Y-55129819D02*
X44167238Y-55606009D01*
X44167238Y-55606009D02*
X44214857Y-55558390D01*
X44214857Y-55558390D02*
X44310095Y-55510771D01*
X44310095Y-55510771D02*
X44548190Y-55510771D01*
X44548190Y-55510771D02*
X44643428Y-55558390D01*
X44643428Y-55558390D02*
X44691047Y-55606009D01*
X44691047Y-55606009D02*
X44738666Y-55701247D01*
X44738666Y-55701247D02*
X44738666Y-55939342D01*
X44738666Y-55939342D02*
X44691047Y-56034580D01*
X44691047Y-56034580D02*
X44643428Y-56082200D01*
X44643428Y-56082200D02*
X44548190Y-56129819D01*
X44548190Y-56129819D02*
X44310095Y-56129819D01*
X44310095Y-56129819D02*
X44214857Y-56082200D01*
X44214857Y-56082200D02*
X44167238Y-56034580D01*
X38912666Y-117864819D02*
X38912666Y-118579104D01*
X38912666Y-118579104D02*
X38865047Y-118721961D01*
X38865047Y-118721961D02*
X38769809Y-118817200D01*
X38769809Y-118817200D02*
X38626952Y-118864819D01*
X38626952Y-118864819D02*
X38531714Y-118864819D01*
X39341238Y-117960057D02*
X39388857Y-117912438D01*
X39388857Y-117912438D02*
X39484095Y-117864819D01*
X39484095Y-117864819D02*
X39722190Y-117864819D01*
X39722190Y-117864819D02*
X39817428Y-117912438D01*
X39817428Y-117912438D02*
X39865047Y-117960057D01*
X39865047Y-117960057D02*
X39912666Y-118055295D01*
X39912666Y-118055295D02*
X39912666Y-118150533D01*
X39912666Y-118150533D02*
X39865047Y-118293390D01*
X39865047Y-118293390D02*
X39293619Y-118864819D01*
X39293619Y-118864819D02*
X39912666Y-118864819D01*
X49439801Y-79159612D02*
X49439801Y-79969448D01*
X49439801Y-79969448D02*
X49487438Y-80064723D01*
X49487438Y-80064723D02*
X49535076Y-80112361D01*
X49535076Y-80112361D02*
X49630350Y-80159998D01*
X49630350Y-80159998D02*
X49820900Y-80159998D01*
X49820900Y-80159998D02*
X49916175Y-80112361D01*
X49916175Y-80112361D02*
X49963812Y-80064723D01*
X49963812Y-80064723D02*
X50011450Y-79969448D01*
X50011450Y-79969448D02*
X50011450Y-79159612D01*
X51011835Y-80159998D02*
X50440186Y-80159998D01*
X50726011Y-80159998D02*
X50726011Y-79159612D01*
X50726011Y-79159612D02*
X50630736Y-79302524D01*
X50630736Y-79302524D02*
X50535461Y-79397799D01*
X50535461Y-79397799D02*
X50440186Y-79445437D01*
X92142819Y-138955333D02*
X92857104Y-138955333D01*
X92857104Y-138955333D02*
X92999961Y-139002952D01*
X92999961Y-139002952D02*
X93095200Y-139098190D01*
X93095200Y-139098190D02*
X93142819Y-139241047D01*
X93142819Y-139241047D02*
X93142819Y-139336285D01*
X92476152Y-138050571D02*
X93142819Y-138050571D01*
X92095200Y-138288666D02*
X92809485Y-138526761D01*
X92809485Y-138526761D02*
X92809485Y-137907714D01*
X92232819Y-133775333D02*
X92947104Y-133775333D01*
X92947104Y-133775333D02*
X93089961Y-133822952D01*
X93089961Y-133822952D02*
X93185200Y-133918190D01*
X93185200Y-133918190D02*
X93232819Y-134061047D01*
X93232819Y-134061047D02*
X93232819Y-134156285D01*
X92232819Y-133394380D02*
X92232819Y-132775333D01*
X92232819Y-132775333D02*
X92613771Y-133108666D01*
X92613771Y-133108666D02*
X92613771Y-132965809D01*
X92613771Y-132965809D02*
X92661390Y-132870571D01*
X92661390Y-132870571D02*
X92709009Y-132822952D01*
X92709009Y-132822952D02*
X92804247Y-132775333D01*
X92804247Y-132775333D02*
X93042342Y-132775333D01*
X93042342Y-132775333D02*
X93137580Y-132822952D01*
X93137580Y-132822952D02*
X93185200Y-132870571D01*
X93185200Y-132870571D02*
X93232819Y-132965809D01*
X93232819Y-132965809D02*
X93232819Y-133251523D01*
X93232819Y-133251523D02*
X93185200Y-133346761D01*
X93185200Y-133346761D02*
X93137580Y-133394380D01*
X48081819Y-131911666D02*
X47605628Y-132244999D01*
X48081819Y-132483094D02*
X47081819Y-132483094D01*
X47081819Y-132483094D02*
X47081819Y-132102142D01*
X47081819Y-132102142D02*
X47129438Y-132006904D01*
X47129438Y-132006904D02*
X47177057Y-131959285D01*
X47177057Y-131959285D02*
X47272295Y-131911666D01*
X47272295Y-131911666D02*
X47415152Y-131911666D01*
X47415152Y-131911666D02*
X47510390Y-131959285D01*
X47510390Y-131959285D02*
X47558009Y-132006904D01*
X47558009Y-132006904D02*
X47605628Y-132102142D01*
X47605628Y-132102142D02*
X47605628Y-132483094D01*
X48081819Y-130959285D02*
X48081819Y-131530713D01*
X48081819Y-131244999D02*
X47081819Y-131244999D01*
X47081819Y-131244999D02*
X47224676Y-131340237D01*
X47224676Y-131340237D02*
X47319914Y-131435475D01*
X47319914Y-131435475D02*
X47367533Y-131530713D01*
X43992666Y-82431819D02*
X43992666Y-83146104D01*
X43992666Y-83146104D02*
X43945047Y-83288961D01*
X43945047Y-83288961D02*
X43849809Y-83384200D01*
X43849809Y-83384200D02*
X43706952Y-83431819D01*
X43706952Y-83431819D02*
X43611714Y-83431819D01*
X44992666Y-83431819D02*
X44421238Y-83431819D01*
X44706952Y-83431819D02*
X44706952Y-82431819D01*
X44706952Y-82431819D02*
X44611714Y-82574676D01*
X44611714Y-82574676D02*
X44516476Y-82669914D01*
X44516476Y-82669914D02*
X44421238Y-82717533D01*
D12*
%TO.C,J5*%
X42742000Y-56675000D02*
X44072000Y-56675000D01*
X42742000Y-58005000D02*
X42742000Y-56675000D01*
X42742000Y-59275000D02*
X42742000Y-64415000D01*
X42742000Y-59275000D02*
X45402000Y-59275000D01*
X42742000Y-64415000D02*
X45402000Y-64415000D01*
X45402000Y-59275000D02*
X45402000Y-64415000D01*
%TO.C,J2*%
X37789000Y-120255000D02*
X39119000Y-120255000D01*
X37789000Y-121585000D02*
X37789000Y-120255000D01*
X37789000Y-122855000D02*
X37789000Y-127995000D01*
X37789000Y-122855000D02*
X40449000Y-122855000D01*
X37789000Y-127995000D02*
X40449000Y-127995000D01*
X40449000Y-122855000D02*
X40449000Y-127995000D01*
D13*
%TO.C,U1*%
X48262000Y-81175000D02*
X73262000Y-81175000D01*
X48262000Y-135575000D02*
X48262000Y-81175000D01*
X73262000Y-81175000D02*
X73262000Y-135575000D01*
X73262000Y-135575000D02*
X48262000Y-135575000D01*
D14*
X48802000Y-86975000D02*
G75*
G02*
X48602000Y-86975000I-100000J0D01*
G01*
X48602000Y-86975000D02*
G75*
G02*
X48802000Y-86975000I100000J0D01*
G01*
D12*
%TO.C,J4*%
X86488000Y-137292000D02*
X86488000Y-139952000D01*
X89088000Y-137292000D02*
X86488000Y-137292000D01*
X89088000Y-137292000D02*
X89088000Y-139952000D01*
X89088000Y-139952000D02*
X86488000Y-139952000D01*
X90358000Y-137292000D02*
X91688000Y-137292000D01*
X91688000Y-137292000D02*
X91688000Y-138622000D01*
%TO.C,J3*%
X86578000Y-132112000D02*
X86578000Y-134772000D01*
X89178000Y-132112000D02*
X86578000Y-132112000D01*
X89178000Y-132112000D02*
X89178000Y-134772000D01*
X89178000Y-134772000D02*
X86578000Y-134772000D01*
X90448000Y-132112000D02*
X91778000Y-132112000D01*
X91778000Y-132112000D02*
X91778000Y-133442000D01*
%TO.C,R1*%
X42787000Y-126675000D02*
X42787000Y-136815000D01*
X42787000Y-136815000D02*
X46627000Y-136815000D01*
X44707000Y-125565000D02*
X44707000Y-126675000D01*
X44707000Y-137925000D02*
X44707000Y-136815000D01*
X46627000Y-126675000D02*
X42787000Y-126675000D01*
X46627000Y-136815000D02*
X46627000Y-126675000D01*
%TO.C,J1*%
X42996000Y-84695000D02*
X44326000Y-84695000D01*
X42996000Y-86025000D02*
X42996000Y-84695000D01*
X42996000Y-87295000D02*
X42996000Y-92435000D01*
X42996000Y-87295000D02*
X45656000Y-87295000D01*
X42996000Y-92435000D02*
X45656000Y-92435000D01*
X45656000Y-87295000D02*
X45656000Y-92435000D01*
%TD*%
M02*
