%TF.GenerationSoftware,KiCad,Pcbnew,8.0.1*%
%TF.CreationDate,2024-04-10T08:00:09+05:30*%
%TF.ProjectId,AquaSense,41717561-5365-46e7-9365-2e6b69636164,V 1.0*%
%TF.SameCoordinates,Original*%
%TF.FileFunction,Legend,Bot*%
%TF.FilePolarity,Positive*%
%FSLAX46Y46*%
G04 Gerber Fmt 4.6, Leading zero omitted, Abs format (unit mm)*
G04 Created by KiCad (PCBNEW 8.0.1) date 2024-04-10 08:00:09*
%MOMM*%
%LPD*%
G01*
G04 APERTURE LIST*
%ADD10C,0.100000*%
%ADD11C,0.375000*%
G04 APERTURE END LIST*
D10*
X75678000Y-77272000D02*
X110948000Y-77272000D01*
X110948000Y-100752000D01*
X75678000Y-100752000D01*
X75678000Y-77272000D01*
D11*
G36*
X98958676Y-83612000D02*
G01*
X98380309Y-83612000D01*
X98380309Y-82705370D01*
X98224970Y-82705370D01*
X98213195Y-82705320D01*
X98113573Y-82700361D01*
X98016295Y-82685335D01*
X97918201Y-82654079D01*
X97896776Y-82643980D01*
X97813936Y-82586518D01*
X97756513Y-82506068D01*
X97753808Y-82499912D01*
X97726459Y-82399652D01*
X97715297Y-82296965D01*
X97712549Y-82198810D01*
X97712549Y-82129934D01*
X98196150Y-82129934D01*
X98198623Y-82192295D01*
X98227413Y-82291623D01*
X98240671Y-82304737D01*
X98337811Y-82330213D01*
X98380309Y-82328748D01*
X98380309Y-81767478D01*
X98328713Y-81769615D01*
X98231809Y-81801672D01*
X98206214Y-81850766D01*
X98196150Y-81948706D01*
X98196150Y-82129934D01*
X97712549Y-82129934D01*
X97712549Y-82007324D01*
X97714365Y-81899909D01*
X97720643Y-81800590D01*
X97735508Y-81702997D01*
X97765697Y-81616930D01*
X97821970Y-81534958D01*
X97834439Y-81522240D01*
X97919939Y-81464126D01*
X98012968Y-81428957D01*
X98073745Y-81414682D01*
X98178655Y-81400371D01*
X98277902Y-81394074D01*
X98375912Y-81392321D01*
X98958676Y-81392321D01*
X98958676Y-83612000D01*
G37*
G36*
X97014991Y-81798741D02*
G01*
X97036973Y-82060080D01*
X96987898Y-81965553D01*
X96920962Y-81878408D01*
X96843602Y-81816181D01*
X96742424Y-81775576D01*
X96686729Y-81767478D01*
X96686729Y-82424002D01*
X96789700Y-82429704D01*
X96886536Y-82452866D01*
X96910944Y-82464547D01*
X96983148Y-82534631D01*
X96998871Y-82576410D01*
X97009891Y-82675145D01*
X97013716Y-82776536D01*
X97014928Y-82875913D01*
X97014991Y-82907603D01*
X97014991Y-83612000D01*
X97569911Y-83612000D01*
X97569911Y-81798741D01*
X97014991Y-81798741D01*
G37*
G36*
X96033737Y-81769576D02*
G01*
X96133739Y-81781667D01*
X96234418Y-81808113D01*
X96331600Y-81853451D01*
X96412209Y-81912670D01*
X96481155Y-81990484D01*
X96529437Y-82081574D01*
X96553372Y-82159304D01*
X96572126Y-82263246D01*
X96581529Y-82370300D01*
X96584147Y-82475293D01*
X96584147Y-82939355D01*
X96583881Y-82981572D01*
X96580568Y-83084246D01*
X96572316Y-83182529D01*
X96553861Y-83285203D01*
X96547830Y-83306518D01*
X96510377Y-83398040D01*
X96453233Y-83481574D01*
X96429715Y-83505924D01*
X96349145Y-83563573D01*
X96254908Y-83603207D01*
X96238690Y-83608057D01*
X96141650Y-83629141D01*
X96041911Y-83640094D01*
X95942765Y-83643263D01*
X95852906Y-83639553D01*
X95751264Y-83624944D01*
X95650651Y-83596368D01*
X95604638Y-83576796D01*
X95516019Y-83522018D01*
X95442556Y-83450311D01*
X95418599Y-83418965D01*
X95369260Y-83334116D01*
X95337043Y-83237331D01*
X95327336Y-83181295D01*
X95323396Y-83140122D01*
X95867050Y-83140122D01*
X95868057Y-83194314D01*
X95883170Y-83294972D01*
X95948139Y-83330632D01*
X96012619Y-83291553D01*
X96025578Y-83224008D01*
X96029227Y-83122048D01*
X96029227Y-82294065D01*
X96027605Y-82216299D01*
X96012619Y-82116745D01*
X95946673Y-82080108D01*
X95882193Y-82116745D01*
X95869948Y-82190882D01*
X95867050Y-82294065D01*
X95867050Y-83140122D01*
X95323396Y-83140122D01*
X95317604Y-83079591D01*
X95313322Y-82979886D01*
X95312130Y-82879271D01*
X95312130Y-82435726D01*
X95313416Y-82356412D01*
X95320631Y-82250666D01*
X95338997Y-82149473D01*
X95340721Y-82143587D01*
X95380502Y-82050958D01*
X95438648Y-81966780D01*
X95473413Y-81929497D01*
X95553480Y-81868815D01*
X95645277Y-81822676D01*
X95662216Y-81815992D01*
X95762814Y-81786937D01*
X95865186Y-81771844D01*
X95966213Y-81767478D01*
X96033737Y-81769576D01*
G37*
G36*
X94549604Y-81392321D02*
G01*
X94549604Y-81673688D01*
X95121132Y-81673688D01*
X95121132Y-81392321D01*
X94549604Y-81392321D01*
G37*
G36*
X94549604Y-81798741D02*
G01*
X94549604Y-83230492D01*
X94550095Y-83333174D01*
X94551858Y-83431406D01*
X94556376Y-83533174D01*
X94559862Y-83572432D01*
X94587198Y-83670837D01*
X94623365Y-83729236D01*
X94698757Y-83797060D01*
X94765026Y-83829376D01*
X94867343Y-83852867D01*
X94967070Y-83860954D01*
X95030274Y-83862104D01*
X95244719Y-83862104D01*
X95244719Y-83580736D01*
X95147541Y-83569381D01*
X95133833Y-83558755D01*
X95123563Y-83461227D01*
X95121442Y-83357865D01*
X95121132Y-83284714D01*
X95121132Y-81798741D01*
X94549604Y-81798741D01*
G37*
G36*
X93791729Y-81768122D02*
G01*
X93893369Y-81777782D01*
X93998146Y-81802110D01*
X94094335Y-81840750D01*
X94178170Y-81892537D01*
X94251765Y-81964049D01*
X94305850Y-82050799D01*
X94334060Y-82125476D01*
X94356162Y-82224524D01*
X94367244Y-82325930D01*
X94370330Y-82424979D01*
X94370330Y-82953032D01*
X94368050Y-83058940D01*
X94360169Y-83158851D01*
X94341509Y-83260778D01*
X94335702Y-83280407D01*
X94294557Y-83373916D01*
X94237950Y-83454219D01*
X94202210Y-83490910D01*
X94120828Y-83549626D01*
X94028390Y-83592949D01*
X94019923Y-83596044D01*
X93921503Y-83623609D01*
X93823615Y-83638349D01*
X93717713Y-83643263D01*
X93620602Y-83639244D01*
X93515029Y-83623418D01*
X93416317Y-83592460D01*
X93372731Y-83571640D01*
X93288428Y-83514394D01*
X93217992Y-83440541D01*
X93208386Y-83427890D01*
X93153756Y-83342111D01*
X93118341Y-83250032D01*
X93108938Y-83200511D01*
X93099387Y-83099464D01*
X93096848Y-82994065D01*
X93096848Y-82861685D01*
X93622947Y-82861685D01*
X93622947Y-83101043D01*
X93625486Y-83183680D01*
X93644440Y-83283737D01*
X93728948Y-83330632D01*
X93797825Y-83294972D01*
X93811014Y-83236720D01*
X93815410Y-83134260D01*
X93815410Y-82736633D01*
X93096848Y-82736633D01*
X93096848Y-82496787D01*
X93097955Y-82455265D01*
X93653233Y-82455265D01*
X93815410Y-82455265D01*
X93815410Y-82315070D01*
X93813794Y-82218964D01*
X93801732Y-82117233D01*
X93730413Y-82080108D01*
X93668376Y-82123584D01*
X93655732Y-82211828D01*
X93653233Y-82315070D01*
X93653233Y-82455265D01*
X93097955Y-82455265D01*
X93099769Y-82387252D01*
X93108535Y-82289031D01*
X93125708Y-82190632D01*
X93157908Y-82088413D01*
X93161813Y-82079401D01*
X93216481Y-81987640D01*
X93284811Y-81915941D01*
X93370888Y-81855405D01*
X93451946Y-81816937D01*
X93555325Y-81786798D01*
X93658052Y-81771685D01*
X93756303Y-81767478D01*
X93791729Y-81768122D01*
G37*
G36*
X91696848Y-82486528D02*
G01*
X92220016Y-82486528D01*
X92220016Y-82272083D01*
X92225117Y-82173495D01*
X92238090Y-82120164D01*
X92304035Y-82080108D01*
X92368515Y-82114791D01*
X92384086Y-82214717D01*
X92385124Y-82269641D01*
X92385124Y-83134260D01*
X92376513Y-83233635D01*
X92360700Y-83281783D01*
X92287427Y-83330632D01*
X92211223Y-83278852D01*
X92194011Y-83178064D01*
X92191195Y-83082969D01*
X92191195Y-82861685D01*
X91696848Y-82861685D01*
X91698405Y-82963840D01*
X91702127Y-83062561D01*
X91710336Y-83167501D01*
X91712968Y-83188971D01*
X91737518Y-83285315D01*
X91782082Y-83376620D01*
X91804803Y-83412209D01*
X91869718Y-83490107D01*
X91947960Y-83552343D01*
X92007524Y-83585133D01*
X92100204Y-83618228D01*
X92196680Y-83636394D01*
X92304796Y-83643206D01*
X92316247Y-83643263D01*
X92414392Y-83639452D01*
X92515165Y-83625767D01*
X92614010Y-83598475D01*
X92688962Y-83563639D01*
X92773865Y-83501059D01*
X92839835Y-83423471D01*
X92883379Y-83339913D01*
X92913261Y-83238066D01*
X92929198Y-83139620D01*
X92937332Y-83041109D01*
X92940044Y-82931050D01*
X92940044Y-82416675D01*
X92937143Y-82308475D01*
X92926947Y-82203684D01*
X92904514Y-82099953D01*
X92893637Y-82068873D01*
X92843629Y-81984518D01*
X92771718Y-81913468D01*
X92694335Y-81859801D01*
X92603154Y-81815172D01*
X92501616Y-81785149D01*
X92402667Y-81770723D01*
X92323086Y-81767478D01*
X92218581Y-81773217D01*
X92121952Y-81790436D01*
X92022660Y-81823529D01*
X91952326Y-81859313D01*
X91866220Y-81921385D01*
X91794756Y-82000463D01*
X91747650Y-82090855D01*
X91720860Y-82189525D01*
X91705232Y-82297743D01*
X91698088Y-82409377D01*
X91696848Y-82486528D01*
G37*
G36*
X90954838Y-81548636D02*
G01*
X90954838Y-81830004D01*
X90805361Y-81830004D01*
X90805361Y-82111371D01*
X90954838Y-82111371D01*
X90954838Y-83105440D01*
X90953025Y-83204091D01*
X90940626Y-83301842D01*
X90936275Y-83309627D01*
X90835716Y-83329627D01*
X90781914Y-83330632D01*
X90781914Y-83612000D01*
X91005640Y-83612000D01*
X91103674Y-83610763D01*
X91207699Y-83605268D01*
X91276261Y-83596368D01*
X91370180Y-83560189D01*
X91419388Y-83523095D01*
X91478197Y-83444747D01*
X91496080Y-83391692D01*
X91506432Y-83288483D01*
X91510025Y-83181746D01*
X91511164Y-83076877D01*
X91511223Y-83043402D01*
X91511223Y-82111371D01*
X91630902Y-82111371D01*
X91630902Y-81830004D01*
X91511223Y-81830004D01*
X91511223Y-81548636D01*
X90954838Y-81548636D01*
G37*
G36*
X90195731Y-83612000D02*
G01*
X89676471Y-83612000D01*
X89640811Y-83470827D01*
X89571860Y-83542333D01*
X89486450Y-83600276D01*
X89404326Y-83631131D01*
X89304245Y-83643263D01*
X89254625Y-83640755D01*
X89156071Y-83618120D01*
X89069771Y-83571944D01*
X89057659Y-83562867D01*
X88988683Y-83493664D01*
X88943742Y-83402439D01*
X88927370Y-83314947D01*
X88919001Y-83209763D01*
X88916875Y-83105928D01*
X88916875Y-83081993D01*
X89471795Y-83081993D01*
X89474062Y-83187460D01*
X89487915Y-83288133D01*
X89555815Y-83330632D01*
X89623714Y-83289110D01*
X89637990Y-83202434D01*
X89640811Y-83100066D01*
X89640811Y-82309697D01*
X89639022Y-82217867D01*
X89625668Y-82118210D01*
X89559723Y-82080108D01*
X89489869Y-82123584D01*
X89474778Y-82210169D01*
X89471795Y-82309697D01*
X89471795Y-83081993D01*
X88916875Y-83081993D01*
X88916875Y-82290157D01*
X88917102Y-82230828D01*
X88918915Y-82132635D01*
X88926157Y-82028329D01*
X88933885Y-81993514D01*
X88978913Y-81902788D01*
X89021244Y-81855235D01*
X89106896Y-81803137D01*
X89204196Y-81775313D01*
X89304245Y-81767478D01*
X89393639Y-81776279D01*
X89487427Y-81807533D01*
X89568027Y-81857481D01*
X89640811Y-81928189D01*
X89640811Y-81392321D01*
X90195731Y-81392321D01*
X90195731Y-83612000D01*
G37*
G36*
X87579890Y-81798741D02*
G01*
X87739136Y-83107882D01*
X87752646Y-83217614D01*
X87767366Y-83328053D01*
X87782814Y-83431086D01*
X87801663Y-83532376D01*
X87832882Y-83629577D01*
X87882509Y-83714330D01*
X87886171Y-83718978D01*
X87961931Y-83786320D01*
X88050302Y-83827422D01*
X88146793Y-83848556D01*
X88254279Y-83858717D01*
X88357991Y-83861969D01*
X88386380Y-83862104D01*
X88722947Y-83862104D01*
X88722947Y-83580736D01*
X88622225Y-83577946D01*
X88556862Y-83568036D01*
X88519737Y-83509418D01*
X88535899Y-83409927D01*
X88553931Y-83318908D01*
X88857769Y-81798741D01*
X88353651Y-81798741D01*
X88171935Y-83050729D01*
X88084007Y-81798741D01*
X87579890Y-81798741D01*
G37*
G36*
X87068934Y-82173898D02*
G01*
X87068934Y-82611581D01*
X87487566Y-82611581D01*
X87487566Y-82173898D01*
X87068934Y-82173898D01*
G37*
G36*
X87068934Y-83174316D02*
G01*
X87068934Y-83612000D01*
X87487566Y-83612000D01*
X87487566Y-83174316D01*
X87068934Y-83174316D01*
G37*
G36*
X101936485Y-86972000D02*
G01*
X101337113Y-86972000D01*
X101302919Y-86565579D01*
X101095313Y-86565579D01*
X101066492Y-86972000D01*
X100474447Y-86972000D01*
X100591065Y-86190422D01*
X101111921Y-86190422D01*
X101309758Y-86190422D01*
X101305057Y-86129826D01*
X101294645Y-86014751D01*
X101283998Y-85910016D01*
X101271290Y-85794016D01*
X101256521Y-85666750D01*
X101244091Y-85563908D01*
X101230503Y-85454729D01*
X101215755Y-85339212D01*
X101199849Y-85217359D01*
X101191605Y-85324769D01*
X101183362Y-85428831D01*
X101175119Y-85529544D01*
X101166876Y-85626908D01*
X101155885Y-85751518D01*
X101144894Y-85870174D01*
X101133903Y-85982877D01*
X101122912Y-86089626D01*
X101111921Y-86190422D01*
X100591065Y-86190422D01*
X100805641Y-84752321D01*
X101642417Y-84752321D01*
X101936485Y-86972000D01*
G37*
G36*
X100400198Y-86972000D02*
G01*
X99880937Y-86972000D01*
X99845278Y-86830827D01*
X99776327Y-86902333D01*
X99690916Y-86960276D01*
X99608792Y-86991131D01*
X99508711Y-87003263D01*
X99459092Y-87000755D01*
X99360538Y-86978120D01*
X99274238Y-86931944D01*
X99262125Y-86922867D01*
X99193149Y-86853664D01*
X99148209Y-86762439D01*
X99131837Y-86674947D01*
X99123467Y-86569763D01*
X99121342Y-86465928D01*
X99121342Y-86441993D01*
X99676262Y-86441993D01*
X99678529Y-86547460D01*
X99692382Y-86648133D01*
X99760281Y-86690632D01*
X99828181Y-86649110D01*
X99842456Y-86562434D01*
X99845278Y-86460066D01*
X99845278Y-85669697D01*
X99843488Y-85577867D01*
X99830135Y-85478210D01*
X99764189Y-85440108D01*
X99694336Y-85483584D01*
X99679245Y-85570169D01*
X99676262Y-85669697D01*
X99676262Y-86441993D01*
X99121342Y-86441993D01*
X99121342Y-85650157D01*
X99121569Y-85590828D01*
X99123381Y-85492635D01*
X99130623Y-85388329D01*
X99138351Y-85353514D01*
X99183380Y-85262788D01*
X99225711Y-85215235D01*
X99311363Y-85163137D01*
X99408662Y-85135313D01*
X99508711Y-85127478D01*
X99598105Y-85136279D01*
X99691893Y-85167533D01*
X99772493Y-85217481D01*
X99845278Y-85288189D01*
X99845278Y-84752321D01*
X100400198Y-84752321D01*
X100400198Y-86972000D01*
G37*
G36*
X98391544Y-84752321D02*
G01*
X98391544Y-85262788D01*
X98312459Y-85200295D01*
X98237183Y-85161183D01*
X98140051Y-85133929D01*
X98059374Y-85127478D01*
X97956311Y-85137850D01*
X97858458Y-85172498D01*
X97811712Y-85201239D01*
X97737286Y-85270081D01*
X97689781Y-85359291D01*
X97686659Y-85371232D01*
X97671795Y-85475702D01*
X97665943Y-85578819D01*
X97663790Y-85691629D01*
X97663701Y-85722942D01*
X97663701Y-86972000D01*
X98218620Y-86972000D01*
X98218620Y-85689725D01*
X98220887Y-85586364D01*
X98233749Y-85488458D01*
X98234740Y-85485538D01*
X98305082Y-85440108D01*
X98373959Y-85487003D01*
X98389466Y-85587672D01*
X98391544Y-85672139D01*
X98391544Y-86972000D01*
X98946464Y-86972000D01*
X98946464Y-84752321D01*
X98391544Y-84752321D01*
G37*
G36*
X96909479Y-84752321D02*
G01*
X96909479Y-85033688D01*
X97481007Y-85033688D01*
X97481007Y-84752321D01*
X96909479Y-84752321D01*
G37*
G36*
X96909479Y-85158741D02*
G01*
X96909479Y-86972000D01*
X97481007Y-86972000D01*
X97481007Y-85158741D01*
X96909479Y-85158741D01*
G37*
G36*
X95581775Y-85752739D02*
G01*
X96073680Y-85752739D01*
X96073680Y-85647226D01*
X96076485Y-85547903D01*
X96088334Y-85476256D01*
X96160142Y-85440108D01*
X96229995Y-85470883D01*
X96253442Y-85563695D01*
X96246848Y-85663987D01*
X96241719Y-85686305D01*
X96178950Y-85766447D01*
X96171865Y-85772279D01*
X96082595Y-85829309D01*
X95995669Y-85875744D01*
X95932019Y-85907589D01*
X95834202Y-85958630D01*
X95741932Y-86015302D01*
X95663016Y-86076941D01*
X95614992Y-86129850D01*
X95568853Y-86221212D01*
X95546670Y-86317707D01*
X95539350Y-86420378D01*
X95539276Y-86432711D01*
X95542879Y-86537034D01*
X95555544Y-86638120D01*
X95583408Y-86738267D01*
X95596918Y-86768301D01*
X95656570Y-86851438D01*
X95734388Y-86913010D01*
X95789870Y-86942202D01*
X95889476Y-86976966D01*
X95991447Y-86996047D01*
X96092521Y-87003024D01*
X96116178Y-87003263D01*
X96218119Y-86999049D01*
X96323679Y-86984237D01*
X96419579Y-86958761D01*
X96478146Y-86935852D01*
X96570500Y-86883907D01*
X96645971Y-86814470D01*
X96685264Y-86753646D01*
X96717247Y-86660479D01*
X96733540Y-86563557D01*
X96740562Y-86461769D01*
X96741440Y-86405356D01*
X96741440Y-86315475D01*
X96249535Y-86315475D01*
X96249535Y-86439062D01*
X96246924Y-86541575D01*
X96232114Y-86640668D01*
X96230972Y-86643737D01*
X96157699Y-86690632D01*
X96075145Y-86661323D01*
X96052270Y-86565135D01*
X96051698Y-86537247D01*
X96058353Y-86436440D01*
X96081984Y-86374093D01*
X96168745Y-86314723D01*
X96261626Y-86259975D01*
X96352564Y-86208375D01*
X96404873Y-86179187D01*
X96489932Y-86128623D01*
X96572195Y-86071933D01*
X96651102Y-86002686D01*
X96703338Y-85930548D01*
X96737812Y-85832726D01*
X96754035Y-85730121D01*
X96756583Y-85664812D01*
X96752980Y-85563024D01*
X96740315Y-85465591D01*
X96712451Y-85371064D01*
X96698941Y-85343388D01*
X96633078Y-85261844D01*
X96552066Y-85206385D01*
X96503059Y-85183653D01*
X96402765Y-85151670D01*
X96302473Y-85134115D01*
X96204787Y-85127697D01*
X96182124Y-85127478D01*
X96084472Y-85131187D01*
X95986030Y-85144010D01*
X95889977Y-85168693D01*
X95873889Y-85174372D01*
X95780451Y-85217156D01*
X95696882Y-85279145D01*
X95678983Y-85297959D01*
X95619203Y-85380683D01*
X95596429Y-85440108D01*
X95584580Y-85537241D01*
X95581789Y-85636613D01*
X95581775Y-85645272D01*
X95581775Y-85752739D01*
G37*
G36*
X94843184Y-84752321D02*
G01*
X94843184Y-85262788D01*
X94764099Y-85200295D01*
X94688823Y-85161183D01*
X94591690Y-85133929D01*
X94511014Y-85127478D01*
X94407951Y-85137850D01*
X94310098Y-85172498D01*
X94263352Y-85201239D01*
X94188926Y-85270081D01*
X94141421Y-85359291D01*
X94138299Y-85371232D01*
X94123434Y-85475702D01*
X94117583Y-85578819D01*
X94115430Y-85691629D01*
X94115341Y-85722942D01*
X94115341Y-86972000D01*
X94670260Y-86972000D01*
X94670260Y-85689725D01*
X94672527Y-85586364D01*
X94685389Y-85488458D01*
X94686380Y-85485538D01*
X94756722Y-85440108D01*
X94825599Y-85487003D01*
X94841106Y-85587672D01*
X94843184Y-85672139D01*
X94843184Y-86972000D01*
X95398104Y-86972000D01*
X95398104Y-84752321D01*
X94843184Y-84752321D01*
G37*
G36*
X93370655Y-85128122D02*
G01*
X93472295Y-85137782D01*
X93577071Y-85162110D01*
X93673261Y-85200750D01*
X93757095Y-85252537D01*
X93830690Y-85324049D01*
X93884775Y-85410799D01*
X93912985Y-85485476D01*
X93935087Y-85584524D01*
X93946170Y-85685930D01*
X93949255Y-85784979D01*
X93949255Y-86313032D01*
X93946976Y-86418940D01*
X93939095Y-86518851D01*
X93920435Y-86620778D01*
X93914627Y-86640407D01*
X93873483Y-86733916D01*
X93816876Y-86814219D01*
X93781136Y-86850910D01*
X93699754Y-86909626D01*
X93607315Y-86952949D01*
X93598849Y-86956044D01*
X93500429Y-86983609D01*
X93402541Y-86998349D01*
X93296639Y-87003263D01*
X93199528Y-86999244D01*
X93093955Y-86983418D01*
X92995243Y-86952460D01*
X92951657Y-86931640D01*
X92867354Y-86874394D01*
X92796918Y-86800541D01*
X92787312Y-86787890D01*
X92732682Y-86702111D01*
X92697267Y-86610032D01*
X92687863Y-86560511D01*
X92678313Y-86459464D01*
X92675773Y-86354065D01*
X92675773Y-86221685D01*
X93201872Y-86221685D01*
X93201872Y-86461043D01*
X93204412Y-86543680D01*
X93223366Y-86643737D01*
X93307874Y-86690632D01*
X93376750Y-86654972D01*
X93389939Y-86596720D01*
X93394336Y-86494260D01*
X93394336Y-86096633D01*
X92675773Y-86096633D01*
X92675773Y-85856787D01*
X92676881Y-85815265D01*
X93232158Y-85815265D01*
X93394336Y-85815265D01*
X93394336Y-85675070D01*
X93392719Y-85578964D01*
X93380658Y-85477233D01*
X93309339Y-85440108D01*
X93247301Y-85483584D01*
X93234658Y-85571828D01*
X93232158Y-85675070D01*
X93232158Y-85815265D01*
X92676881Y-85815265D01*
X92678695Y-85747252D01*
X92687461Y-85649031D01*
X92704634Y-85550632D01*
X92736834Y-85448413D01*
X92740739Y-85439401D01*
X92795406Y-85347640D01*
X92863737Y-85275941D01*
X92949814Y-85215405D01*
X93030872Y-85176937D01*
X93134251Y-85146798D01*
X93236978Y-85131685D01*
X93335229Y-85127478D01*
X93370655Y-85128122D01*
G37*
G36*
X91307525Y-85158741D02*
G01*
X91532717Y-85893423D01*
X91240114Y-86972000D01*
X91774517Y-86972000D01*
X91947441Y-86190911D01*
X91947441Y-86972000D01*
X92502361Y-86972000D01*
X92502361Y-84752321D01*
X91947441Y-84752321D01*
X91947441Y-85697540D01*
X91774517Y-85158741D01*
X91307525Y-85158741D01*
G37*
G36*
X89429786Y-85440108D02*
G01*
X89967120Y-85440108D01*
X89967120Y-85275000D01*
X89972910Y-85176087D01*
X89987636Y-85127966D01*
X90056513Y-85096214D01*
X90135159Y-85136270D01*
X90161370Y-85232600D01*
X90162026Y-85256926D01*
X90152443Y-85357356D01*
X90131740Y-85413242D01*
X90060146Y-85486567D01*
X89976420Y-85543880D01*
X89968097Y-85549041D01*
X89876086Y-85607399D01*
X89793005Y-85662797D01*
X89701713Y-85727879D01*
X89624373Y-85788334D01*
X89549984Y-85854772D01*
X89482054Y-85932990D01*
X89433646Y-86028075D01*
X89403918Y-86136145D01*
X89388173Y-86248888D01*
X89382305Y-86359032D01*
X89381914Y-86398517D01*
X89385395Y-86507602D01*
X89397631Y-86612003D01*
X89424550Y-86713262D01*
X89437602Y-86742900D01*
X89499939Y-86826793D01*
X89579385Y-86888713D01*
X89652535Y-86928524D01*
X89746246Y-86964653D01*
X89848225Y-86988957D01*
X89945816Y-87000635D01*
X90023296Y-87003263D01*
X90121751Y-86999055D01*
X90226256Y-86983943D01*
X90322213Y-86957839D01*
X90419946Y-86915335D01*
X90503306Y-86862089D01*
X90574899Y-86794045D01*
X90628087Y-86708397D01*
X90634880Y-86691609D01*
X90661670Y-86595266D01*
X90677298Y-86489470D01*
X90684442Y-86380248D01*
X90685683Y-86304728D01*
X90685683Y-86159159D01*
X90148348Y-86159159D01*
X90148348Y-86430757D01*
X90143411Y-86528810D01*
X90125878Y-86592446D01*
X90045278Y-86628106D01*
X89959793Y-86583165D01*
X89932816Y-86485945D01*
X89931461Y-86449320D01*
X89935711Y-86350114D01*
X89954602Y-86251138D01*
X89985194Y-86193842D01*
X90063827Y-86126683D01*
X90146864Y-86068104D01*
X90229027Y-86014209D01*
X90255327Y-85997471D01*
X90342822Y-85940947D01*
X90425758Y-85884992D01*
X90510083Y-85823110D01*
X90541579Y-85796703D01*
X90605449Y-85721110D01*
X90654457Y-85628281D01*
X90657350Y-85621337D01*
X90687080Y-85520128D01*
X90700398Y-85418371D01*
X90703268Y-85335084D01*
X90700159Y-85231711D01*
X90688993Y-85129426D01*
X90663614Y-85025356D01*
X90638299Y-84968231D01*
X90577941Y-84888181D01*
X90495051Y-84822418D01*
X90427274Y-84786515D01*
X90330378Y-84751996D01*
X90233057Y-84731860D01*
X90126153Y-84722080D01*
X90075564Y-84721057D01*
X89967120Y-84725606D01*
X89866980Y-84739254D01*
X89764250Y-84765481D01*
X89691614Y-84793842D01*
X89602885Y-84843005D01*
X89524117Y-84911699D01*
X89481565Y-84977024D01*
X89452085Y-85071162D01*
X89437067Y-85175319D01*
X89431050Y-85273212D01*
X89429786Y-85352181D01*
X89429786Y-85440108D01*
G37*
G36*
X88652117Y-84752321D02*
G01*
X88652117Y-85033688D01*
X89223645Y-85033688D01*
X89223645Y-84752321D01*
X88652117Y-84752321D01*
G37*
G36*
X88652117Y-85158741D02*
G01*
X88652117Y-86972000D01*
X89223645Y-86972000D01*
X89223645Y-85158741D01*
X88652117Y-85158741D01*
G37*
G36*
X87893498Y-85158741D02*
G01*
X87902780Y-85322872D01*
X87840197Y-85242014D01*
X87760665Y-85179427D01*
X87755257Y-85176326D01*
X87661223Y-85139690D01*
X87561089Y-85127525D01*
X87554001Y-85127478D01*
X87454075Y-85136889D01*
X87356248Y-85171657D01*
X87320505Y-85194400D01*
X87249600Y-85264761D01*
X87205438Y-85356611D01*
X87203756Y-85362928D01*
X87186678Y-85467974D01*
X87179954Y-85567052D01*
X87177481Y-85673221D01*
X87177378Y-85702425D01*
X87177378Y-86972000D01*
X87732298Y-86972000D01*
X87732298Y-85710729D01*
X87733538Y-85607546D01*
X87740050Y-85506617D01*
X87744999Y-85481630D01*
X87813387Y-85440108D01*
X87887636Y-85487491D01*
X87899881Y-85590875D01*
X87902543Y-85691587D01*
X87902780Y-85740527D01*
X87902780Y-86972000D01*
X88457699Y-86972000D01*
X88457699Y-85158741D01*
X87893498Y-85158741D01*
G37*
G36*
X86645047Y-85127587D02*
G01*
X86743038Y-85138449D01*
X86841815Y-85175863D01*
X86917504Y-85239829D01*
X86958323Y-85305012D01*
X86990304Y-85399873D01*
X87006340Y-85503332D01*
X87010805Y-85608636D01*
X87010805Y-86261253D01*
X87009098Y-86335568D01*
X86999522Y-86436575D01*
X86975145Y-86537247D01*
X86972857Y-86543256D01*
X86920024Y-86629535D01*
X86842766Y-86693563D01*
X86797736Y-86716784D01*
X86700838Y-86744777D01*
X86596080Y-86753158D01*
X86527039Y-86747595D01*
X86430484Y-86719452D01*
X86358012Y-86680662D01*
X86280030Y-86619313D01*
X86280030Y-86766347D01*
X86281653Y-86830635D01*
X86300546Y-86932432D01*
X86384566Y-86972000D01*
X86447678Y-86944522D01*
X86472493Y-86846947D01*
X87010805Y-86846947D01*
X87003329Y-86938538D01*
X86976370Y-87041853D01*
X86922832Y-87132391D01*
X86844719Y-87195726D01*
X86834573Y-87201196D01*
X86734066Y-87242609D01*
X86630843Y-87267613D01*
X86529804Y-87280376D01*
X86418760Y-87284630D01*
X86366049Y-87283867D01*
X86255822Y-87276568D01*
X86157187Y-87261542D01*
X86061188Y-87235782D01*
X86001990Y-87212521D01*
X85914429Y-87162855D01*
X85839416Y-87095098D01*
X85782221Y-87016518D01*
X85746604Y-86920709D01*
X85739648Y-86849296D01*
X85735591Y-86751661D01*
X85733878Y-86653871D01*
X85733415Y-86554833D01*
X85733415Y-86197750D01*
X86289800Y-86197750D01*
X86292135Y-86298294D01*
X86306408Y-86396563D01*
X86377727Y-86440527D01*
X86440742Y-86404379D01*
X86452099Y-86346371D01*
X86455885Y-86245621D01*
X86455885Y-85633549D01*
X86454664Y-85580670D01*
X86436345Y-85479187D01*
X86367957Y-85440108D01*
X86304454Y-85474302D01*
X86293463Y-85531211D01*
X86289800Y-85633549D01*
X86289800Y-86197750D01*
X85733415Y-86197750D01*
X85733415Y-85158741D01*
X86249744Y-85158741D01*
X86289800Y-85299913D01*
X86357076Y-85228758D01*
X86443184Y-85170953D01*
X86533432Y-85138346D01*
X86633205Y-85127478D01*
X86645047Y-85127587D01*
G37*
G36*
X84987497Y-84752321D02*
G01*
X84987497Y-85262788D01*
X84908412Y-85200295D01*
X84833135Y-85161183D01*
X84736003Y-85133929D01*
X84655327Y-85127478D01*
X84552264Y-85137850D01*
X84454411Y-85172498D01*
X84407664Y-85201239D01*
X84333239Y-85270081D01*
X84285734Y-85359291D01*
X84282612Y-85371232D01*
X84267747Y-85475702D01*
X84261895Y-85578819D01*
X84259743Y-85691629D01*
X84259653Y-85722942D01*
X84259653Y-86972000D01*
X84814573Y-86972000D01*
X84814573Y-85689725D01*
X84816840Y-85586364D01*
X84829701Y-85488458D01*
X84830693Y-85485538D01*
X84901035Y-85440108D01*
X84969911Y-85487003D01*
X84985419Y-85587672D01*
X84987497Y-85672139D01*
X84987497Y-86972000D01*
X85542417Y-86972000D01*
X85542417Y-84752321D01*
X84987497Y-84752321D01*
G37*
G36*
X103086380Y-90332000D02*
G01*
X102487008Y-90332000D01*
X102452814Y-89925579D01*
X102245208Y-89925579D01*
X102216387Y-90332000D01*
X101624342Y-90332000D01*
X101740960Y-89550422D01*
X102261816Y-89550422D01*
X102459653Y-89550422D01*
X102454952Y-89489826D01*
X102444540Y-89374751D01*
X102433893Y-89270016D01*
X102421185Y-89154016D01*
X102406416Y-89026750D01*
X102393986Y-88923908D01*
X102380398Y-88814729D01*
X102365650Y-88699212D01*
X102349744Y-88577359D01*
X102341500Y-88684769D01*
X102333257Y-88788831D01*
X102325014Y-88889544D01*
X102316771Y-88986908D01*
X102305780Y-89111518D01*
X102294789Y-89230174D01*
X102283798Y-89342877D01*
X102272807Y-89449626D01*
X102261816Y-89550422D01*
X101740960Y-89550422D01*
X101955536Y-88112321D01*
X102792312Y-88112321D01*
X103086380Y-90332000D01*
G37*
G36*
X101550093Y-90332000D02*
G01*
X101030832Y-90332000D01*
X100995173Y-90190827D01*
X100926222Y-90262333D01*
X100840811Y-90320276D01*
X100758687Y-90351131D01*
X100658606Y-90363263D01*
X100608987Y-90360755D01*
X100510433Y-90338120D01*
X100424133Y-90291944D01*
X100412020Y-90282867D01*
X100343044Y-90213664D01*
X100298104Y-90122439D01*
X100281732Y-90034947D01*
X100273362Y-89929763D01*
X100271237Y-89825928D01*
X100271237Y-89801993D01*
X100826157Y-89801993D01*
X100828424Y-89907460D01*
X100842277Y-90008133D01*
X100910176Y-90050632D01*
X100978076Y-90009110D01*
X100992351Y-89922434D01*
X100995173Y-89820066D01*
X100995173Y-89029697D01*
X100993383Y-88937867D01*
X100980030Y-88838210D01*
X100914084Y-88800108D01*
X100844231Y-88843584D01*
X100829140Y-88930169D01*
X100826157Y-89029697D01*
X100826157Y-89801993D01*
X100271237Y-89801993D01*
X100271237Y-89010157D01*
X100271464Y-88950828D01*
X100273276Y-88852635D01*
X100280518Y-88748329D01*
X100288246Y-88713514D01*
X100333275Y-88622788D01*
X100375606Y-88575235D01*
X100461258Y-88523137D01*
X100558557Y-88495313D01*
X100658606Y-88487478D01*
X100748000Y-88496279D01*
X100841788Y-88527533D01*
X100922388Y-88577481D01*
X100995173Y-88648189D01*
X100995173Y-88112321D01*
X101550093Y-88112321D01*
X101550093Y-90332000D01*
G37*
G36*
X99541439Y-88112321D02*
G01*
X99541439Y-88622788D01*
X99462354Y-88560295D01*
X99387078Y-88521183D01*
X99289946Y-88493929D01*
X99209269Y-88487478D01*
X99106206Y-88497850D01*
X99008353Y-88532498D01*
X98961607Y-88561239D01*
X98887181Y-88630081D01*
X98839676Y-88719291D01*
X98836554Y-88731232D01*
X98821690Y-88835702D01*
X98815838Y-88938819D01*
X98813685Y-89051629D01*
X98813596Y-89082942D01*
X98813596Y-90332000D01*
X99368515Y-90332000D01*
X99368515Y-89049725D01*
X99370782Y-88946364D01*
X99383644Y-88848458D01*
X99384635Y-88845538D01*
X99454977Y-88800108D01*
X99523854Y-88847003D01*
X99539361Y-88947672D01*
X99541439Y-89032139D01*
X99541439Y-90332000D01*
X100096359Y-90332000D01*
X100096359Y-88112321D01*
X99541439Y-88112321D01*
G37*
G36*
X98059374Y-88112321D02*
G01*
X98059374Y-88393688D01*
X98630902Y-88393688D01*
X98630902Y-88112321D01*
X98059374Y-88112321D01*
G37*
G36*
X98059374Y-88518741D02*
G01*
X98059374Y-90332000D01*
X98630902Y-90332000D01*
X98630902Y-88518741D01*
X98059374Y-88518741D01*
G37*
G36*
X96731670Y-89112739D02*
G01*
X97223575Y-89112739D01*
X97223575Y-89007226D01*
X97226380Y-88907903D01*
X97238229Y-88836256D01*
X97310037Y-88800108D01*
X97379890Y-88830883D01*
X97403337Y-88923695D01*
X97396743Y-89023987D01*
X97391614Y-89046305D01*
X97328845Y-89126447D01*
X97321760Y-89132279D01*
X97232490Y-89189309D01*
X97145564Y-89235744D01*
X97081914Y-89267589D01*
X96984097Y-89318630D01*
X96891827Y-89375302D01*
X96812911Y-89436941D01*
X96764887Y-89489850D01*
X96718748Y-89581212D01*
X96696565Y-89677707D01*
X96689245Y-89780378D01*
X96689171Y-89792711D01*
X96692774Y-89897034D01*
X96705439Y-89998120D01*
X96733303Y-90098267D01*
X96746813Y-90128301D01*
X96806465Y-90211438D01*
X96884283Y-90273010D01*
X96939765Y-90302202D01*
X97039371Y-90336966D01*
X97141342Y-90356047D01*
X97242416Y-90363024D01*
X97266073Y-90363263D01*
X97368014Y-90359049D01*
X97473574Y-90344237D01*
X97569474Y-90318761D01*
X97628041Y-90295852D01*
X97720395Y-90243907D01*
X97795866Y-90174470D01*
X97835159Y-90113646D01*
X97867142Y-90020479D01*
X97883435Y-89923557D01*
X97890457Y-89821769D01*
X97891335Y-89765356D01*
X97891335Y-89675475D01*
X97399430Y-89675475D01*
X97399430Y-89799062D01*
X97396819Y-89901575D01*
X97382009Y-90000668D01*
X97380867Y-90003737D01*
X97307594Y-90050632D01*
X97225040Y-90021323D01*
X97202165Y-89925135D01*
X97201593Y-89897247D01*
X97208248Y-89796440D01*
X97231879Y-89734093D01*
X97318640Y-89674723D01*
X97411521Y-89619975D01*
X97502459Y-89568375D01*
X97554768Y-89539187D01*
X97639827Y-89488623D01*
X97722090Y-89431933D01*
X97800997Y-89362686D01*
X97853233Y-89290548D01*
X97887707Y-89192726D01*
X97903930Y-89090121D01*
X97906478Y-89024812D01*
X97902875Y-88923024D01*
X97890210Y-88825591D01*
X97862346Y-88731064D01*
X97848836Y-88703388D01*
X97782973Y-88621844D01*
X97701961Y-88566385D01*
X97652954Y-88543653D01*
X97552660Y-88511670D01*
X97452368Y-88494115D01*
X97354682Y-88487697D01*
X97332019Y-88487478D01*
X97234367Y-88491187D01*
X97135925Y-88504010D01*
X97039872Y-88528693D01*
X97023784Y-88534372D01*
X96930346Y-88577156D01*
X96846777Y-88639145D01*
X96828878Y-88657959D01*
X96769098Y-88740683D01*
X96746324Y-88800108D01*
X96734475Y-88897241D01*
X96731684Y-88996613D01*
X96731670Y-89005272D01*
X96731670Y-89112739D01*
G37*
G36*
X95993079Y-88112321D02*
G01*
X95993079Y-88622788D01*
X95913994Y-88560295D01*
X95838718Y-88521183D01*
X95741585Y-88493929D01*
X95660909Y-88487478D01*
X95557846Y-88497850D01*
X95459993Y-88532498D01*
X95413247Y-88561239D01*
X95338821Y-88630081D01*
X95291316Y-88719291D01*
X95288194Y-88731232D01*
X95273329Y-88835702D01*
X95267478Y-88938819D01*
X95265325Y-89051629D01*
X95265236Y-89082942D01*
X95265236Y-90332000D01*
X95820155Y-90332000D01*
X95820155Y-89049725D01*
X95822422Y-88946364D01*
X95835284Y-88848458D01*
X95836275Y-88845538D01*
X95906617Y-88800108D01*
X95975494Y-88847003D01*
X95991001Y-88947672D01*
X95993079Y-89032139D01*
X95993079Y-90332000D01*
X96547999Y-90332000D01*
X96547999Y-88112321D01*
X95993079Y-88112321D01*
G37*
G36*
X94520550Y-88488122D02*
G01*
X94622190Y-88497782D01*
X94726966Y-88522110D01*
X94823156Y-88560750D01*
X94906990Y-88612537D01*
X94980585Y-88684049D01*
X95034670Y-88770799D01*
X95062880Y-88845476D01*
X95084982Y-88944524D01*
X95096065Y-89045930D01*
X95099150Y-89144979D01*
X95099150Y-89673032D01*
X95096871Y-89778940D01*
X95088990Y-89878851D01*
X95070330Y-89980778D01*
X95064522Y-90000407D01*
X95023378Y-90093916D01*
X94966771Y-90174219D01*
X94931031Y-90210910D01*
X94849649Y-90269626D01*
X94757210Y-90312949D01*
X94748744Y-90316044D01*
X94650324Y-90343609D01*
X94552436Y-90358349D01*
X94446534Y-90363263D01*
X94349423Y-90359244D01*
X94243850Y-90343418D01*
X94145138Y-90312460D01*
X94101552Y-90291640D01*
X94017249Y-90234394D01*
X93946813Y-90160541D01*
X93937207Y-90147890D01*
X93882577Y-90062111D01*
X93847162Y-89970032D01*
X93837758Y-89920511D01*
X93828208Y-89819464D01*
X93825668Y-89714065D01*
X93825668Y-89581685D01*
X94351767Y-89581685D01*
X94351767Y-89821043D01*
X94354307Y-89903680D01*
X94373261Y-90003737D01*
X94457769Y-90050632D01*
X94526645Y-90014972D01*
X94539834Y-89956720D01*
X94544231Y-89854260D01*
X94544231Y-89456633D01*
X93825668Y-89456633D01*
X93825668Y-89216787D01*
X93826776Y-89175265D01*
X94382053Y-89175265D01*
X94544231Y-89175265D01*
X94544231Y-89035070D01*
X94542614Y-88938964D01*
X94530553Y-88837233D01*
X94459234Y-88800108D01*
X94397196Y-88843584D01*
X94384553Y-88931828D01*
X94382053Y-89035070D01*
X94382053Y-89175265D01*
X93826776Y-89175265D01*
X93828590Y-89107252D01*
X93837356Y-89009031D01*
X93854529Y-88910632D01*
X93886729Y-88808413D01*
X93890634Y-88799401D01*
X93945301Y-88707640D01*
X94013632Y-88635941D01*
X94099709Y-88575405D01*
X94180767Y-88536937D01*
X94284146Y-88506798D01*
X94386873Y-88491685D01*
X94485124Y-88487478D01*
X94520550Y-88488122D01*
G37*
G36*
X92457420Y-88518741D02*
G01*
X92682612Y-89253423D01*
X92390009Y-90332000D01*
X92924412Y-90332000D01*
X93097336Y-89550911D01*
X93097336Y-90332000D01*
X93652256Y-90332000D01*
X93652256Y-88112321D01*
X93097336Y-88112321D01*
X93097336Y-89057540D01*
X92924412Y-88518741D01*
X92457420Y-88518741D01*
G37*
G36*
X90579681Y-88800108D02*
G01*
X91117015Y-88800108D01*
X91117015Y-88635000D01*
X91122805Y-88536087D01*
X91137531Y-88487966D01*
X91206408Y-88456214D01*
X91285054Y-88496270D01*
X91311265Y-88592600D01*
X91311921Y-88616926D01*
X91302338Y-88717356D01*
X91281635Y-88773242D01*
X91210041Y-88846567D01*
X91126315Y-88903880D01*
X91117992Y-88909041D01*
X91025981Y-88967399D01*
X90942900Y-89022797D01*
X90851608Y-89087879D01*
X90774268Y-89148334D01*
X90699879Y-89214772D01*
X90631949Y-89292990D01*
X90583541Y-89388075D01*
X90553813Y-89496145D01*
X90538068Y-89608888D01*
X90532200Y-89719032D01*
X90531809Y-89758517D01*
X90535290Y-89867602D01*
X90547526Y-89972003D01*
X90574445Y-90073262D01*
X90587497Y-90102900D01*
X90649834Y-90186793D01*
X90729280Y-90248713D01*
X90802430Y-90288524D01*
X90896141Y-90324653D01*
X90998120Y-90348957D01*
X91095711Y-90360635D01*
X91173191Y-90363263D01*
X91271646Y-90359055D01*
X91376151Y-90343943D01*
X91472108Y-90317839D01*
X91569841Y-90275335D01*
X91653201Y-90222089D01*
X91724794Y-90154045D01*
X91777982Y-90068397D01*
X91784775Y-90051609D01*
X91811565Y-89955266D01*
X91827193Y-89849470D01*
X91834337Y-89740248D01*
X91835578Y-89664728D01*
X91835578Y-89519159D01*
X91298243Y-89519159D01*
X91298243Y-89790757D01*
X91293306Y-89888810D01*
X91275773Y-89952446D01*
X91195173Y-89988106D01*
X91109688Y-89943165D01*
X91082711Y-89845945D01*
X91081356Y-89809320D01*
X91085606Y-89710114D01*
X91104497Y-89611138D01*
X91135089Y-89553842D01*
X91213722Y-89486683D01*
X91296759Y-89428104D01*
X91378922Y-89374209D01*
X91405222Y-89357471D01*
X91492717Y-89300947D01*
X91575653Y-89244992D01*
X91659978Y-89183110D01*
X91691474Y-89156703D01*
X91755344Y-89081110D01*
X91804352Y-88988281D01*
X91807245Y-88981337D01*
X91836975Y-88880128D01*
X91850293Y-88778371D01*
X91853163Y-88695084D01*
X91850054Y-88591711D01*
X91838888Y-88489426D01*
X91813509Y-88385356D01*
X91788194Y-88328231D01*
X91727836Y-88248181D01*
X91644946Y-88182418D01*
X91577169Y-88146515D01*
X91480273Y-88111996D01*
X91382952Y-88091860D01*
X91276048Y-88082080D01*
X91225459Y-88081057D01*
X91117015Y-88085606D01*
X91016875Y-88099254D01*
X90914145Y-88125481D01*
X90841509Y-88153842D01*
X90752780Y-88203005D01*
X90674012Y-88271699D01*
X90631460Y-88337024D01*
X90601980Y-88431162D01*
X90586962Y-88535319D01*
X90580945Y-88633212D01*
X90579681Y-88712181D01*
X90579681Y-88800108D01*
G37*
G36*
X89818620Y-88112321D02*
G01*
X89818620Y-88622788D01*
X89739535Y-88560295D01*
X89664259Y-88521183D01*
X89567126Y-88493929D01*
X89486450Y-88487478D01*
X89383387Y-88497850D01*
X89285534Y-88532498D01*
X89238788Y-88561239D01*
X89164362Y-88630081D01*
X89116857Y-88719291D01*
X89113735Y-88731232D01*
X89098870Y-88835702D01*
X89093018Y-88938819D01*
X89090866Y-89051629D01*
X89090776Y-89082942D01*
X89090776Y-90332000D01*
X89645696Y-90332000D01*
X89645696Y-89049725D01*
X89647963Y-88946364D01*
X89660824Y-88848458D01*
X89661816Y-88845538D01*
X89732158Y-88800108D01*
X89801035Y-88847003D01*
X89816542Y-88947672D01*
X89818620Y-89032139D01*
X89818620Y-90332000D01*
X90373540Y-90332000D01*
X90373540Y-88112321D01*
X89818620Y-88112321D01*
G37*
G36*
X88391610Y-88490483D02*
G01*
X88495184Y-88503840D01*
X88598641Y-88531639D01*
X88688264Y-88572963D01*
X88755645Y-88617354D01*
X88828253Y-88683775D01*
X88884147Y-88770311D01*
X88887152Y-88777364D01*
X88915774Y-88876362D01*
X88929132Y-88979116D01*
X88932996Y-89087338D01*
X88932996Y-89206528D01*
X88412270Y-89206528D01*
X88412270Y-89019927D01*
X88410934Y-88938134D01*
X88398592Y-88835768D01*
X88328250Y-88800108D01*
X88257908Y-88842118D01*
X88240529Y-88919982D01*
X88236415Y-89022858D01*
X88237636Y-89073691D01*
X88255954Y-89170869D01*
X88272029Y-89187281D01*
X88357758Y-89235046D01*
X88454600Y-89277956D01*
X88548069Y-89315949D01*
X88594380Y-89334328D01*
X88689348Y-89375541D01*
X88784523Y-89425094D01*
X88868515Y-89489850D01*
X88907808Y-89564314D01*
X88927895Y-89664917D01*
X88932996Y-89770241D01*
X88932996Y-89921183D01*
X88930026Y-90003131D01*
X88915891Y-90101869D01*
X88880613Y-90201410D01*
X88811363Y-90281197D01*
X88741051Y-90320867D01*
X88641411Y-90353565D01*
X88544161Y-90363263D01*
X88446616Y-90352529D01*
X88352675Y-90314414D01*
X88275447Y-90248207D01*
X88221272Y-90166891D01*
X88221272Y-90332000D01*
X87681495Y-90332000D01*
X87681495Y-89456633D01*
X88236415Y-89456633D01*
X88236415Y-89842537D01*
X88237989Y-89920485D01*
X88252535Y-90017415D01*
X88320434Y-90050632D01*
X88393707Y-90008133D01*
X88409206Y-89921330D01*
X88412270Y-89820066D01*
X88408803Y-89726629D01*
X88391265Y-89625161D01*
X88379272Y-89598548D01*
X88314879Y-89521948D01*
X88236415Y-89456633D01*
X87681495Y-89456633D01*
X87681495Y-89422928D01*
X87681608Y-89367944D01*
X87682508Y-89265133D01*
X87684901Y-89150036D01*
X87688700Y-89049847D01*
X87696384Y-88934626D01*
X87710316Y-88829418D01*
X87743637Y-88735715D01*
X87803971Y-88652748D01*
X87882263Y-88586640D01*
X87900636Y-88574632D01*
X87996777Y-88530183D01*
X88100725Y-88503843D01*
X88205955Y-88490964D01*
X88306757Y-88487478D01*
X88391610Y-88490483D01*
G37*
G36*
X86942416Y-88518741D02*
G01*
X86964398Y-88780080D01*
X86915323Y-88685553D01*
X86848387Y-88598408D01*
X86771027Y-88536181D01*
X86669849Y-88495576D01*
X86614154Y-88487478D01*
X86614154Y-89144002D01*
X86717125Y-89149704D01*
X86813961Y-89172866D01*
X86838369Y-89184547D01*
X86910573Y-89254631D01*
X86926296Y-89296410D01*
X86937316Y-89395145D01*
X86941141Y-89496536D01*
X86942353Y-89595913D01*
X86942416Y-89627603D01*
X86942416Y-90332000D01*
X87497336Y-90332000D01*
X87497336Y-88518741D01*
X86942416Y-88518741D01*
G37*
G36*
X85946882Y-88518741D02*
G01*
X85956652Y-88694595D01*
X85895464Y-88613892D01*
X85819321Y-88549421D01*
X85802779Y-88539257D01*
X85707280Y-88500422D01*
X85606659Y-88487528D01*
X85599569Y-88487478D01*
X85494148Y-88500422D01*
X85400633Y-88539257D01*
X85319026Y-88603981D01*
X85257386Y-88681853D01*
X85249325Y-88694595D01*
X85184410Y-88613892D01*
X85107387Y-88549421D01*
X85091056Y-88539257D01*
X84998365Y-88500422D01*
X84896150Y-88487478D01*
X84796773Y-88497095D01*
X84698199Y-88532624D01*
X84661677Y-88555866D01*
X84589370Y-88626391D01*
X84544658Y-88716760D01*
X84542975Y-88722928D01*
X84525896Y-88823813D01*
X84518683Y-88929067D01*
X84516622Y-89030580D01*
X84516596Y-89044351D01*
X84516596Y-90332000D01*
X85055396Y-90332000D01*
X85055396Y-89144491D01*
X85056404Y-89039069D01*
X85060497Y-88938462D01*
X85071516Y-88855796D01*
X85144789Y-88800108D01*
X85220993Y-88855307D01*
X85233815Y-88954958D01*
X85237489Y-89062883D01*
X85238090Y-89144491D01*
X85238090Y-90332000D01*
X85776889Y-90332000D01*
X85776889Y-89174777D01*
X85777521Y-89067924D01*
X85780187Y-88960698D01*
X85788481Y-88861335D01*
X85790079Y-88853842D01*
X85861886Y-88800108D01*
X85925389Y-88828441D01*
X85954210Y-88896829D01*
X85956414Y-88995753D01*
X85956652Y-89069264D01*
X85956652Y-90332000D01*
X86494963Y-90332000D01*
X86494963Y-88518741D01*
X85946882Y-88518741D01*
G37*
G36*
X83821338Y-88490483D02*
G01*
X83924912Y-88503840D01*
X84028369Y-88531639D01*
X84117992Y-88572963D01*
X84185373Y-88617354D01*
X84257981Y-88683775D01*
X84313875Y-88770311D01*
X84316880Y-88777364D01*
X84345502Y-88876362D01*
X84358859Y-88979116D01*
X84362723Y-89087338D01*
X84362723Y-89206528D01*
X83841998Y-89206528D01*
X83841998Y-89019927D01*
X83840662Y-88938134D01*
X83828320Y-88835768D01*
X83757978Y-88800108D01*
X83687636Y-88842118D01*
X83670257Y-88919982D01*
X83666143Y-89022858D01*
X83667364Y-89073691D01*
X83685682Y-89170869D01*
X83701756Y-89187281D01*
X83787486Y-89235046D01*
X83884328Y-89277956D01*
X83977797Y-89315949D01*
X84024107Y-89334328D01*
X84119076Y-89375541D01*
X84214250Y-89425094D01*
X84298243Y-89489850D01*
X84337536Y-89564314D01*
X84357623Y-89664917D01*
X84362723Y-89770241D01*
X84362723Y-89921183D01*
X84359754Y-90003131D01*
X84345619Y-90101869D01*
X84310340Y-90201410D01*
X84241090Y-90281197D01*
X84170779Y-90320867D01*
X84071139Y-90353565D01*
X83973889Y-90363263D01*
X83876344Y-90352529D01*
X83782402Y-90314414D01*
X83705174Y-90248207D01*
X83651000Y-90166891D01*
X83651000Y-90332000D01*
X83111223Y-90332000D01*
X83111223Y-89456633D01*
X83666143Y-89456633D01*
X83666143Y-89842537D01*
X83667717Y-89920485D01*
X83682263Y-90017415D01*
X83750162Y-90050632D01*
X83823435Y-90008133D01*
X83838934Y-89921330D01*
X83841998Y-89820066D01*
X83838531Y-89726629D01*
X83820993Y-89625161D01*
X83809000Y-89598548D01*
X83744607Y-89521948D01*
X83666143Y-89456633D01*
X83111223Y-89456633D01*
X83111223Y-89422928D01*
X83111336Y-89367944D01*
X83112236Y-89265133D01*
X83114629Y-89150036D01*
X83118428Y-89049847D01*
X83126112Y-88934626D01*
X83140044Y-88829418D01*
X83173365Y-88735715D01*
X83233699Y-88652748D01*
X83311991Y-88586640D01*
X83330364Y-88574632D01*
X83426505Y-88530183D01*
X83530453Y-88503843D01*
X83635683Y-88490964D01*
X83736485Y-88487478D01*
X83821338Y-88490483D01*
G37*
G36*
X100594126Y-93692000D02*
G01*
X99994754Y-93692000D01*
X99960560Y-93285579D01*
X99752954Y-93285579D01*
X99724133Y-93692000D01*
X99132088Y-93692000D01*
X99248706Y-92910422D01*
X99769562Y-92910422D01*
X99967399Y-92910422D01*
X99962698Y-92849826D01*
X99952286Y-92734751D01*
X99941639Y-92630016D01*
X99928931Y-92514016D01*
X99914162Y-92386750D01*
X99901732Y-92283908D01*
X99888144Y-92174729D01*
X99873396Y-92059212D01*
X99857490Y-91937359D01*
X99849246Y-92044769D01*
X99841003Y-92148831D01*
X99832760Y-92249544D01*
X99824517Y-92346908D01*
X99813526Y-92471518D01*
X99802535Y-92590174D01*
X99791544Y-92702877D01*
X99780553Y-92809626D01*
X99769562Y-92910422D01*
X99248706Y-92910422D01*
X99463282Y-91472321D01*
X100300058Y-91472321D01*
X100594126Y-93692000D01*
G37*
G36*
X98509758Y-91878741D02*
G01*
X98519527Y-92054595D01*
X98458339Y-91973892D01*
X98382196Y-91909421D01*
X98365654Y-91899257D01*
X98270155Y-91860422D01*
X98169534Y-91847528D01*
X98162444Y-91847478D01*
X98057023Y-91860422D01*
X97963508Y-91899257D01*
X97881901Y-91963981D01*
X97820261Y-92041853D01*
X97812200Y-92054595D01*
X97747285Y-91973892D01*
X97670262Y-91909421D01*
X97653931Y-91899257D01*
X97561240Y-91860422D01*
X97459025Y-91847478D01*
X97359649Y-91857095D01*
X97261074Y-91892624D01*
X97224552Y-91915866D01*
X97152245Y-91986391D01*
X97107533Y-92076760D01*
X97105850Y-92082928D01*
X97088771Y-92183813D01*
X97081558Y-92289067D01*
X97079497Y-92390580D01*
X97079471Y-92404351D01*
X97079471Y-93692000D01*
X97618271Y-93692000D01*
X97618271Y-92504491D01*
X97619279Y-92399069D01*
X97623372Y-92298462D01*
X97634391Y-92215796D01*
X97707664Y-92160108D01*
X97783868Y-92215307D01*
X97796691Y-92314958D01*
X97800364Y-92422883D01*
X97800965Y-92504491D01*
X97800965Y-93692000D01*
X98339765Y-93692000D01*
X98339765Y-92534777D01*
X98340396Y-92427924D01*
X98343062Y-92320698D01*
X98351357Y-92221335D01*
X98352954Y-92213842D01*
X98424761Y-92160108D01*
X98488264Y-92188441D01*
X98517085Y-92256829D01*
X98519289Y-92355753D01*
X98519527Y-92429264D01*
X98519527Y-93692000D01*
X99057839Y-93692000D01*
X99057839Y-91878741D01*
X98509758Y-91878741D01*
G37*
G36*
X96366884Y-91849576D02*
G01*
X96466887Y-91861667D01*
X96567565Y-91888113D01*
X96664747Y-91933451D01*
X96745357Y-91992670D01*
X96814302Y-92070484D01*
X96862584Y-92161574D01*
X96886520Y-92239304D01*
X96905273Y-92343246D01*
X96914676Y-92450300D01*
X96917294Y-92555293D01*
X96917294Y-93019355D01*
X96917028Y-93061572D01*
X96913715Y-93164246D01*
X96905464Y-93262529D01*
X96887008Y-93365203D01*
X96880977Y-93386518D01*
X96843524Y-93478040D01*
X96786380Y-93561574D01*
X96762862Y-93585924D01*
X96682293Y-93643573D01*
X96588055Y-93683207D01*
X96571837Y-93688057D01*
X96474797Y-93709141D01*
X96375058Y-93720094D01*
X96275912Y-93723263D01*
X96186053Y-93719553D01*
X96084411Y-93704944D01*
X95983798Y-93676368D01*
X95937785Y-93656796D01*
X95849166Y-93602018D01*
X95775703Y-93530311D01*
X95751746Y-93498965D01*
X95702407Y-93414116D01*
X95670190Y-93317331D01*
X95660483Y-93261295D01*
X95656543Y-93220122D01*
X96200197Y-93220122D01*
X96201205Y-93274314D01*
X96216317Y-93374972D01*
X96281286Y-93410632D01*
X96345766Y-93371553D01*
X96358725Y-93304008D01*
X96362374Y-93202048D01*
X96362374Y-92374065D01*
X96360753Y-92296299D01*
X96345766Y-92196745D01*
X96279820Y-92160108D01*
X96215340Y-92196745D01*
X96203096Y-92270882D01*
X96200197Y-92374065D01*
X96200197Y-93220122D01*
X95656543Y-93220122D01*
X95650751Y-93159591D01*
X95646470Y-93059886D01*
X95645277Y-92959271D01*
X95645277Y-92515726D01*
X95646563Y-92436412D01*
X95653778Y-92330666D01*
X95672144Y-92229473D01*
X95673868Y-92223587D01*
X95713649Y-92130958D01*
X95771795Y-92046780D01*
X95806560Y-92009497D01*
X95886628Y-91948815D01*
X95978425Y-91902676D01*
X95995363Y-91895992D01*
X96095961Y-91866937D01*
X96198333Y-91851844D01*
X96299360Y-91847478D01*
X96366884Y-91849576D01*
G37*
G36*
X94898871Y-91472321D02*
G01*
X94898871Y-93692000D01*
X95470400Y-93692000D01*
X95470400Y-91472321D01*
X94898871Y-91472321D01*
G37*
G36*
X92817922Y-91472321D02*
G01*
X93149116Y-92474693D01*
X92786171Y-93692000D01*
X93384077Y-93692000D01*
X93617573Y-92740429D01*
X93617573Y-93692000D01*
X94195940Y-93692000D01*
X94195940Y-91472321D01*
X93617573Y-91472321D01*
X93617573Y-92334498D01*
X93360630Y-91472321D01*
X92817922Y-91472321D01*
G37*
G36*
X91438927Y-91878741D02*
G01*
X91438927Y-93692000D01*
X92003617Y-93692000D01*
X91993847Y-93537638D01*
X92058205Y-93618849D01*
X92135996Y-93676856D01*
X92232955Y-93713066D01*
X92330414Y-93723263D01*
X92431700Y-93714941D01*
X92527535Y-93685052D01*
X92538020Y-93679787D01*
X92616897Y-93621364D01*
X92659653Y-93563528D01*
X92697053Y-93470677D01*
X92708501Y-93412586D01*
X92714846Y-93314131D01*
X92717203Y-93207513D01*
X92717783Y-93100443D01*
X92717783Y-91878741D01*
X92162863Y-91878741D01*
X92162863Y-93118029D01*
X92161858Y-93224151D01*
X92157393Y-93323093D01*
X92150162Y-93371064D01*
X92078843Y-93410632D01*
X92005571Y-93369599D01*
X91996091Y-93265237D01*
X91994030Y-93157436D01*
X91993847Y-93104351D01*
X91993847Y-91878741D01*
X91438927Y-91878741D01*
G37*
G36*
X90699848Y-91878741D02*
G01*
X90709618Y-92054595D01*
X90648429Y-91973892D01*
X90572287Y-91909421D01*
X90555745Y-91899257D01*
X90460246Y-91860422D01*
X90359625Y-91847528D01*
X90352535Y-91847478D01*
X90247114Y-91860422D01*
X90153599Y-91899257D01*
X90071992Y-91963981D01*
X90010352Y-92041853D01*
X90002291Y-92054595D01*
X89937376Y-91973892D01*
X89860353Y-91909421D01*
X89844021Y-91899257D01*
X89751331Y-91860422D01*
X89649116Y-91847478D01*
X89549739Y-91857095D01*
X89451164Y-91892624D01*
X89414642Y-91915866D01*
X89342336Y-91986391D01*
X89297624Y-92076760D01*
X89295940Y-92082928D01*
X89278862Y-92183813D01*
X89271649Y-92289067D01*
X89269588Y-92390580D01*
X89269562Y-92404351D01*
X89269562Y-93692000D01*
X89808362Y-93692000D01*
X89808362Y-92504491D01*
X89809369Y-92399069D01*
X89813462Y-92298462D01*
X89824482Y-92215796D01*
X89897755Y-92160108D01*
X89973959Y-92215307D01*
X89986781Y-92314958D01*
X89990454Y-92422883D01*
X89991056Y-92504491D01*
X89991056Y-93692000D01*
X90529855Y-93692000D01*
X90529855Y-92534777D01*
X90530486Y-92427924D01*
X90533153Y-92320698D01*
X90541447Y-92221335D01*
X90543044Y-92213842D01*
X90614852Y-92160108D01*
X90678355Y-92188441D01*
X90707176Y-92256829D01*
X90709379Y-92355753D01*
X90709618Y-92429264D01*
X90709618Y-93692000D01*
X91247929Y-93692000D01*
X91247929Y-91878741D01*
X90699848Y-91878741D01*
G37*
G36*
X88574304Y-91850483D02*
G01*
X88677878Y-91863840D01*
X88781335Y-91891639D01*
X88870958Y-91932963D01*
X88938338Y-91977354D01*
X89010947Y-92043775D01*
X89066841Y-92130311D01*
X89069846Y-92137364D01*
X89098468Y-92236362D01*
X89111825Y-92339116D01*
X89115689Y-92447338D01*
X89115689Y-92566528D01*
X88594963Y-92566528D01*
X88594963Y-92379927D01*
X88593628Y-92298134D01*
X88581286Y-92195768D01*
X88510944Y-92160108D01*
X88440602Y-92202118D01*
X88423223Y-92279982D01*
X88419109Y-92382858D01*
X88420330Y-92433691D01*
X88438648Y-92530869D01*
X88454722Y-92547281D01*
X88540451Y-92595046D01*
X88637294Y-92637956D01*
X88730762Y-92675949D01*
X88777073Y-92694328D01*
X88872042Y-92735541D01*
X88967216Y-92785094D01*
X89051209Y-92849850D01*
X89090502Y-92924314D01*
X89110589Y-93024917D01*
X89115689Y-93130241D01*
X89115689Y-93281183D01*
X89112720Y-93363131D01*
X89098585Y-93461869D01*
X89063306Y-93561410D01*
X88994056Y-93641197D01*
X88923744Y-93680867D01*
X88824105Y-93713565D01*
X88726855Y-93723263D01*
X88629310Y-93712529D01*
X88535368Y-93674414D01*
X88458140Y-93608207D01*
X88403966Y-93526891D01*
X88403966Y-93692000D01*
X87864189Y-93692000D01*
X87864189Y-92816633D01*
X88419109Y-92816633D01*
X88419109Y-93202537D01*
X88420683Y-93280485D01*
X88435229Y-93377415D01*
X88503128Y-93410632D01*
X88576401Y-93368133D01*
X88591900Y-93281330D01*
X88594963Y-93180066D01*
X88591497Y-93086629D01*
X88573959Y-92985161D01*
X88561966Y-92958548D01*
X88497573Y-92881948D01*
X88419109Y-92816633D01*
X87864189Y-92816633D01*
X87864189Y-92782928D01*
X87864301Y-92727944D01*
X87865202Y-92625133D01*
X87867594Y-92510036D01*
X87871394Y-92409847D01*
X87879078Y-92294626D01*
X87893009Y-92189418D01*
X87926330Y-92095715D01*
X87986665Y-92012748D01*
X88064956Y-91946640D01*
X88083330Y-91934632D01*
X88179471Y-91890183D01*
X88283419Y-91863843D01*
X88388649Y-91850964D01*
X88489451Y-91847478D01*
X88574304Y-91850483D01*
G37*
G36*
X87125110Y-91878741D02*
G01*
X87147092Y-92140080D01*
X87098016Y-92045553D01*
X87031081Y-91958408D01*
X86953720Y-91896181D01*
X86852543Y-91855576D01*
X86796848Y-91847478D01*
X86796848Y-92504002D01*
X86899819Y-92509704D01*
X86996655Y-92532866D01*
X87021063Y-92544547D01*
X87093267Y-92614631D01*
X87108990Y-92656410D01*
X87120009Y-92755145D01*
X87123835Y-92856536D01*
X87125047Y-92955913D01*
X87125110Y-92987603D01*
X87125110Y-93692000D01*
X87680030Y-93692000D01*
X87680030Y-91878741D01*
X87125110Y-91878741D01*
G37*
G36*
X86106129Y-91472321D02*
G01*
X86106129Y-91753688D01*
X86677657Y-91753688D01*
X86677657Y-91472321D01*
X86106129Y-91472321D01*
G37*
G36*
X86106129Y-91878741D02*
G01*
X86106129Y-93692000D01*
X86677657Y-93692000D01*
X86677657Y-91878741D01*
X86106129Y-91878741D01*
G37*
G36*
X100091963Y-97052000D02*
G01*
X99492591Y-97052000D01*
X99458397Y-96645579D01*
X99250791Y-96645579D01*
X99221970Y-97052000D01*
X98629925Y-97052000D01*
X98746543Y-96270422D01*
X99267399Y-96270422D01*
X99465236Y-96270422D01*
X99460535Y-96209826D01*
X99450123Y-96094751D01*
X99439476Y-95990016D01*
X99426768Y-95874016D01*
X99411999Y-95746750D01*
X99399569Y-95643908D01*
X99385981Y-95534729D01*
X99371233Y-95419212D01*
X99355327Y-95297359D01*
X99347083Y-95404769D01*
X99338840Y-95508831D01*
X99330597Y-95609544D01*
X99322354Y-95706908D01*
X99311363Y-95831518D01*
X99300372Y-95950174D01*
X99289381Y-96062877D01*
X99278390Y-96169626D01*
X99267399Y-96270422D01*
X98746543Y-96270422D01*
X98961119Y-94832321D01*
X99797895Y-94832321D01*
X100091963Y-97052000D01*
G37*
G36*
X98555676Y-97052000D02*
G01*
X98036415Y-97052000D01*
X98000756Y-96910827D01*
X97931805Y-96982333D01*
X97846394Y-97040276D01*
X97764270Y-97071131D01*
X97664189Y-97083263D01*
X97614570Y-97080755D01*
X97516016Y-97058120D01*
X97429716Y-97011944D01*
X97417603Y-97002867D01*
X97348627Y-96933664D01*
X97303687Y-96842439D01*
X97287315Y-96754947D01*
X97278945Y-96649763D01*
X97276820Y-96545928D01*
X97276820Y-96521993D01*
X97831740Y-96521993D01*
X97834007Y-96627460D01*
X97847860Y-96728133D01*
X97915759Y-96770632D01*
X97983659Y-96729110D01*
X97997934Y-96642434D01*
X98000756Y-96540066D01*
X98000756Y-95749697D01*
X97998966Y-95657867D01*
X97985613Y-95558210D01*
X97919667Y-95520108D01*
X97849814Y-95563584D01*
X97834723Y-95650169D01*
X97831740Y-95749697D01*
X97831740Y-96521993D01*
X97276820Y-96521993D01*
X97276820Y-95730157D01*
X97277047Y-95670828D01*
X97278859Y-95572635D01*
X97286101Y-95468329D01*
X97293829Y-95433514D01*
X97338858Y-95342788D01*
X97381189Y-95295235D01*
X97466841Y-95243137D01*
X97564140Y-95215313D01*
X97664189Y-95207478D01*
X97753583Y-95216279D01*
X97847371Y-95247533D01*
X97927971Y-95297481D01*
X98000756Y-95368189D01*
X98000756Y-94832321D01*
X98555676Y-94832321D01*
X98555676Y-97052000D01*
G37*
G36*
X96547022Y-94832321D02*
G01*
X96547022Y-95342788D01*
X96467937Y-95280295D01*
X96392661Y-95241183D01*
X96295529Y-95213929D01*
X96214852Y-95207478D01*
X96111789Y-95217850D01*
X96013936Y-95252498D01*
X95967190Y-95281239D01*
X95892764Y-95350081D01*
X95845259Y-95439291D01*
X95842137Y-95451232D01*
X95827273Y-95555702D01*
X95821421Y-95658819D01*
X95819268Y-95771629D01*
X95819179Y-95802942D01*
X95819179Y-97052000D01*
X96374098Y-97052000D01*
X96374098Y-95769725D01*
X96376365Y-95666364D01*
X96389227Y-95568458D01*
X96390218Y-95565538D01*
X96460560Y-95520108D01*
X96529437Y-95567003D01*
X96544944Y-95667672D01*
X96547022Y-95752139D01*
X96547022Y-97052000D01*
X97101942Y-97052000D01*
X97101942Y-94832321D01*
X96547022Y-94832321D01*
G37*
G36*
X95120013Y-95210483D02*
G01*
X95223587Y-95223840D01*
X95327043Y-95251639D01*
X95416666Y-95292963D01*
X95484047Y-95337354D01*
X95556655Y-95403775D01*
X95612549Y-95490311D01*
X95615555Y-95497364D01*
X95644177Y-95596362D01*
X95657534Y-95699116D01*
X95661398Y-95807338D01*
X95661398Y-95926528D01*
X95140672Y-95926528D01*
X95140672Y-95739927D01*
X95139336Y-95658134D01*
X95126994Y-95555768D01*
X95056652Y-95520108D01*
X94986311Y-95562118D01*
X94968931Y-95639982D01*
X94964817Y-95742858D01*
X94966038Y-95793691D01*
X94984357Y-95890869D01*
X95000431Y-95907281D01*
X95086160Y-95955046D01*
X95183002Y-95997956D01*
X95276471Y-96035949D01*
X95322782Y-96054328D01*
X95417750Y-96095541D01*
X95512925Y-96145094D01*
X95596918Y-96209850D01*
X95636210Y-96284314D01*
X95656297Y-96384917D01*
X95661398Y-96490241D01*
X95661398Y-96641183D01*
X95658428Y-96723131D01*
X95644293Y-96821869D01*
X95609015Y-96921410D01*
X95539765Y-97001197D01*
X95469453Y-97040867D01*
X95369813Y-97073565D01*
X95272563Y-97083263D01*
X95175019Y-97072529D01*
X95081077Y-97034414D01*
X95003849Y-96968207D01*
X94949674Y-96886891D01*
X94949674Y-97052000D01*
X94409897Y-97052000D01*
X94409897Y-96176633D01*
X94964817Y-96176633D01*
X94964817Y-96562537D01*
X94966391Y-96640485D01*
X94980937Y-96737415D01*
X95048837Y-96770632D01*
X95122110Y-96728133D01*
X95137608Y-96641330D01*
X95140672Y-96540066D01*
X95137205Y-96446629D01*
X95119667Y-96345161D01*
X95107674Y-96318548D01*
X95043282Y-96241948D01*
X94964817Y-96176633D01*
X94409897Y-96176633D01*
X94409897Y-96142928D01*
X94410010Y-96087944D01*
X94410911Y-95985133D01*
X94413303Y-95870036D01*
X94417103Y-95769847D01*
X94424786Y-95654626D01*
X94438718Y-95549418D01*
X94472039Y-95455715D01*
X94532374Y-95372748D01*
X94610665Y-95306640D01*
X94629039Y-95294632D01*
X94725179Y-95250183D01*
X94829127Y-95223843D01*
X94934357Y-95210964D01*
X95035159Y-95207478D01*
X95120013Y-95210483D01*
G37*
G36*
X93092451Y-95832739D02*
G01*
X93584357Y-95832739D01*
X93584357Y-95727226D01*
X93587162Y-95627903D01*
X93599011Y-95556256D01*
X93670819Y-95520108D01*
X93740672Y-95550883D01*
X93764119Y-95643695D01*
X93757525Y-95743987D01*
X93752396Y-95766305D01*
X93689627Y-95846447D01*
X93682542Y-95852279D01*
X93593271Y-95909309D01*
X93506346Y-95955744D01*
X93442696Y-95987589D01*
X93344879Y-96038630D01*
X93252608Y-96095302D01*
X93173693Y-96156941D01*
X93125669Y-96209850D01*
X93079530Y-96301212D01*
X93057347Y-96397707D01*
X93050027Y-96500378D01*
X93049953Y-96512711D01*
X93053556Y-96617034D01*
X93066221Y-96718120D01*
X93094085Y-96818267D01*
X93107595Y-96848301D01*
X93167247Y-96931438D01*
X93245065Y-96993010D01*
X93300546Y-97022202D01*
X93400153Y-97056966D01*
X93502124Y-97076047D01*
X93603198Y-97083024D01*
X93626855Y-97083263D01*
X93728796Y-97079049D01*
X93834356Y-97064237D01*
X93930256Y-97038761D01*
X93988823Y-97015852D01*
X94081177Y-96963907D01*
X94156648Y-96894470D01*
X94195941Y-96833646D01*
X94227924Y-96740479D01*
X94244217Y-96643557D01*
X94251239Y-96541769D01*
X94252117Y-96485356D01*
X94252117Y-96395475D01*
X93760211Y-96395475D01*
X93760211Y-96519062D01*
X93757601Y-96621575D01*
X93742791Y-96720668D01*
X93741649Y-96723737D01*
X93668376Y-96770632D01*
X93585822Y-96741323D01*
X93562947Y-96645135D01*
X93562375Y-96617247D01*
X93569029Y-96516440D01*
X93592661Y-96454093D01*
X93679422Y-96394723D01*
X93772303Y-96339975D01*
X93863241Y-96288375D01*
X93915550Y-96259187D01*
X94000609Y-96208623D01*
X94082872Y-96151933D01*
X94161779Y-96082686D01*
X94214015Y-96010548D01*
X94248489Y-95912726D01*
X94264712Y-95810121D01*
X94267260Y-95744812D01*
X94263657Y-95643024D01*
X94250992Y-95545591D01*
X94223128Y-95451064D01*
X94209618Y-95423388D01*
X94143755Y-95341844D01*
X94062742Y-95286385D01*
X94013736Y-95263653D01*
X93913442Y-95231670D01*
X93813150Y-95214115D01*
X93715463Y-95207697D01*
X93692800Y-95207478D01*
X93595149Y-95211187D01*
X93496707Y-95224010D01*
X93400654Y-95248693D01*
X93384566Y-95254372D01*
X93291128Y-95297156D01*
X93207559Y-95359145D01*
X93189660Y-95377959D01*
X93129880Y-95460683D01*
X93107106Y-95520108D01*
X93095256Y-95617241D01*
X93092466Y-95716613D01*
X93092451Y-95725272D01*
X93092451Y-95832739D01*
G37*
G36*
X91108711Y-94832321D02*
G01*
X91108711Y-97052000D01*
X91615759Y-97052000D01*
X91916666Y-96042788D01*
X91916666Y-97052000D01*
X92400267Y-97052000D01*
X92400267Y-94832321D01*
X91916666Y-94832321D01*
X91592312Y-95831762D01*
X91592312Y-94832321D01*
X91108711Y-94832321D01*
G37*
G36*
X90383655Y-95210483D02*
G01*
X90487229Y-95223840D01*
X90590686Y-95251639D01*
X90680309Y-95292963D01*
X90747690Y-95337354D01*
X90820298Y-95403775D01*
X90876192Y-95490311D01*
X90879197Y-95497364D01*
X90907819Y-95596362D01*
X90921176Y-95699116D01*
X90925040Y-95807338D01*
X90925040Y-95926528D01*
X90404315Y-95926528D01*
X90404315Y-95739927D01*
X90402979Y-95658134D01*
X90390637Y-95555768D01*
X90320295Y-95520108D01*
X90249953Y-95562118D01*
X90232574Y-95639982D01*
X90228460Y-95742858D01*
X90229681Y-95793691D01*
X90247999Y-95890869D01*
X90264074Y-95907281D01*
X90349803Y-95955046D01*
X90446645Y-95997956D01*
X90540114Y-96035949D01*
X90586424Y-96054328D01*
X90681393Y-96095541D01*
X90776568Y-96145094D01*
X90860560Y-96209850D01*
X90899853Y-96284314D01*
X90919940Y-96384917D01*
X90925040Y-96490241D01*
X90925040Y-96641183D01*
X90922071Y-96723131D01*
X90907936Y-96821869D01*
X90872658Y-96921410D01*
X90803408Y-97001197D01*
X90733096Y-97040867D01*
X90633456Y-97073565D01*
X90536206Y-97083263D01*
X90438661Y-97072529D01*
X90344719Y-97034414D01*
X90267492Y-96968207D01*
X90213317Y-96886891D01*
X90213317Y-97052000D01*
X89673540Y-97052000D01*
X89673540Y-96176633D01*
X90228460Y-96176633D01*
X90228460Y-96562537D01*
X90230034Y-96640485D01*
X90244580Y-96737415D01*
X90312479Y-96770632D01*
X90385752Y-96728133D01*
X90401251Y-96641330D01*
X90404315Y-96540066D01*
X90400848Y-96446629D01*
X90383310Y-96345161D01*
X90371317Y-96318548D01*
X90306924Y-96241948D01*
X90228460Y-96176633D01*
X89673540Y-96176633D01*
X89673540Y-96142928D01*
X89673653Y-96087944D01*
X89674553Y-95985133D01*
X89676946Y-95870036D01*
X89680745Y-95769847D01*
X89688429Y-95654626D01*
X89702361Y-95549418D01*
X89735682Y-95455715D01*
X89796016Y-95372748D01*
X89874308Y-95306640D01*
X89892681Y-95294632D01*
X89988822Y-95250183D01*
X90092770Y-95223843D01*
X90198000Y-95210964D01*
X90298802Y-95207478D01*
X90383655Y-95210483D01*
G37*
G36*
X88941300Y-95238741D02*
G01*
X88951070Y-95414595D01*
X88889881Y-95333892D01*
X88813739Y-95269421D01*
X88797197Y-95259257D01*
X88701698Y-95220422D01*
X88601076Y-95207528D01*
X88593987Y-95207478D01*
X88488565Y-95220422D01*
X88395051Y-95259257D01*
X88313443Y-95323981D01*
X88251804Y-95401853D01*
X88243742Y-95414595D01*
X88178827Y-95333892D01*
X88101805Y-95269421D01*
X88085473Y-95259257D01*
X87992783Y-95220422D01*
X87890567Y-95207478D01*
X87791191Y-95217095D01*
X87692616Y-95252624D01*
X87656094Y-95275866D01*
X87583787Y-95346391D01*
X87539076Y-95436760D01*
X87537392Y-95442928D01*
X87520313Y-95543813D01*
X87513101Y-95649067D01*
X87511040Y-95750580D01*
X87511014Y-95764351D01*
X87511014Y-97052000D01*
X88049814Y-97052000D01*
X88049814Y-95864491D01*
X88050821Y-95759069D01*
X88054914Y-95658462D01*
X88065934Y-95575796D01*
X88139207Y-95520108D01*
X88215410Y-95575307D01*
X88228233Y-95674958D01*
X88231906Y-95782883D01*
X88232507Y-95864491D01*
X88232507Y-97052000D01*
X88771307Y-97052000D01*
X88771307Y-95894777D01*
X88771938Y-95787924D01*
X88774604Y-95680698D01*
X88782899Y-95581335D01*
X88784496Y-95573842D01*
X88856304Y-95520108D01*
X88919807Y-95548441D01*
X88948627Y-95616829D01*
X88950831Y-95715753D01*
X88951070Y-95789264D01*
X88951070Y-97052000D01*
X89489381Y-97052000D01*
X89489381Y-95238741D01*
X88941300Y-95238741D01*
G37*
G36*
X86815756Y-95210483D02*
G01*
X86919330Y-95223840D01*
X87022786Y-95251639D01*
X87112410Y-95292963D01*
X87179790Y-95337354D01*
X87252398Y-95403775D01*
X87308292Y-95490311D01*
X87311298Y-95497364D01*
X87339920Y-95596362D01*
X87353277Y-95699116D01*
X87357141Y-95807338D01*
X87357141Y-95926528D01*
X86836415Y-95926528D01*
X86836415Y-95739927D01*
X86835080Y-95658134D01*
X86822738Y-95555768D01*
X86752396Y-95520108D01*
X86682054Y-95562118D01*
X86664674Y-95639982D01*
X86660560Y-95742858D01*
X86661782Y-95793691D01*
X86680100Y-95890869D01*
X86696174Y-95907281D01*
X86781903Y-95955046D01*
X86878746Y-95997956D01*
X86972214Y-96035949D01*
X87018525Y-96054328D01*
X87113493Y-96095541D01*
X87208668Y-96145094D01*
X87292661Y-96209850D01*
X87331953Y-96284314D01*
X87352040Y-96384917D01*
X87357141Y-96490241D01*
X87357141Y-96641183D01*
X87354171Y-96723131D01*
X87340036Y-96821869D01*
X87304758Y-96921410D01*
X87235508Y-97001197D01*
X87165196Y-97040867D01*
X87065557Y-97073565D01*
X86968306Y-97083263D01*
X86870762Y-97072529D01*
X86776820Y-97034414D01*
X86699592Y-96968207D01*
X86645417Y-96886891D01*
X86645417Y-97052000D01*
X86105641Y-97052000D01*
X86105641Y-96176633D01*
X86660560Y-96176633D01*
X86660560Y-96562537D01*
X86662135Y-96640485D01*
X86676680Y-96737415D01*
X86744580Y-96770632D01*
X86817853Y-96728133D01*
X86833352Y-96641330D01*
X86836415Y-96540066D01*
X86832949Y-96446629D01*
X86815410Y-96345161D01*
X86803418Y-96318548D01*
X86739025Y-96241948D01*
X86660560Y-96176633D01*
X86105641Y-96176633D01*
X86105641Y-96142928D01*
X86105753Y-96087944D01*
X86106654Y-95985133D01*
X86109046Y-95870036D01*
X86112846Y-95769847D01*
X86120529Y-95654626D01*
X86134461Y-95549418D01*
X86167782Y-95455715D01*
X86228117Y-95372748D01*
X86306408Y-95306640D01*
X86324782Y-95294632D01*
X86420922Y-95250183D01*
X86524871Y-95223843D01*
X86630101Y-95210964D01*
X86730902Y-95207478D01*
X86815756Y-95210483D01*
G37*
M02*
