%TF.GenerationSoftware,KiCad,Pcbnew,8.0.1*%
%TF.CreationDate,2024-04-10T08:00:08+05:30*%
%TF.ProjectId,AquaSense,41717561-5365-46e7-9365-2e6b69636164,V 1.0*%
%TF.SameCoordinates,Original*%
%TF.FileFunction,Copper,L1,Top*%
%TF.FilePolarity,Positive*%
%FSLAX46Y46*%
G04 Gerber Fmt 4.6, Leading zero omitted, Abs format (unit mm)*
G04 Created by KiCad (PCBNEW 8.0.1) date 2024-04-10 08:00:08*
%MOMM*%
%LPD*%
G01*
G04 APERTURE LIST*
%TA.AperFunction,ComponentPad*%
%ADD10R,1.700000X1.700000*%
%TD*%
%TA.AperFunction,ComponentPad*%
%ADD11O,1.700000X1.700000*%
%TD*%
%TA.AperFunction,ComponentPad*%
%ADD12R,1.560000X1.560000*%
%TD*%
%TA.AperFunction,ComponentPad*%
%ADD13C,1.560000*%
%TD*%
%TA.AperFunction,ComponentPad*%
%ADD14C,2.400000*%
%TD*%
%TA.AperFunction,ComponentPad*%
%ADD15O,2.400000X2.400000*%
%TD*%
%TA.AperFunction,Conductor*%
%ADD16C,0.500000*%
%TD*%
G04 APERTURE END LIST*
D10*
%TO.P,J5,1,Pin_1*%
%TO.N,gnd*%
X44072000Y-58005000D03*
D11*
%TO.P,J5,2,Pin_2*%
%TO.N,Net-(J1-Pin_2)*%
X44072000Y-60545000D03*
%TO.P,J5,3,Pin_3*%
%TO.N,Net-(J1-Pin_3)*%
X44072000Y-63085000D03*
%TD*%
D10*
%TO.P,J2,1,Pin_1*%
%TO.N,gnd*%
X39119000Y-121585000D03*
D11*
%TO.P,J2,2,Pin_2*%
%TO.N,Net-(J2-Pin_2)*%
X39119000Y-124125000D03*
%TO.P,J2,3,Pin_3*%
%TO.N,Net-(J2-Pin_3)*%
X39119000Y-126665000D03*
%TD*%
D12*
%TO.P,U1,J2-1,3V3*%
%TO.N,Net-(J1-Pin_2)*%
X49342000Y-88565000D03*
D13*
%TO.P,U1,J2-2,EN*%
%TO.N,unconnected-(U1-EN-PadJ2-2)*%
X49342000Y-91105000D03*
%TO.P,U1,J2-3,SENSOR_VP*%
%TO.N,Net-(J1-Pin_3)*%
X49342000Y-93645000D03*
%TO.P,U1,J2-4,SENSOR_VN*%
%TO.N,unconnected-(U1-SENSOR_VN-PadJ2-4)*%
X49342000Y-96185000D03*
%TO.P,U1,J2-5,IO34*%
%TO.N,unconnected-(U1-IO34-PadJ2-5)*%
X49342000Y-98725000D03*
%TO.P,U1,J2-6,IO35*%
%TO.N,unconnected-(U1-IO35-PadJ2-6)*%
X49342000Y-101265000D03*
%TO.P,U1,J2-7,IO32*%
%TO.N,unconnected-(U1-IO32-PadJ2-7)*%
X49342000Y-103805000D03*
%TO.P,U1,J2-8,IO33*%
%TO.N,unconnected-(U1-IO33-PadJ2-8)*%
X49342000Y-106345000D03*
%TO.P,U1,J2-9,IO25*%
%TO.N,unconnected-(U1-IO25-PadJ2-9)*%
X49342000Y-108885000D03*
%TO.P,U1,J2-10,IO26*%
%TO.N,unconnected-(U1-IO26-PadJ2-10)*%
X49342000Y-111425000D03*
%TO.P,U1,J2-11,IO27*%
%TO.N,unconnected-(U1-IO27-PadJ2-11)*%
X49342000Y-113965000D03*
%TO.P,U1,J2-12,IO14*%
%TO.N,unconnected-(U1-IO14-PadJ2-12)*%
X49342000Y-116505000D03*
%TO.P,U1,J2-13,IO12*%
%TO.N,unconnected-(U1-IO12-PadJ2-13)*%
X49342000Y-119045000D03*
%TO.P,U1,J2-14,GND1*%
%TO.N,gnd*%
X49342000Y-121585000D03*
%TO.P,U1,J2-15,IO13*%
%TO.N,Net-(J2-Pin_2)*%
X49342000Y-124125000D03*
%TO.P,U1,J2-16,SD2*%
%TO.N,unconnected-(U1-SD2-PadJ2-16)*%
X49342000Y-126665000D03*
%TO.P,U1,J2-17,SD3*%
%TO.N,unconnected-(U1-SD3-PadJ2-17)*%
X49342000Y-129205000D03*
%TO.P,U1,J2-18,CMD*%
%TO.N,unconnected-(U1-CMD-PadJ2-18)*%
X49342000Y-131745000D03*
%TO.P,U1,J2-19,EXT_5V*%
%TO.N,Net-(J2-Pin_3)*%
X49342000Y-134285000D03*
%TO.P,U1,J3-1,GND3*%
%TO.N,gnd*%
X72012000Y-88565000D03*
%TO.P,U1,J3-2,IO23*%
%TO.N,unconnected-(U1-IO23-PadJ3-2)*%
X72012000Y-91105000D03*
%TO.P,U1,J3-3,IO22*%
%TO.N,unconnected-(U1-IO22-PadJ3-3)*%
X72012000Y-93645000D03*
%TO.P,U1,J3-4,TXD0*%
%TO.N,unconnected-(U1-TXD0-PadJ3-4)*%
X72012000Y-96185000D03*
%TO.P,U1,J3-5,RXD0*%
%TO.N,unconnected-(U1-RXD0-PadJ3-5)*%
X72012000Y-98725000D03*
%TO.P,U1,J3-6,IO21*%
%TO.N,unconnected-(U1-IO21-PadJ3-6)*%
X72012000Y-101265000D03*
%TO.P,U1,J3-7,GND2*%
%TO.N,unconnected-(U1-GND2-PadJ3-7)*%
X72012000Y-103805000D03*
%TO.P,U1,J3-8,IO19*%
%TO.N,unconnected-(U1-IO19-PadJ3-8)*%
X72012000Y-106345000D03*
%TO.P,U1,J3-9,IO18*%
%TO.N,unconnected-(U1-IO18-PadJ3-9)*%
X72012000Y-108885000D03*
%TO.P,U1,J3-10,IO5*%
%TO.N,unconnected-(U1-IO5-PadJ3-10)*%
X72012000Y-111425000D03*
%TO.P,U1,J3-11,IO17*%
%TO.N,unconnected-(U1-IO17-PadJ3-11)*%
X72012000Y-113965000D03*
%TO.P,U1,J3-12,IO16*%
%TO.N,unconnected-(U1-IO16-PadJ3-12)*%
X72012000Y-116505000D03*
%TO.P,U1,J3-13,IO4*%
%TO.N,unconnected-(U1-IO4-PadJ3-13)*%
X72012000Y-119045000D03*
%TO.P,U1,J3-14,IO0*%
%TO.N,unconnected-(U1-IO0-PadJ3-14)*%
X72012000Y-121585000D03*
%TO.P,U1,J3-15,IO2*%
%TO.N,unconnected-(U1-IO2-PadJ3-15)*%
X72012000Y-124125000D03*
%TO.P,U1,J3-16,IO15*%
%TO.N,unconnected-(U1-IO15-PadJ3-16)*%
X72012000Y-126665000D03*
%TO.P,U1,J3-17,SD1*%
%TO.N,unconnected-(U1-SD1-PadJ3-17)*%
X72012000Y-129205000D03*
%TO.P,U1,J3-18,SD0*%
%TO.N,unconnected-(U1-SD0-PadJ3-18)*%
X72012000Y-131745000D03*
%TO.P,U1,J3-19,CLK*%
%TO.N,unconnected-(U1-CLK-PadJ3-19)*%
X72012000Y-134285000D03*
%TD*%
D10*
%TO.P,J4,1,Pin_1*%
%TO.N,vcc*%
X90358000Y-138622000D03*
D11*
%TO.P,J4,2,Pin_2*%
%TO.N,gnd*%
X87818000Y-138622000D03*
%TD*%
D10*
%TO.P,J3,1,Pin_1*%
%TO.N,vcc*%
X90448000Y-133442000D03*
D11*
%TO.P,J3,2,Pin_2*%
%TO.N,gnd*%
X87908000Y-133442000D03*
%TD*%
D14*
%TO.P,R1,1*%
%TO.N,Net-(J2-Pin_2)*%
X44707000Y-124125000D03*
D15*
%TO.P,R1,2*%
%TO.N,Net-(J2-Pin_3)*%
X44707000Y-139365000D03*
%TD*%
D10*
%TO.P,J1,1,Pin_1*%
%TO.N,gnd*%
X44326000Y-86025000D03*
D11*
%TO.P,J1,2,Pin_2*%
%TO.N,Net-(J1-Pin_2)*%
X44326000Y-88565000D03*
%TO.P,J1,3,Pin_3*%
%TO.N,Net-(J1-Pin_3)*%
X44326000Y-91105000D03*
%TD*%
D16*
%TO.N,Net-(J1-Pin_3)*%
X44072000Y-63085000D02*
X38702000Y-68455000D01*
X44326000Y-91105000D02*
X46866000Y-93645000D01*
X46866000Y-93645000D02*
X49342000Y-93645000D01*
X38702000Y-85481000D02*
X44326000Y-91105000D01*
X38702000Y-68455000D02*
X38702000Y-85481000D01*
%TO.N,Net-(J1-Pin_2)*%
X47222000Y-71755000D02*
X41352000Y-77625000D01*
X44326000Y-88565000D02*
X49342000Y-88565000D01*
X44072000Y-60545000D02*
X47222000Y-63695000D01*
X41352000Y-85591000D02*
X44326000Y-88565000D01*
X41352000Y-77625000D02*
X41352000Y-85591000D01*
X47222000Y-63695000D02*
X47222000Y-71755000D01*
%TO.N,Net-(J2-Pin_2)*%
X44707000Y-124125000D02*
X49342000Y-124125000D01*
X39119000Y-124125000D02*
X44707000Y-124125000D01*
%TO.N,Net-(J2-Pin_3)*%
X39119000Y-126665000D02*
X39119000Y-133777000D01*
X49342000Y-134730000D02*
X49342000Y-134285000D01*
X39119000Y-133777000D02*
X44707000Y-139365000D01*
X44707000Y-139365000D02*
X49342000Y-134730000D01*
%TO.N,vcc*%
X90448000Y-138532000D02*
X90358000Y-138622000D01*
X90448000Y-133442000D02*
X90448000Y-138532000D01*
%TO.N,gnd*%
X87908000Y-133442000D02*
X87908000Y-138532000D01*
X39119000Y-121585000D02*
X49342000Y-121585000D01*
X44326000Y-86025000D02*
X69472000Y-86025000D01*
X87908000Y-138532000D02*
X87818000Y-138622000D01*
X69472000Y-86025000D02*
X72012000Y-88565000D01*
%TD*%
%TA.AperFunction,Conductor*%
%TO.N,gnd*%
G36*
X110787690Y-32969322D02*
G01*
X110820715Y-32973652D01*
X111068251Y-33006113D01*
X111081664Y-33008631D01*
X111368256Y-33078991D01*
X111381325Y-33082975D01*
X111658425Y-33184468D01*
X111670970Y-33189865D01*
X111935207Y-33321256D01*
X111947075Y-33327998D01*
X112155832Y-33462334D01*
X112195220Y-33487681D01*
X112206295Y-33495704D01*
X112435349Y-33681745D01*
X112445473Y-33690940D01*
X112652638Y-33901066D01*
X112661688Y-33911320D01*
X112844452Y-34142982D01*
X112852318Y-34154170D01*
X113008461Y-34404555D01*
X113015047Y-34416542D01*
X113142663Y-34682594D01*
X113147889Y-34695232D01*
X113245431Y-34973724D01*
X113249233Y-34986861D01*
X113315511Y-35274392D01*
X113317844Y-35287869D01*
X113352056Y-35580965D01*
X113352890Y-35594616D01*
X113354349Y-35844170D01*
X113354048Y-35848993D01*
X113354048Y-35905817D01*
X113353897Y-35911931D01*
X113351407Y-35962350D01*
X113351654Y-35965369D01*
X113354048Y-35987809D01*
X113354048Y-142583979D01*
X113352337Y-142604505D01*
X113306193Y-142879415D01*
X113303121Y-142892998D01*
X113220477Y-143181855D01*
X113215900Y-143195007D01*
X113101397Y-143472757D01*
X113095375Y-143485313D01*
X112950448Y-143748477D01*
X112943057Y-143760278D01*
X112769534Y-144005539D01*
X112760865Y-144016438D01*
X112560936Y-144240696D01*
X112551100Y-144250553D01*
X112327297Y-144450972D01*
X112316418Y-144459665D01*
X112071544Y-144633732D01*
X112059759Y-144641150D01*
X111796915Y-144786663D01*
X111784372Y-144792713D01*
X111506870Y-144907836D01*
X111493739Y-144912438D01*
X111205069Y-144995724D01*
X111191494Y-144998826D01*
X110895316Y-145049218D01*
X110881477Y-145050779D01*
X110577822Y-145067851D01*
X110570862Y-145068047D01*
X110501070Y-145068047D01*
X110501054Y-145068048D01*
X35954981Y-145068048D01*
X35948028Y-145067853D01*
X35645002Y-145050835D01*
X35631184Y-145049278D01*
X35335407Y-144999023D01*
X35321851Y-144995929D01*
X35033559Y-144912874D01*
X35020433Y-144908281D01*
X34743256Y-144793471D01*
X34730728Y-144787438D01*
X34468146Y-144642313D01*
X34456372Y-144634915D01*
X34211684Y-144461301D01*
X34200822Y-144452639D01*
X33977111Y-144252717D01*
X33967281Y-144242887D01*
X33951053Y-144224728D01*
X33767358Y-144019175D01*
X33758698Y-144008315D01*
X33756728Y-144005539D01*
X33585084Y-143763627D01*
X33577686Y-143751853D01*
X33432561Y-143489271D01*
X33426531Y-143476750D01*
X33311717Y-143199565D01*
X33307125Y-143186440D01*
X33224070Y-142898148D01*
X33220976Y-142884592D01*
X33170720Y-142588807D01*
X33169165Y-142575006D01*
X33152147Y-142271972D01*
X33151952Y-142265019D01*
X33151952Y-126665000D01*
X37763341Y-126665000D01*
X37783936Y-126900403D01*
X37783938Y-126900413D01*
X37845094Y-127128655D01*
X37845096Y-127128659D01*
X37845097Y-127128663D01*
X37928582Y-127307696D01*
X37944965Y-127342830D01*
X37944967Y-127342834D01*
X38080501Y-127536395D01*
X38080506Y-127536402D01*
X38247595Y-127703492D01*
X38247598Y-127703494D01*
X38247599Y-127703495D01*
X38315623Y-127751125D01*
X38359248Y-127805701D01*
X38368500Y-127852700D01*
X38368500Y-133850918D01*
X38368500Y-133850920D01*
X38368499Y-133850920D01*
X38397340Y-133995907D01*
X38397343Y-133995917D01*
X38453912Y-134132488D01*
X38453918Y-134132499D01*
X38463637Y-134147043D01*
X38463639Y-134147048D01*
X38536046Y-134255414D01*
X38536052Y-134255421D01*
X43041204Y-138760571D01*
X43074689Y-138821894D01*
X43074414Y-138875844D01*
X43020777Y-139110842D01*
X43020777Y-139110844D01*
X43001732Y-139364995D01*
X43001732Y-139365004D01*
X43020777Y-139619154D01*
X43068797Y-139829544D01*
X43077492Y-139867637D01*
X43170607Y-140104888D01*
X43298041Y-140325612D01*
X43456950Y-140524877D01*
X43643783Y-140698232D01*
X43854366Y-140841805D01*
X43854371Y-140841807D01*
X43854372Y-140841808D01*
X43854373Y-140841809D01*
X43976328Y-140900538D01*
X44083992Y-140952387D01*
X44083993Y-140952387D01*
X44083996Y-140952389D01*
X44327542Y-141027513D01*
X44579565Y-141065500D01*
X44834435Y-141065500D01*
X45086458Y-141027513D01*
X45330004Y-140952389D01*
X45559634Y-140841805D01*
X45770217Y-140698232D01*
X45957050Y-140524877D01*
X46115959Y-140325612D01*
X46243393Y-140104888D01*
X46336508Y-139867637D01*
X46393222Y-139619157D01*
X46412268Y-139365000D01*
X46407365Y-139299578D01*
X46393222Y-139110845D01*
X46393221Y-139110842D01*
X46339585Y-138875844D01*
X46339821Y-138872000D01*
X86487364Y-138872000D01*
X86544567Y-139085486D01*
X86544570Y-139085492D01*
X86644399Y-139299578D01*
X86779894Y-139493082D01*
X86946917Y-139660105D01*
X87140421Y-139795600D01*
X87354507Y-139895429D01*
X87354516Y-139895433D01*
X87568000Y-139952634D01*
X87568000Y-139055012D01*
X87625007Y-139087925D01*
X87752174Y-139122000D01*
X87883826Y-139122000D01*
X88010993Y-139087925D01*
X88068000Y-139055012D01*
X88068000Y-139952633D01*
X88281483Y-139895433D01*
X88281492Y-139895429D01*
X88495578Y-139795600D01*
X88689078Y-139660108D01*
X88811133Y-139538053D01*
X88872456Y-139504568D01*
X88942148Y-139509552D01*
X88998082Y-139551423D01*
X89014997Y-139582401D01*
X89064202Y-139714328D01*
X89064206Y-139714335D01*
X89150452Y-139829544D01*
X89150455Y-139829547D01*
X89265664Y-139915793D01*
X89265671Y-139915797D01*
X89400517Y-139966091D01*
X89400516Y-139966091D01*
X89407444Y-139966835D01*
X89460127Y-139972500D01*
X91255872Y-139972499D01*
X91315483Y-139966091D01*
X91450331Y-139915796D01*
X91565546Y-139829546D01*
X91651796Y-139714331D01*
X91702091Y-139579483D01*
X91708500Y-139519873D01*
X91708499Y-137724128D01*
X91702091Y-137664517D01*
X91701002Y-137661598D01*
X91651797Y-137529671D01*
X91651793Y-137529664D01*
X91565547Y-137414455D01*
X91565544Y-137414452D01*
X91450335Y-137328206D01*
X91450328Y-137328202D01*
X91315482Y-137277908D01*
X91315484Y-137277908D01*
X91309244Y-137277238D01*
X91244693Y-137250500D01*
X91204845Y-137193107D01*
X91198500Y-137153949D01*
X91198500Y-134916499D01*
X91218185Y-134849460D01*
X91270989Y-134803705D01*
X91322500Y-134792499D01*
X91345871Y-134792499D01*
X91345872Y-134792499D01*
X91405483Y-134786091D01*
X91540331Y-134735796D01*
X91655546Y-134649546D01*
X91741796Y-134534331D01*
X91792091Y-134399483D01*
X91798500Y-134339873D01*
X91798499Y-132544128D01*
X91792091Y-132484517D01*
X91791002Y-132481598D01*
X91741797Y-132349671D01*
X91741793Y-132349664D01*
X91655547Y-132234455D01*
X91655544Y-132234452D01*
X91540335Y-132148206D01*
X91540328Y-132148202D01*
X91405482Y-132097908D01*
X91405483Y-132097908D01*
X91345883Y-132091501D01*
X91345881Y-132091500D01*
X91345873Y-132091500D01*
X91345864Y-132091500D01*
X89550129Y-132091500D01*
X89550123Y-132091501D01*
X89490516Y-132097908D01*
X89355671Y-132148202D01*
X89355664Y-132148206D01*
X89240455Y-132234452D01*
X89240452Y-132234455D01*
X89154206Y-132349664D01*
X89154202Y-132349671D01*
X89104997Y-132481598D01*
X89063126Y-132537532D01*
X88997661Y-132561949D01*
X88929388Y-132547097D01*
X88901134Y-132525946D01*
X88779082Y-132403894D01*
X88585578Y-132268399D01*
X88371492Y-132168570D01*
X88371486Y-132168567D01*
X88158000Y-132111364D01*
X88158000Y-133008988D01*
X88100993Y-132976075D01*
X87973826Y-132942000D01*
X87842174Y-132942000D01*
X87715007Y-132976075D01*
X87658000Y-133008988D01*
X87658000Y-132111364D01*
X87657999Y-132111364D01*
X87444513Y-132168567D01*
X87444507Y-132168570D01*
X87230422Y-132268399D01*
X87230420Y-132268400D01*
X87036926Y-132403886D01*
X87036920Y-132403891D01*
X86869891Y-132570920D01*
X86869886Y-132570926D01*
X86734400Y-132764420D01*
X86734399Y-132764422D01*
X86634570Y-132978507D01*
X86634567Y-132978513D01*
X86577364Y-133191999D01*
X86577364Y-133192000D01*
X87474988Y-133192000D01*
X87442075Y-133249007D01*
X87408000Y-133376174D01*
X87408000Y-133507826D01*
X87442075Y-133634993D01*
X87474988Y-133692000D01*
X86577364Y-133692000D01*
X86634567Y-133905486D01*
X86634570Y-133905492D01*
X86734399Y-134119578D01*
X86869894Y-134313082D01*
X87036917Y-134480105D01*
X87230421Y-134615600D01*
X87444507Y-134715429D01*
X87444516Y-134715433D01*
X87658000Y-134772634D01*
X87658000Y-133875012D01*
X87715007Y-133907925D01*
X87842174Y-133942000D01*
X87973826Y-133942000D01*
X88100993Y-133907925D01*
X88158000Y-133875012D01*
X88158000Y-134772633D01*
X88371483Y-134715433D01*
X88371492Y-134715429D01*
X88585578Y-134615600D01*
X88779078Y-134480108D01*
X88901133Y-134358053D01*
X88962456Y-134324568D01*
X89032148Y-134329552D01*
X89088082Y-134371423D01*
X89104997Y-134402401D01*
X89154202Y-134534328D01*
X89154206Y-134534335D01*
X89240452Y-134649544D01*
X89240455Y-134649547D01*
X89355664Y-134735793D01*
X89355671Y-134735797D01*
X89392457Y-134749517D01*
X89490517Y-134786091D01*
X89550127Y-134792500D01*
X89573497Y-134792499D01*
X89640536Y-134812181D01*
X89686292Y-134864983D01*
X89697500Y-134916499D01*
X89697500Y-137147500D01*
X89677815Y-137214539D01*
X89625011Y-137260294D01*
X89573501Y-137271500D01*
X89460130Y-137271500D01*
X89460123Y-137271501D01*
X89400516Y-137277908D01*
X89265671Y-137328202D01*
X89265664Y-137328206D01*
X89150455Y-137414452D01*
X89150452Y-137414455D01*
X89064206Y-137529664D01*
X89064202Y-137529671D01*
X89014997Y-137661598D01*
X88973126Y-137717532D01*
X88907661Y-137741949D01*
X88839388Y-137727097D01*
X88811134Y-137705946D01*
X88689082Y-137583894D01*
X88495578Y-137448399D01*
X88281492Y-137348570D01*
X88281486Y-137348567D01*
X88068000Y-137291364D01*
X88068000Y-138188988D01*
X88010993Y-138156075D01*
X87883826Y-138122000D01*
X87752174Y-138122000D01*
X87625007Y-138156075D01*
X87568000Y-138188988D01*
X87568000Y-137291364D01*
X87567999Y-137291364D01*
X87354513Y-137348567D01*
X87354507Y-137348570D01*
X87140422Y-137448399D01*
X87140420Y-137448400D01*
X86946926Y-137583886D01*
X86946920Y-137583891D01*
X86779891Y-137750920D01*
X86779886Y-137750926D01*
X86644400Y-137944420D01*
X86644399Y-137944422D01*
X86544570Y-138158507D01*
X86544567Y-138158513D01*
X86487364Y-138371999D01*
X86487364Y-138372000D01*
X87384988Y-138372000D01*
X87352075Y-138429007D01*
X87318000Y-138556174D01*
X87318000Y-138687826D01*
X87352075Y-138814993D01*
X87384988Y-138872000D01*
X86487364Y-138872000D01*
X46339821Y-138872000D01*
X46343858Y-138806106D01*
X46372793Y-138760573D01*
X49565343Y-135568023D01*
X49620926Y-135535932D01*
X49781630Y-135492872D01*
X49984696Y-135398181D01*
X50168233Y-135269667D01*
X50326667Y-135111233D01*
X50455181Y-134927696D01*
X50549872Y-134724630D01*
X50607863Y-134508206D01*
X50627391Y-134285001D01*
X70726609Y-134285001D01*
X70746136Y-134508200D01*
X70746137Y-134508208D01*
X70804126Y-134724625D01*
X70804127Y-134724627D01*
X70804128Y-134724630D01*
X70844954Y-134812181D01*
X70898819Y-134927696D01*
X70898821Y-134927700D01*
X71027329Y-135111228D01*
X71027334Y-135111234D01*
X71185765Y-135269665D01*
X71185771Y-135269670D01*
X71369299Y-135398178D01*
X71369301Y-135398179D01*
X71369304Y-135398181D01*
X71572370Y-135492872D01*
X71788794Y-135550863D01*
X71948226Y-135564811D01*
X72011998Y-135570391D01*
X72012000Y-135570391D01*
X72012002Y-135570391D01*
X72067801Y-135565509D01*
X72235206Y-135550863D01*
X72451630Y-135492872D01*
X72654696Y-135398181D01*
X72838233Y-135269667D01*
X72996667Y-135111233D01*
X73125181Y-134927696D01*
X73219872Y-134724630D01*
X73277863Y-134508206D01*
X73297391Y-134285000D01*
X73277863Y-134061794D01*
X73219872Y-133845370D01*
X73125181Y-133642305D01*
X72996667Y-133458767D01*
X72838233Y-133300333D01*
X72838229Y-133300330D01*
X72838228Y-133300329D01*
X72654700Y-133171821D01*
X72654692Y-133171817D01*
X72559400Y-133127382D01*
X72506960Y-133081210D01*
X72487808Y-133014017D01*
X72508023Y-132947135D01*
X72559400Y-132902618D01*
X72654696Y-132858181D01*
X72838233Y-132729667D01*
X72996667Y-132571233D01*
X73125181Y-132387696D01*
X73219872Y-132184630D01*
X73277863Y-131968206D01*
X73297391Y-131745000D01*
X73277863Y-131521794D01*
X73219872Y-131305370D01*
X73125181Y-131102305D01*
X72996667Y-130918767D01*
X72838233Y-130760333D01*
X72838229Y-130760330D01*
X72838228Y-130760329D01*
X72654700Y-130631821D01*
X72654692Y-130631817D01*
X72559400Y-130587382D01*
X72506960Y-130541210D01*
X72487808Y-130474017D01*
X72508023Y-130407135D01*
X72559400Y-130362618D01*
X72654696Y-130318181D01*
X72838233Y-130189667D01*
X72996667Y-130031233D01*
X73125181Y-129847696D01*
X73219872Y-129644630D01*
X73277863Y-129428206D01*
X73297391Y-129205000D01*
X73277863Y-128981794D01*
X73219872Y-128765370D01*
X73125181Y-128562305D01*
X72996667Y-128378767D01*
X72838233Y-128220333D01*
X72838229Y-128220330D01*
X72838228Y-128220329D01*
X72654700Y-128091821D01*
X72654692Y-128091817D01*
X72559400Y-128047382D01*
X72506960Y-128001210D01*
X72487808Y-127934017D01*
X72508023Y-127867135D01*
X72559400Y-127822618D01*
X72654696Y-127778181D01*
X72838233Y-127649667D01*
X72996667Y-127491233D01*
X73125181Y-127307696D01*
X73219872Y-127104630D01*
X73277863Y-126888206D01*
X73297391Y-126665000D01*
X73277863Y-126441794D01*
X73219872Y-126225370D01*
X73125181Y-126022305D01*
X72996667Y-125838767D01*
X72838233Y-125680333D01*
X72838229Y-125680330D01*
X72838228Y-125680329D01*
X72654700Y-125551821D01*
X72654692Y-125551817D01*
X72559400Y-125507382D01*
X72506960Y-125461210D01*
X72487808Y-125394017D01*
X72508023Y-125327135D01*
X72559400Y-125282618D01*
X72654696Y-125238181D01*
X72838233Y-125109667D01*
X72996667Y-124951233D01*
X73125181Y-124767696D01*
X73219872Y-124564630D01*
X73277863Y-124348206D01*
X73297391Y-124125000D01*
X73277863Y-123901794D01*
X73219872Y-123685370D01*
X73125181Y-123482305D01*
X72996667Y-123298767D01*
X72838233Y-123140333D01*
X72838229Y-123140330D01*
X72838228Y-123140329D01*
X72654700Y-123011821D01*
X72654692Y-123011817D01*
X72559400Y-122967382D01*
X72506960Y-122921210D01*
X72487808Y-122854017D01*
X72508023Y-122787135D01*
X72559400Y-122742618D01*
X72559994Y-122742341D01*
X72654696Y-122698181D01*
X72838233Y-122569667D01*
X72996667Y-122411233D01*
X73125181Y-122227696D01*
X73219872Y-122024630D01*
X73277863Y-121808206D01*
X73297391Y-121585000D01*
X73277863Y-121361794D01*
X73219872Y-121145370D01*
X73125181Y-120942305D01*
X72996667Y-120758767D01*
X72838233Y-120600333D01*
X72838229Y-120600330D01*
X72838228Y-120600329D01*
X72654700Y-120471821D01*
X72654692Y-120471817D01*
X72559400Y-120427382D01*
X72506960Y-120381210D01*
X72487808Y-120314017D01*
X72508023Y-120247135D01*
X72559400Y-120202618D01*
X72654696Y-120158181D01*
X72838233Y-120029667D01*
X72996667Y-119871233D01*
X73125181Y-119687696D01*
X73219872Y-119484630D01*
X73277863Y-119268206D01*
X73297391Y-119045000D01*
X73277863Y-118821794D01*
X73219872Y-118605370D01*
X73125181Y-118402305D01*
X72996667Y-118218767D01*
X72838233Y-118060333D01*
X72838229Y-118060330D01*
X72838228Y-118060329D01*
X72654700Y-117931821D01*
X72654692Y-117931817D01*
X72559400Y-117887382D01*
X72506960Y-117841210D01*
X72487808Y-117774017D01*
X72508023Y-117707135D01*
X72559400Y-117662618D01*
X72654696Y-117618181D01*
X72838233Y-117489667D01*
X72996667Y-117331233D01*
X73125181Y-117147696D01*
X73219872Y-116944630D01*
X73277863Y-116728206D01*
X73297391Y-116505000D01*
X73277863Y-116281794D01*
X73219872Y-116065370D01*
X73125181Y-115862305D01*
X72996667Y-115678767D01*
X72838233Y-115520333D01*
X72838229Y-115520330D01*
X72838228Y-115520329D01*
X72654700Y-115391821D01*
X72654692Y-115391817D01*
X72559400Y-115347382D01*
X72506960Y-115301210D01*
X72487808Y-115234017D01*
X72508023Y-115167135D01*
X72559400Y-115122618D01*
X72654696Y-115078181D01*
X72838233Y-114949667D01*
X72996667Y-114791233D01*
X73125181Y-114607696D01*
X73219872Y-114404630D01*
X73277863Y-114188206D01*
X73297391Y-113965000D01*
X73277863Y-113741794D01*
X73219872Y-113525370D01*
X73125181Y-113322305D01*
X72996667Y-113138767D01*
X72838233Y-112980333D01*
X72838229Y-112980330D01*
X72838228Y-112980329D01*
X72654700Y-112851821D01*
X72654692Y-112851817D01*
X72559400Y-112807382D01*
X72506960Y-112761210D01*
X72487808Y-112694017D01*
X72508023Y-112627135D01*
X72559400Y-112582618D01*
X72654696Y-112538181D01*
X72838233Y-112409667D01*
X72996667Y-112251233D01*
X73125181Y-112067696D01*
X73219872Y-111864630D01*
X73277863Y-111648206D01*
X73297391Y-111425000D01*
X73277863Y-111201794D01*
X73219872Y-110985370D01*
X73125181Y-110782305D01*
X72996667Y-110598767D01*
X72838233Y-110440333D01*
X72838229Y-110440330D01*
X72838228Y-110440329D01*
X72654700Y-110311821D01*
X72654692Y-110311817D01*
X72559400Y-110267382D01*
X72506960Y-110221210D01*
X72487808Y-110154017D01*
X72508023Y-110087135D01*
X72559400Y-110042618D01*
X72654696Y-109998181D01*
X72838233Y-109869667D01*
X72996667Y-109711233D01*
X73125181Y-109527696D01*
X73219872Y-109324630D01*
X73277863Y-109108206D01*
X73297391Y-108885000D01*
X73277863Y-108661794D01*
X73219872Y-108445370D01*
X73125181Y-108242305D01*
X72996667Y-108058767D01*
X72838233Y-107900333D01*
X72838229Y-107900330D01*
X72838228Y-107900329D01*
X72654700Y-107771821D01*
X72654692Y-107771817D01*
X72559400Y-107727382D01*
X72506960Y-107681210D01*
X72487808Y-107614017D01*
X72508023Y-107547135D01*
X72559400Y-107502618D01*
X72654696Y-107458181D01*
X72838233Y-107329667D01*
X72996667Y-107171233D01*
X73125181Y-106987696D01*
X73219872Y-106784630D01*
X73277863Y-106568206D01*
X73297391Y-106345000D01*
X73277863Y-106121794D01*
X73219872Y-105905370D01*
X73125181Y-105702305D01*
X72996667Y-105518767D01*
X72838233Y-105360333D01*
X72838229Y-105360330D01*
X72838228Y-105360329D01*
X72654700Y-105231821D01*
X72654692Y-105231817D01*
X72559400Y-105187382D01*
X72506960Y-105141210D01*
X72487808Y-105074017D01*
X72508023Y-105007135D01*
X72559400Y-104962618D01*
X72654696Y-104918181D01*
X72838233Y-104789667D01*
X72996667Y-104631233D01*
X73125181Y-104447696D01*
X73219872Y-104244630D01*
X73277863Y-104028206D01*
X73297391Y-103805000D01*
X73277863Y-103581794D01*
X73219872Y-103365370D01*
X73125181Y-103162305D01*
X72996667Y-102978767D01*
X72838233Y-102820333D01*
X72838229Y-102820330D01*
X72838228Y-102820329D01*
X72654700Y-102691821D01*
X72654692Y-102691817D01*
X72559400Y-102647382D01*
X72506960Y-102601210D01*
X72487808Y-102534017D01*
X72508023Y-102467135D01*
X72559400Y-102422618D01*
X72654696Y-102378181D01*
X72838233Y-102249667D01*
X72996667Y-102091233D01*
X73125181Y-101907696D01*
X73219872Y-101704630D01*
X73277863Y-101488206D01*
X73297391Y-101265000D01*
X73277863Y-101041794D01*
X73219872Y-100825370D01*
X73125181Y-100622305D01*
X72996667Y-100438767D01*
X72838233Y-100280333D01*
X72838229Y-100280330D01*
X72838228Y-100280329D01*
X72654700Y-100151821D01*
X72654692Y-100151817D01*
X72559400Y-100107382D01*
X72506960Y-100061210D01*
X72487808Y-99994017D01*
X72508023Y-99927135D01*
X72559400Y-99882618D01*
X72654696Y-99838181D01*
X72838233Y-99709667D01*
X72996667Y-99551233D01*
X73125181Y-99367696D01*
X73219872Y-99164630D01*
X73277863Y-98948206D01*
X73297391Y-98725000D01*
X73277863Y-98501794D01*
X73219872Y-98285370D01*
X73125181Y-98082305D01*
X72996667Y-97898767D01*
X72838233Y-97740333D01*
X72838229Y-97740330D01*
X72838228Y-97740329D01*
X72654700Y-97611821D01*
X72654692Y-97611817D01*
X72559400Y-97567382D01*
X72506960Y-97521210D01*
X72487808Y-97454017D01*
X72508023Y-97387135D01*
X72559400Y-97342618D01*
X72654696Y-97298181D01*
X72838233Y-97169667D01*
X72996667Y-97011233D01*
X73125181Y-96827696D01*
X73219872Y-96624630D01*
X73277863Y-96408206D01*
X73297391Y-96185000D01*
X73277863Y-95961794D01*
X73219872Y-95745370D01*
X73125181Y-95542305D01*
X72996667Y-95358767D01*
X72838233Y-95200333D01*
X72838229Y-95200330D01*
X72838228Y-95200329D01*
X72654700Y-95071821D01*
X72654692Y-95071817D01*
X72559400Y-95027382D01*
X72506960Y-94981210D01*
X72487808Y-94914017D01*
X72508023Y-94847135D01*
X72559400Y-94802618D01*
X72654696Y-94758181D01*
X72838233Y-94629667D01*
X72996667Y-94471233D01*
X73125181Y-94287696D01*
X73219872Y-94084630D01*
X73277863Y-93868206D01*
X73297391Y-93645000D01*
X73277863Y-93421794D01*
X73219872Y-93205370D01*
X73125181Y-93002305D01*
X72996667Y-92818767D01*
X72838233Y-92660333D01*
X72838229Y-92660330D01*
X72838228Y-92660329D01*
X72654700Y-92531821D01*
X72654692Y-92531817D01*
X72559400Y-92487382D01*
X72506960Y-92441210D01*
X72487808Y-92374017D01*
X72508023Y-92307135D01*
X72559400Y-92262618D01*
X72654696Y-92218181D01*
X72838233Y-92089667D01*
X72996667Y-91931233D01*
X73125181Y-91747696D01*
X73219872Y-91544630D01*
X73277863Y-91328206D01*
X73297391Y-91105000D01*
X73277863Y-90881794D01*
X73219872Y-90665370D01*
X73125181Y-90462305D01*
X72996667Y-90278767D01*
X72838233Y-90120333D01*
X72838229Y-90120330D01*
X72838228Y-90120329D01*
X72654700Y-89991821D01*
X72654696Y-89991819D01*
X72558807Y-89947105D01*
X72506369Y-89900934D01*
X72487217Y-89833740D01*
X72507433Y-89766859D01*
X72558809Y-89722341D01*
X72654450Y-89677743D01*
X72654451Y-89677742D01*
X72723112Y-89629665D01*
X72157739Y-89064292D01*
X72212712Y-89049563D01*
X72331287Y-88981104D01*
X72428104Y-88884287D01*
X72496563Y-88765712D01*
X72511292Y-88710739D01*
X73076665Y-89276112D01*
X73124742Y-89207451D01*
X73124746Y-89207445D01*
X73219399Y-89004459D01*
X73219403Y-89004450D01*
X73277367Y-88788124D01*
X73277369Y-88788113D01*
X73296889Y-88565002D01*
X73296889Y-88564997D01*
X73277369Y-88341886D01*
X73277367Y-88341875D01*
X73219403Y-88125549D01*
X73219399Y-88125540D01*
X73124747Y-87922557D01*
X73124746Y-87922555D01*
X73076664Y-87853887D01*
X73076664Y-87853886D01*
X72511292Y-88419259D01*
X72496563Y-88364288D01*
X72428104Y-88245713D01*
X72331287Y-88148896D01*
X72212712Y-88080437D01*
X72157740Y-88065707D01*
X72723112Y-87500334D01*
X72723112Y-87500333D01*
X72654445Y-87452253D01*
X72654443Y-87452252D01*
X72451459Y-87357600D01*
X72451450Y-87357596D01*
X72235124Y-87299632D01*
X72235113Y-87299630D01*
X72012002Y-87280111D01*
X72011998Y-87280111D01*
X71788886Y-87299630D01*
X71788875Y-87299632D01*
X71572549Y-87357596D01*
X71572540Y-87357600D01*
X71369556Y-87452253D01*
X71300887Y-87500334D01*
X71866260Y-88065707D01*
X71811288Y-88080437D01*
X71692713Y-88148896D01*
X71595896Y-88245713D01*
X71527437Y-88364288D01*
X71512707Y-88419260D01*
X70947334Y-87853887D01*
X70899253Y-87922556D01*
X70804600Y-88125540D01*
X70804596Y-88125549D01*
X70746632Y-88341875D01*
X70746630Y-88341886D01*
X70727111Y-88564997D01*
X70727111Y-88565002D01*
X70746630Y-88788113D01*
X70746632Y-88788124D01*
X70804596Y-89004450D01*
X70804600Y-89004459D01*
X70899252Y-89207443D01*
X70899253Y-89207445D01*
X70947334Y-89276112D01*
X71512707Y-88710739D01*
X71527437Y-88765712D01*
X71595896Y-88884287D01*
X71692713Y-88981104D01*
X71811288Y-89049563D01*
X71866259Y-89064292D01*
X71300886Y-89629664D01*
X71369556Y-89677747D01*
X71369558Y-89677748D01*
X71465190Y-89722342D01*
X71517630Y-89768514D01*
X71536782Y-89835707D01*
X71516567Y-89902588D01*
X71465191Y-89947106D01*
X71379389Y-89987117D01*
X71369303Y-89991820D01*
X71185764Y-90120334D01*
X71027334Y-90278764D01*
X70898819Y-90462304D01*
X70898818Y-90462306D01*
X70804129Y-90665368D01*
X70804126Y-90665374D01*
X70746137Y-90881791D01*
X70746136Y-90881799D01*
X70726609Y-91104998D01*
X70726609Y-91105001D01*
X70746136Y-91328200D01*
X70746137Y-91328208D01*
X70804126Y-91544625D01*
X70804127Y-91544627D01*
X70804128Y-91544630D01*
X70898819Y-91747696D01*
X70898821Y-91747700D01*
X71027329Y-91931228D01*
X71027334Y-91931234D01*
X71185765Y-92089665D01*
X71185771Y-92089670D01*
X71369299Y-92218178D01*
X71369301Y-92218179D01*
X71369304Y-92218181D01*
X71464600Y-92262618D01*
X71517039Y-92308790D01*
X71536191Y-92375984D01*
X71515975Y-92442865D01*
X71464600Y-92487382D01*
X71369306Y-92531818D01*
X71369304Y-92531819D01*
X71185764Y-92660334D01*
X71027334Y-92818764D01*
X70898819Y-93002304D01*
X70898818Y-93002306D01*
X70804129Y-93205368D01*
X70804126Y-93205374D01*
X70746137Y-93421791D01*
X70746136Y-93421799D01*
X70726609Y-93644998D01*
X70726609Y-93645001D01*
X70746136Y-93868200D01*
X70746137Y-93868208D01*
X70804126Y-94084625D01*
X70804127Y-94084627D01*
X70804128Y-94084630D01*
X70870960Y-94227951D01*
X70898819Y-94287696D01*
X70898821Y-94287700D01*
X71027329Y-94471228D01*
X71027334Y-94471234D01*
X71185765Y-94629665D01*
X71185771Y-94629670D01*
X71369299Y-94758178D01*
X71369301Y-94758179D01*
X71369304Y-94758181D01*
X71464600Y-94802618D01*
X71517039Y-94848790D01*
X71536191Y-94915984D01*
X71515975Y-94982865D01*
X71464600Y-95027382D01*
X71369306Y-95071818D01*
X71369304Y-95071819D01*
X71185764Y-95200334D01*
X71027334Y-95358764D01*
X70898819Y-95542304D01*
X70898818Y-95542306D01*
X70804129Y-95745368D01*
X70804126Y-95745374D01*
X70746137Y-95961791D01*
X70746136Y-95961799D01*
X70726609Y-96184998D01*
X70726609Y-96185001D01*
X70746136Y-96408200D01*
X70746137Y-96408208D01*
X70804126Y-96624625D01*
X70804127Y-96624627D01*
X70804128Y-96624630D01*
X70898819Y-96827696D01*
X70898821Y-96827700D01*
X71027329Y-97011228D01*
X71027334Y-97011234D01*
X71185765Y-97169665D01*
X71185771Y-97169670D01*
X71369299Y-97298178D01*
X71369301Y-97298179D01*
X71369304Y-97298181D01*
X71464600Y-97342618D01*
X71517039Y-97388790D01*
X71536191Y-97455984D01*
X71515975Y-97522865D01*
X71464600Y-97567382D01*
X71369306Y-97611818D01*
X71369304Y-97611819D01*
X71185764Y-97740334D01*
X71027334Y-97898764D01*
X70898819Y-98082304D01*
X70898818Y-98082306D01*
X70804129Y-98285368D01*
X70804126Y-98285374D01*
X70746137Y-98501791D01*
X70746136Y-98501799D01*
X70726609Y-98724998D01*
X70726609Y-98725001D01*
X70746136Y-98948200D01*
X70746137Y-98948208D01*
X70804126Y-99164625D01*
X70804127Y-99164627D01*
X70804128Y-99164630D01*
X70898819Y-99367696D01*
X70898821Y-99367700D01*
X71027329Y-99551228D01*
X71027334Y-99551234D01*
X71185765Y-99709665D01*
X71185771Y-99709670D01*
X71369299Y-99838178D01*
X71369301Y-99838179D01*
X71369304Y-99838181D01*
X71464600Y-99882618D01*
X71517039Y-99928790D01*
X71536191Y-99995984D01*
X71515975Y-100062865D01*
X71464600Y-100107382D01*
X71369306Y-100151818D01*
X71369304Y-100151819D01*
X71185764Y-100280334D01*
X71027334Y-100438764D01*
X70898819Y-100622304D01*
X70898818Y-100622306D01*
X70804129Y-100825368D01*
X70804126Y-100825374D01*
X70746137Y-101041791D01*
X70746136Y-101041799D01*
X70726609Y-101264998D01*
X70726609Y-101265001D01*
X70746136Y-101488200D01*
X70746137Y-101488208D01*
X70804126Y-101704625D01*
X70804127Y-101704627D01*
X70804128Y-101704630D01*
X70898819Y-101907696D01*
X70898821Y-101907700D01*
X71027329Y-102091228D01*
X71027334Y-102091234D01*
X71185765Y-102249665D01*
X71185771Y-102249670D01*
X71369299Y-102378178D01*
X71369301Y-102378179D01*
X71369304Y-102378181D01*
X71464600Y-102422618D01*
X71517039Y-102468790D01*
X71536191Y-102535984D01*
X71515975Y-102602865D01*
X71464600Y-102647382D01*
X71369306Y-102691818D01*
X71369304Y-102691819D01*
X71185764Y-102820334D01*
X71027334Y-102978764D01*
X70898819Y-103162304D01*
X70898818Y-103162306D01*
X70804129Y-103365368D01*
X70804126Y-103365374D01*
X70746137Y-103581791D01*
X70746136Y-103581799D01*
X70726609Y-103804998D01*
X70726609Y-103805001D01*
X70746136Y-104028200D01*
X70746137Y-104028208D01*
X70804126Y-104244625D01*
X70804127Y-104244627D01*
X70804128Y-104244630D01*
X70898819Y-104447696D01*
X70898821Y-104447700D01*
X71027329Y-104631228D01*
X71027334Y-104631234D01*
X71185765Y-104789665D01*
X71185771Y-104789670D01*
X71369299Y-104918178D01*
X71369301Y-104918179D01*
X71369304Y-104918181D01*
X71464600Y-104962618D01*
X71517039Y-105008790D01*
X71536191Y-105075984D01*
X71515975Y-105142865D01*
X71464600Y-105187382D01*
X71369306Y-105231818D01*
X71369304Y-105231819D01*
X71185764Y-105360334D01*
X71027334Y-105518764D01*
X70898819Y-105702304D01*
X70898818Y-105702306D01*
X70804129Y-105905368D01*
X70804126Y-105905374D01*
X70746137Y-106121791D01*
X70746136Y-106121799D01*
X70726609Y-106344998D01*
X70726609Y-106345001D01*
X70746136Y-106568200D01*
X70746137Y-106568208D01*
X70804126Y-106784625D01*
X70804127Y-106784627D01*
X70804128Y-106784630D01*
X70898819Y-106987696D01*
X70898821Y-106987700D01*
X71027329Y-107171228D01*
X71027334Y-107171234D01*
X71185765Y-107329665D01*
X71185771Y-107329670D01*
X71369299Y-107458178D01*
X71369301Y-107458179D01*
X71369304Y-107458181D01*
X71464600Y-107502618D01*
X71517039Y-107548790D01*
X71536191Y-107615984D01*
X71515975Y-107682865D01*
X71464600Y-107727382D01*
X71369306Y-107771818D01*
X71369304Y-107771819D01*
X71185764Y-107900334D01*
X71027334Y-108058764D01*
X70898819Y-108242304D01*
X70898818Y-108242306D01*
X70804129Y-108445368D01*
X70804126Y-108445374D01*
X70746137Y-108661791D01*
X70746136Y-108661799D01*
X70726609Y-108884998D01*
X70726609Y-108885001D01*
X70746136Y-109108200D01*
X70746137Y-109108208D01*
X70804126Y-109324625D01*
X70804127Y-109324627D01*
X70804128Y-109324630D01*
X70898819Y-109527696D01*
X70898821Y-109527700D01*
X71027329Y-109711228D01*
X71027334Y-109711234D01*
X71185765Y-109869665D01*
X71185771Y-109869670D01*
X71369299Y-109998178D01*
X71369301Y-109998179D01*
X71369304Y-109998181D01*
X71464600Y-110042618D01*
X71517039Y-110088790D01*
X71536191Y-110155984D01*
X71515975Y-110222865D01*
X71464600Y-110267382D01*
X71369306Y-110311818D01*
X71369304Y-110311819D01*
X71185764Y-110440334D01*
X71027334Y-110598764D01*
X70898819Y-110782304D01*
X70898818Y-110782306D01*
X70804129Y-110985368D01*
X70804126Y-110985374D01*
X70746137Y-111201791D01*
X70746136Y-111201799D01*
X70726609Y-111424998D01*
X70726609Y-111425001D01*
X70746136Y-111648200D01*
X70746137Y-111648208D01*
X70804126Y-111864625D01*
X70804127Y-111864627D01*
X70804128Y-111864630D01*
X70898819Y-112067696D01*
X70898821Y-112067700D01*
X71027329Y-112251228D01*
X71027334Y-112251234D01*
X71185765Y-112409665D01*
X71185771Y-112409670D01*
X71369299Y-112538178D01*
X71369301Y-112538179D01*
X71369304Y-112538181D01*
X71464600Y-112582618D01*
X71517039Y-112628790D01*
X71536191Y-112695984D01*
X71515975Y-112762865D01*
X71464600Y-112807382D01*
X71369306Y-112851818D01*
X71369304Y-112851819D01*
X71185764Y-112980334D01*
X71027334Y-113138764D01*
X70898819Y-113322304D01*
X70898818Y-113322306D01*
X70804129Y-113525368D01*
X70804126Y-113525374D01*
X70746137Y-113741791D01*
X70746136Y-113741799D01*
X70726609Y-113964998D01*
X70726609Y-113965001D01*
X70746136Y-114188200D01*
X70746137Y-114188208D01*
X70804126Y-114404625D01*
X70804127Y-114404627D01*
X70804128Y-114404630D01*
X70898819Y-114607696D01*
X70898821Y-114607700D01*
X71027329Y-114791228D01*
X71027334Y-114791234D01*
X71185765Y-114949665D01*
X71185771Y-114949670D01*
X71369299Y-115078178D01*
X71369301Y-115078179D01*
X71369304Y-115078181D01*
X71464600Y-115122618D01*
X71517039Y-115168790D01*
X71536191Y-115235984D01*
X71515975Y-115302865D01*
X71464600Y-115347382D01*
X71369306Y-115391818D01*
X71369304Y-115391819D01*
X71185764Y-115520334D01*
X71027334Y-115678764D01*
X70898819Y-115862304D01*
X70898818Y-115862306D01*
X70804129Y-116065368D01*
X70804126Y-116065374D01*
X70746137Y-116281791D01*
X70746136Y-116281799D01*
X70726609Y-116504998D01*
X70726609Y-116505001D01*
X70746136Y-116728200D01*
X70746137Y-116728208D01*
X70804126Y-116944625D01*
X70804127Y-116944627D01*
X70804128Y-116944630D01*
X70898819Y-117147696D01*
X70898821Y-117147700D01*
X71027329Y-117331228D01*
X71027334Y-117331234D01*
X71185765Y-117489665D01*
X71185771Y-117489670D01*
X71369299Y-117618178D01*
X71369301Y-117618179D01*
X71369304Y-117618181D01*
X71464600Y-117662618D01*
X71517039Y-117708790D01*
X71536191Y-117775984D01*
X71515975Y-117842865D01*
X71464600Y-117887382D01*
X71369306Y-117931818D01*
X71369304Y-117931819D01*
X71185764Y-118060334D01*
X71027334Y-118218764D01*
X70898819Y-118402304D01*
X70898818Y-118402306D01*
X70804129Y-118605368D01*
X70804126Y-118605374D01*
X70746137Y-118821791D01*
X70746136Y-118821799D01*
X70726609Y-119044998D01*
X70726609Y-119045001D01*
X70746136Y-119268200D01*
X70746137Y-119268208D01*
X70804126Y-119484625D01*
X70804127Y-119484627D01*
X70804128Y-119484630D01*
X70898819Y-119687696D01*
X70898821Y-119687700D01*
X71027329Y-119871228D01*
X71027334Y-119871234D01*
X71185765Y-120029665D01*
X71185771Y-120029670D01*
X71369299Y-120158178D01*
X71369301Y-120158179D01*
X71369304Y-120158181D01*
X71464600Y-120202618D01*
X71517039Y-120248790D01*
X71536191Y-120315984D01*
X71515975Y-120382865D01*
X71464600Y-120427382D01*
X71369306Y-120471818D01*
X71369304Y-120471819D01*
X71185764Y-120600334D01*
X71027334Y-120758764D01*
X70898819Y-120942304D01*
X70898818Y-120942306D01*
X70804129Y-121145368D01*
X70804126Y-121145374D01*
X70746137Y-121361791D01*
X70746136Y-121361799D01*
X70726609Y-121584998D01*
X70726609Y-121585001D01*
X70746136Y-121808200D01*
X70746137Y-121808208D01*
X70804126Y-122024625D01*
X70804127Y-122024627D01*
X70804128Y-122024630D01*
X70816390Y-122050925D01*
X70898819Y-122227696D01*
X70898821Y-122227700D01*
X71027329Y-122411228D01*
X71027334Y-122411234D01*
X71185765Y-122569665D01*
X71185771Y-122569670D01*
X71369299Y-122698178D01*
X71369301Y-122698179D01*
X71369304Y-122698181D01*
X71464006Y-122742341D01*
X71464600Y-122742618D01*
X71517039Y-122788790D01*
X71536191Y-122855984D01*
X71515975Y-122922865D01*
X71464600Y-122967382D01*
X71369306Y-123011818D01*
X71369304Y-123011819D01*
X71185764Y-123140334D01*
X71027334Y-123298764D01*
X70898819Y-123482304D01*
X70898818Y-123482306D01*
X70804129Y-123685368D01*
X70804126Y-123685374D01*
X70746137Y-123901791D01*
X70746136Y-123901799D01*
X70726609Y-124124998D01*
X70726609Y-124125001D01*
X70746136Y-124348200D01*
X70746137Y-124348208D01*
X70804126Y-124564625D01*
X70804127Y-124564627D01*
X70804128Y-124564630D01*
X70898819Y-124767696D01*
X70898821Y-124767700D01*
X71027329Y-124951228D01*
X71027334Y-124951234D01*
X71185765Y-125109665D01*
X71185771Y-125109670D01*
X71369299Y-125238178D01*
X71369301Y-125238179D01*
X71369304Y-125238181D01*
X71464600Y-125282618D01*
X71517039Y-125328790D01*
X71536191Y-125395984D01*
X71515975Y-125462865D01*
X71464600Y-125507382D01*
X71369306Y-125551818D01*
X71369304Y-125551819D01*
X71185764Y-125680334D01*
X71027334Y-125838764D01*
X70898819Y-126022304D01*
X70898818Y-126022306D01*
X70804129Y-126225368D01*
X70804126Y-126225374D01*
X70746137Y-126441791D01*
X70746136Y-126441799D01*
X70726609Y-126664998D01*
X70726609Y-126665001D01*
X70746136Y-126888200D01*
X70746137Y-126888208D01*
X70804126Y-127104625D01*
X70804127Y-127104627D01*
X70804128Y-127104630D01*
X70898819Y-127307696D01*
X70898821Y-127307700D01*
X71027329Y-127491228D01*
X71027334Y-127491234D01*
X71185765Y-127649665D01*
X71185771Y-127649670D01*
X71369299Y-127778178D01*
X71369301Y-127778179D01*
X71369304Y-127778181D01*
X71464600Y-127822618D01*
X71517039Y-127868790D01*
X71536191Y-127935984D01*
X71515975Y-128002865D01*
X71464600Y-128047382D01*
X71369306Y-128091818D01*
X71369304Y-128091819D01*
X71185764Y-128220334D01*
X71027334Y-128378764D01*
X70898819Y-128562304D01*
X70898818Y-128562306D01*
X70804129Y-128765368D01*
X70804126Y-128765374D01*
X70746137Y-128981791D01*
X70746136Y-128981799D01*
X70726609Y-129204998D01*
X70726609Y-129205001D01*
X70746136Y-129428200D01*
X70746137Y-129428208D01*
X70804126Y-129644625D01*
X70804127Y-129644627D01*
X70804128Y-129644630D01*
X70898819Y-129847696D01*
X70898821Y-129847700D01*
X71027329Y-130031228D01*
X71027334Y-130031234D01*
X71185765Y-130189665D01*
X71185771Y-130189670D01*
X71369299Y-130318178D01*
X71369301Y-130318179D01*
X71369304Y-130318181D01*
X71464600Y-130362618D01*
X71517039Y-130408790D01*
X71536191Y-130475984D01*
X71515975Y-130542865D01*
X71464600Y-130587382D01*
X71369306Y-130631818D01*
X71369304Y-130631819D01*
X71185764Y-130760334D01*
X71027334Y-130918764D01*
X70898819Y-131102304D01*
X70898818Y-131102306D01*
X70804129Y-131305368D01*
X70804126Y-131305374D01*
X70746137Y-131521791D01*
X70746136Y-131521799D01*
X70726609Y-131744998D01*
X70726609Y-131745001D01*
X70746136Y-131968200D01*
X70746137Y-131968208D01*
X70804126Y-132184625D01*
X70804127Y-132184627D01*
X70804128Y-132184630D01*
X70881087Y-132349669D01*
X70898819Y-132387696D01*
X70898821Y-132387700D01*
X71027329Y-132571228D01*
X71027334Y-132571234D01*
X71185765Y-132729665D01*
X71185771Y-132729670D01*
X71369299Y-132858178D01*
X71369301Y-132858179D01*
X71369304Y-132858181D01*
X71464600Y-132902618D01*
X71517039Y-132948790D01*
X71536191Y-133015984D01*
X71515975Y-133082865D01*
X71464600Y-133127382D01*
X71369306Y-133171818D01*
X71369304Y-133171819D01*
X71185764Y-133300334D01*
X71027334Y-133458764D01*
X70898819Y-133642304D01*
X70898818Y-133642306D01*
X70804129Y-133845368D01*
X70804126Y-133845374D01*
X70746137Y-134061791D01*
X70746136Y-134061799D01*
X70726609Y-134284998D01*
X70726609Y-134285001D01*
X50627391Y-134285001D01*
X50627391Y-134285000D01*
X50607863Y-134061794D01*
X50549872Y-133845370D01*
X50455181Y-133642305D01*
X50326667Y-133458767D01*
X50168233Y-133300333D01*
X50168229Y-133300330D01*
X50168228Y-133300329D01*
X49984700Y-133171821D01*
X49984692Y-133171817D01*
X49889400Y-133127382D01*
X49836960Y-133081210D01*
X49817808Y-133014017D01*
X49838023Y-132947135D01*
X49889400Y-132902618D01*
X49984696Y-132858181D01*
X50168233Y-132729667D01*
X50326667Y-132571233D01*
X50455181Y-132387696D01*
X50549872Y-132184630D01*
X50607863Y-131968206D01*
X50627391Y-131745000D01*
X50607863Y-131521794D01*
X50549872Y-131305370D01*
X50455181Y-131102305D01*
X50326667Y-130918767D01*
X50168233Y-130760333D01*
X50168229Y-130760330D01*
X50168228Y-130760329D01*
X49984700Y-130631821D01*
X49984692Y-130631817D01*
X49889400Y-130587382D01*
X49836960Y-130541210D01*
X49817808Y-130474017D01*
X49838023Y-130407135D01*
X49889400Y-130362618D01*
X49984696Y-130318181D01*
X50168233Y-130189667D01*
X50326667Y-130031233D01*
X50455181Y-129847696D01*
X50549872Y-129644630D01*
X50607863Y-129428206D01*
X50627391Y-129205000D01*
X50607863Y-128981794D01*
X50549872Y-128765370D01*
X50455181Y-128562305D01*
X50326667Y-128378767D01*
X50168233Y-128220333D01*
X50168229Y-128220330D01*
X50168228Y-128220329D01*
X49984700Y-128091821D01*
X49984692Y-128091817D01*
X49889400Y-128047382D01*
X49836960Y-128001210D01*
X49817808Y-127934017D01*
X49838023Y-127867135D01*
X49889400Y-127822618D01*
X49984696Y-127778181D01*
X50168233Y-127649667D01*
X50326667Y-127491233D01*
X50455181Y-127307696D01*
X50549872Y-127104630D01*
X50607863Y-126888206D01*
X50627391Y-126665000D01*
X50607863Y-126441794D01*
X50549872Y-126225370D01*
X50455181Y-126022305D01*
X50326667Y-125838767D01*
X50168233Y-125680333D01*
X50168229Y-125680330D01*
X50168228Y-125680329D01*
X49984700Y-125551821D01*
X49984692Y-125551817D01*
X49889400Y-125507382D01*
X49836960Y-125461210D01*
X49817808Y-125394017D01*
X49838023Y-125327135D01*
X49889400Y-125282618D01*
X49984696Y-125238181D01*
X50168233Y-125109667D01*
X50326667Y-124951233D01*
X50455181Y-124767696D01*
X50549872Y-124564630D01*
X50607863Y-124348206D01*
X50627391Y-124125000D01*
X50607863Y-123901794D01*
X50549872Y-123685370D01*
X50455181Y-123482305D01*
X50326667Y-123298767D01*
X50168233Y-123140333D01*
X50168229Y-123140330D01*
X50168228Y-123140329D01*
X49984700Y-123011821D01*
X49984696Y-123011819D01*
X49888808Y-122967106D01*
X49836369Y-122920934D01*
X49817217Y-122853740D01*
X49837433Y-122786859D01*
X49888809Y-122742341D01*
X49984450Y-122697743D01*
X49984451Y-122697742D01*
X50053112Y-122649665D01*
X49487739Y-122084292D01*
X49542712Y-122069563D01*
X49661287Y-122001104D01*
X49758104Y-121904287D01*
X49826563Y-121785712D01*
X49841292Y-121730739D01*
X50406665Y-122296112D01*
X50454742Y-122227451D01*
X50454746Y-122227445D01*
X50549399Y-122024459D01*
X50549403Y-122024450D01*
X50607367Y-121808124D01*
X50607369Y-121808113D01*
X50626889Y-121585002D01*
X50626889Y-121584997D01*
X50607369Y-121361886D01*
X50607367Y-121361875D01*
X50549403Y-121145549D01*
X50549399Y-121145540D01*
X50454747Y-120942557D01*
X50454746Y-120942555D01*
X50406664Y-120873887D01*
X50406664Y-120873886D01*
X49841292Y-121439259D01*
X49826563Y-121384288D01*
X49758104Y-121265713D01*
X49661287Y-121168896D01*
X49542712Y-121100437D01*
X49487740Y-121085707D01*
X50053112Y-120520334D01*
X50053112Y-120520333D01*
X49984445Y-120472253D01*
X49984443Y-120472252D01*
X49888808Y-120427657D01*
X49836369Y-120381485D01*
X49817217Y-120314291D01*
X49837433Y-120247410D01*
X49888804Y-120202895D01*
X49984696Y-120158181D01*
X50168233Y-120029667D01*
X50326667Y-119871233D01*
X50455181Y-119687696D01*
X50549872Y-119484630D01*
X50607863Y-119268206D01*
X50627391Y-119045000D01*
X50607863Y-118821794D01*
X50549872Y-118605370D01*
X50455181Y-118402305D01*
X50326667Y-118218767D01*
X50168233Y-118060333D01*
X50168229Y-118060330D01*
X50168228Y-118060329D01*
X49984700Y-117931821D01*
X49984692Y-117931817D01*
X49889400Y-117887382D01*
X49836960Y-117841210D01*
X49817808Y-117774017D01*
X49838023Y-117707135D01*
X49889400Y-117662618D01*
X49984696Y-117618181D01*
X50168233Y-117489667D01*
X50326667Y-117331233D01*
X50455181Y-117147696D01*
X50549872Y-116944630D01*
X50607863Y-116728206D01*
X50627391Y-116505000D01*
X50607863Y-116281794D01*
X50549872Y-116065370D01*
X50455181Y-115862305D01*
X50326667Y-115678767D01*
X50168233Y-115520333D01*
X50168229Y-115520330D01*
X50168228Y-115520329D01*
X49984700Y-115391821D01*
X49984692Y-115391817D01*
X49889400Y-115347382D01*
X49836960Y-115301210D01*
X49817808Y-115234017D01*
X49838023Y-115167135D01*
X49889400Y-115122618D01*
X49984696Y-115078181D01*
X50168233Y-114949667D01*
X50326667Y-114791233D01*
X50455181Y-114607696D01*
X50549872Y-114404630D01*
X50607863Y-114188206D01*
X50627391Y-113965000D01*
X50607863Y-113741794D01*
X50549872Y-113525370D01*
X50455181Y-113322305D01*
X50326667Y-113138767D01*
X50168233Y-112980333D01*
X50168229Y-112980330D01*
X50168228Y-112980329D01*
X49984700Y-112851821D01*
X49984692Y-112851817D01*
X49889400Y-112807382D01*
X49836960Y-112761210D01*
X49817808Y-112694017D01*
X49838023Y-112627135D01*
X49889400Y-112582618D01*
X49984696Y-112538181D01*
X50168233Y-112409667D01*
X50326667Y-112251233D01*
X50455181Y-112067696D01*
X50549872Y-111864630D01*
X50607863Y-111648206D01*
X50627391Y-111425000D01*
X50607863Y-111201794D01*
X50549872Y-110985370D01*
X50455181Y-110782305D01*
X50326667Y-110598767D01*
X50168233Y-110440333D01*
X50168229Y-110440330D01*
X50168228Y-110440329D01*
X49984700Y-110311821D01*
X49984692Y-110311817D01*
X49889400Y-110267382D01*
X49836960Y-110221210D01*
X49817808Y-110154017D01*
X49838023Y-110087135D01*
X49889400Y-110042618D01*
X49984696Y-109998181D01*
X50168233Y-109869667D01*
X50326667Y-109711233D01*
X50455181Y-109527696D01*
X50549872Y-109324630D01*
X50607863Y-109108206D01*
X50627391Y-108885000D01*
X50607863Y-108661794D01*
X50549872Y-108445370D01*
X50455181Y-108242305D01*
X50326667Y-108058767D01*
X50168233Y-107900333D01*
X50168229Y-107900330D01*
X50168228Y-107900329D01*
X49984700Y-107771821D01*
X49984692Y-107771817D01*
X49889400Y-107727382D01*
X49836960Y-107681210D01*
X49817808Y-107614017D01*
X49838023Y-107547135D01*
X49889400Y-107502618D01*
X49984696Y-107458181D01*
X50168233Y-107329667D01*
X50326667Y-107171233D01*
X50455181Y-106987696D01*
X50549872Y-106784630D01*
X50607863Y-106568206D01*
X50627391Y-106345000D01*
X50607863Y-106121794D01*
X50549872Y-105905370D01*
X50455181Y-105702305D01*
X50326667Y-105518767D01*
X50168233Y-105360333D01*
X50168229Y-105360330D01*
X50168228Y-105360329D01*
X49984700Y-105231821D01*
X49984692Y-105231817D01*
X49889400Y-105187382D01*
X49836960Y-105141210D01*
X49817808Y-105074017D01*
X49838023Y-105007135D01*
X49889400Y-104962618D01*
X49984696Y-104918181D01*
X50168233Y-104789667D01*
X50326667Y-104631233D01*
X50455181Y-104447696D01*
X50549872Y-104244630D01*
X50607863Y-104028206D01*
X50627391Y-103805000D01*
X50607863Y-103581794D01*
X50549872Y-103365370D01*
X50455181Y-103162305D01*
X50326667Y-102978767D01*
X50168233Y-102820333D01*
X50168229Y-102820330D01*
X50168228Y-102820329D01*
X49984700Y-102691821D01*
X49984692Y-102691817D01*
X49889400Y-102647382D01*
X49836960Y-102601210D01*
X49817808Y-102534017D01*
X49838023Y-102467135D01*
X49889400Y-102422618D01*
X49984696Y-102378181D01*
X50168233Y-102249667D01*
X50326667Y-102091233D01*
X50455181Y-101907696D01*
X50549872Y-101704630D01*
X50607863Y-101488206D01*
X50627391Y-101265000D01*
X50607863Y-101041794D01*
X50549872Y-100825370D01*
X50455181Y-100622305D01*
X50326667Y-100438767D01*
X50168233Y-100280333D01*
X50168229Y-100280330D01*
X50168228Y-100280329D01*
X49984700Y-100151821D01*
X49984692Y-100151817D01*
X49889400Y-100107382D01*
X49836960Y-100061210D01*
X49817808Y-99994017D01*
X49838023Y-99927135D01*
X49889400Y-99882618D01*
X49984696Y-99838181D01*
X50168233Y-99709667D01*
X50326667Y-99551233D01*
X50455181Y-99367696D01*
X50549872Y-99164630D01*
X50607863Y-98948206D01*
X50627391Y-98725000D01*
X50607863Y-98501794D01*
X50549872Y-98285370D01*
X50455181Y-98082305D01*
X50326667Y-97898767D01*
X50168233Y-97740333D01*
X50168229Y-97740330D01*
X50168228Y-97740329D01*
X49984700Y-97611821D01*
X49984692Y-97611817D01*
X49889400Y-97567382D01*
X49836960Y-97521210D01*
X49817808Y-97454017D01*
X49838023Y-97387135D01*
X49889400Y-97342618D01*
X49984696Y-97298181D01*
X50168233Y-97169667D01*
X50326667Y-97011233D01*
X50455181Y-96827696D01*
X50549872Y-96624630D01*
X50607863Y-96408206D01*
X50627391Y-96185000D01*
X50607863Y-95961794D01*
X50549872Y-95745370D01*
X50455181Y-95542305D01*
X50326667Y-95358767D01*
X50168233Y-95200333D01*
X50168229Y-95200330D01*
X50168228Y-95200329D01*
X49984700Y-95071821D01*
X49984692Y-95071817D01*
X49889400Y-95027382D01*
X49836960Y-94981210D01*
X49817808Y-94914017D01*
X49838023Y-94847135D01*
X49889400Y-94802618D01*
X49984696Y-94758181D01*
X50168233Y-94629667D01*
X50326667Y-94471233D01*
X50455181Y-94287696D01*
X50549872Y-94084630D01*
X50607863Y-93868206D01*
X50627391Y-93645000D01*
X50607863Y-93421794D01*
X50549872Y-93205370D01*
X50455181Y-93002305D01*
X50326667Y-92818767D01*
X50168233Y-92660333D01*
X50168229Y-92660330D01*
X50168228Y-92660329D01*
X49984700Y-92531821D01*
X49984692Y-92531817D01*
X49889400Y-92487382D01*
X49836960Y-92441210D01*
X49817808Y-92374017D01*
X49838023Y-92307135D01*
X49889400Y-92262618D01*
X49984696Y-92218181D01*
X50168233Y-92089667D01*
X50326667Y-91931233D01*
X50455181Y-91747696D01*
X50549872Y-91544630D01*
X50607863Y-91328206D01*
X50627391Y-91105000D01*
X50607863Y-90881794D01*
X50549872Y-90665370D01*
X50455181Y-90462305D01*
X50326667Y-90278767D01*
X50168233Y-90120333D01*
X50168229Y-90120330D01*
X50168228Y-90120329D01*
X50097884Y-90071074D01*
X50054259Y-90016497D01*
X50047065Y-89946999D01*
X50078588Y-89884644D01*
X50138817Y-89849230D01*
X50166570Y-89845800D01*
X50166564Y-89845676D01*
X50168347Y-89845580D01*
X50169007Y-89845499D01*
X50169871Y-89845499D01*
X50169872Y-89845499D01*
X50229483Y-89839091D01*
X50364331Y-89788796D01*
X50479546Y-89702546D01*
X50565796Y-89587331D01*
X50616091Y-89452483D01*
X50622500Y-89392873D01*
X50622499Y-87737128D01*
X50616091Y-87677517D01*
X50576469Y-87571286D01*
X50565797Y-87542671D01*
X50565793Y-87542664D01*
X50479547Y-87427455D01*
X50479544Y-87427452D01*
X50364335Y-87341206D01*
X50364328Y-87341202D01*
X50229482Y-87290908D01*
X50229483Y-87290908D01*
X50169883Y-87284501D01*
X50169881Y-87284500D01*
X50169873Y-87284500D01*
X50169864Y-87284500D01*
X48514129Y-87284500D01*
X48514123Y-87284501D01*
X48454516Y-87290908D01*
X48319671Y-87341202D01*
X48319664Y-87341206D01*
X48204455Y-87427452D01*
X48204452Y-87427455D01*
X48118206Y-87542664D01*
X48118202Y-87542671D01*
X48067910Y-87677513D01*
X48067909Y-87677517D01*
X48065087Y-87703758D01*
X48038351Y-87768306D01*
X47980959Y-87808154D01*
X47941799Y-87814500D01*
X45513701Y-87814500D01*
X45446662Y-87794815D01*
X45412126Y-87761623D01*
X45364496Y-87693600D01*
X45348409Y-87677513D01*
X45242179Y-87571283D01*
X45208696Y-87509963D01*
X45213680Y-87440271D01*
X45255551Y-87384337D01*
X45286529Y-87367422D01*
X45418086Y-87318354D01*
X45418093Y-87318350D01*
X45533187Y-87232190D01*
X45533190Y-87232187D01*
X45619350Y-87117093D01*
X45619354Y-87117086D01*
X45669596Y-86982379D01*
X45669598Y-86982372D01*
X45675999Y-86922844D01*
X45676000Y-86922827D01*
X45676000Y-86275000D01*
X44759012Y-86275000D01*
X44791925Y-86217993D01*
X44826000Y-86090826D01*
X44826000Y-85959174D01*
X44791925Y-85832007D01*
X44759012Y-85775000D01*
X45676000Y-85775000D01*
X45676000Y-85127172D01*
X45675999Y-85127155D01*
X45669598Y-85067627D01*
X45669596Y-85067620D01*
X45619354Y-84932913D01*
X45619350Y-84932906D01*
X45533190Y-84817812D01*
X45533187Y-84817809D01*
X45418093Y-84731649D01*
X45418086Y-84731645D01*
X45283379Y-84681403D01*
X45283372Y-84681401D01*
X45223844Y-84675000D01*
X44576000Y-84675000D01*
X44576000Y-85591988D01*
X44518993Y-85559075D01*
X44391826Y-85525000D01*
X44260174Y-85525000D01*
X44133007Y-85559075D01*
X44076000Y-85591988D01*
X44076000Y-84675000D01*
X43428155Y-84675000D01*
X43368627Y-84681401D01*
X43368620Y-84681403D01*
X43233913Y-84731645D01*
X43233906Y-84731649D01*
X43118812Y-84817809D01*
X43118809Y-84817812D01*
X43032649Y-84932906D01*
X43032645Y-84932913D01*
X42982403Y-85067620D01*
X42982401Y-85067627D01*
X42976000Y-85127155D01*
X42976000Y-85854270D01*
X42956315Y-85921309D01*
X42903511Y-85967064D01*
X42834353Y-85977008D01*
X42770797Y-85947983D01*
X42764319Y-85941951D01*
X42138819Y-85316451D01*
X42105334Y-85255128D01*
X42102500Y-85228770D01*
X42102500Y-77987229D01*
X42122185Y-77920190D01*
X42138819Y-77899548D01*
X42891787Y-77146580D01*
X47804952Y-72233415D01*
X47832205Y-72192627D01*
X47887084Y-72110495D01*
X47910518Y-72053920D01*
X47943659Y-71973912D01*
X47972500Y-71828917D01*
X47972500Y-71681082D01*
X47972500Y-68525001D01*
X65646390Y-68525001D01*
X65666804Y-68810433D01*
X65727628Y-69090037D01*
X65827635Y-69358166D01*
X65964770Y-69609309D01*
X65964775Y-69609317D01*
X66136254Y-69838387D01*
X66136270Y-69838405D01*
X66338594Y-70040729D01*
X66338612Y-70040745D01*
X66567682Y-70212224D01*
X66567690Y-70212229D01*
X66818833Y-70349364D01*
X66818832Y-70349364D01*
X66818836Y-70349365D01*
X66818839Y-70349367D01*
X67086954Y-70449369D01*
X67086960Y-70449370D01*
X67086962Y-70449371D01*
X67366566Y-70510195D01*
X67366568Y-70510195D01*
X67366572Y-70510196D01*
X67620220Y-70528337D01*
X67651999Y-70530610D01*
X67652000Y-70530610D01*
X67652001Y-70530610D01*
X67680595Y-70528564D01*
X67937428Y-70510196D01*
X68217046Y-70449369D01*
X68485161Y-70349367D01*
X68736315Y-70212226D01*
X68965395Y-70040739D01*
X69167739Y-69838395D01*
X69339226Y-69609315D01*
X69476367Y-69358161D01*
X69576369Y-69090046D01*
X69637196Y-68810428D01*
X69657610Y-68525001D01*
X100526390Y-68525001D01*
X100546804Y-68810433D01*
X100607628Y-69090037D01*
X100707635Y-69358166D01*
X100844770Y-69609309D01*
X100844775Y-69609317D01*
X101016254Y-69838387D01*
X101016270Y-69838405D01*
X101218594Y-70040729D01*
X101218612Y-70040745D01*
X101447682Y-70212224D01*
X101447690Y-70212229D01*
X101698833Y-70349364D01*
X101698832Y-70349364D01*
X101698836Y-70349365D01*
X101698839Y-70349367D01*
X101966954Y-70449369D01*
X101966960Y-70449370D01*
X101966962Y-70449371D01*
X102246566Y-70510195D01*
X102246568Y-70510195D01*
X102246572Y-70510196D01*
X102500220Y-70528337D01*
X102531999Y-70530610D01*
X102532000Y-70530610D01*
X102532001Y-70530610D01*
X102560595Y-70528564D01*
X102817428Y-70510196D01*
X103097046Y-70449369D01*
X103365161Y-70349367D01*
X103616315Y-70212226D01*
X103845395Y-70040739D01*
X104047739Y-69838395D01*
X104219226Y-69609315D01*
X104356367Y-69358161D01*
X104456369Y-69090046D01*
X104517196Y-68810428D01*
X104537610Y-68525000D01*
X104517196Y-68239572D01*
X104486726Y-68099505D01*
X104456371Y-67959962D01*
X104456370Y-67959960D01*
X104456369Y-67959954D01*
X104356367Y-67691839D01*
X104276025Y-67544705D01*
X104219229Y-67440690D01*
X104219224Y-67440682D01*
X104047745Y-67211612D01*
X104047729Y-67211594D01*
X103845405Y-67009270D01*
X103845387Y-67009254D01*
X103616317Y-66837775D01*
X103616309Y-66837770D01*
X103365166Y-66700635D01*
X103365167Y-66700635D01*
X103257915Y-66660632D01*
X103097046Y-66600631D01*
X103097043Y-66600630D01*
X103097037Y-66600628D01*
X102817433Y-66539804D01*
X102532001Y-66519390D01*
X102531999Y-66519390D01*
X102246566Y-66539804D01*
X101966962Y-66600628D01*
X101698833Y-66700635D01*
X101447690Y-66837770D01*
X101447682Y-66837775D01*
X101218612Y-67009254D01*
X101218594Y-67009270D01*
X101016270Y-67211594D01*
X101016254Y-67211612D01*
X100844775Y-67440682D01*
X100844770Y-67440690D01*
X100707635Y-67691833D01*
X100607628Y-67959962D01*
X100546804Y-68239566D01*
X100526390Y-68524998D01*
X100526390Y-68525001D01*
X69657610Y-68525001D01*
X69657610Y-68525000D01*
X69637196Y-68239572D01*
X69606726Y-68099505D01*
X69576371Y-67959962D01*
X69576370Y-67959960D01*
X69576369Y-67959954D01*
X69476367Y-67691839D01*
X69396025Y-67544705D01*
X69339229Y-67440690D01*
X69339224Y-67440682D01*
X69167745Y-67211612D01*
X69167729Y-67211594D01*
X68965405Y-67009270D01*
X68965387Y-67009254D01*
X68736317Y-66837775D01*
X68736309Y-66837770D01*
X68485166Y-66700635D01*
X68485167Y-66700635D01*
X68377915Y-66660632D01*
X68217046Y-66600631D01*
X68217043Y-66600630D01*
X68217037Y-66600628D01*
X67937433Y-66539804D01*
X67652001Y-66519390D01*
X67651999Y-66519390D01*
X67366566Y-66539804D01*
X67086962Y-66600628D01*
X66818833Y-66700635D01*
X66567690Y-66837770D01*
X66567682Y-66837775D01*
X66338612Y-67009254D01*
X66338594Y-67009270D01*
X66136270Y-67211594D01*
X66136254Y-67211612D01*
X65964775Y-67440682D01*
X65964770Y-67440690D01*
X65827635Y-67691833D01*
X65727628Y-67959962D01*
X65666804Y-68239566D01*
X65646390Y-68524998D01*
X65646390Y-68525001D01*
X47972500Y-68525001D01*
X47972500Y-63621082D01*
X47958095Y-63548663D01*
X47943659Y-63476088D01*
X47910518Y-63396080D01*
X47898271Y-63366512D01*
X47887087Y-63339511D01*
X47887079Y-63339496D01*
X47854187Y-63290271D01*
X47854185Y-63290268D01*
X47804956Y-63216589D01*
X47804952Y-63216584D01*
X45444869Y-60856501D01*
X45411384Y-60795178D01*
X45409022Y-60758012D01*
X45427659Y-60545000D01*
X45427659Y-60544999D01*
X45407063Y-60309596D01*
X45407063Y-60309592D01*
X45345903Y-60081337D01*
X45246035Y-59867171D01*
X45110495Y-59673599D01*
X44988179Y-59551283D01*
X44954696Y-59489963D01*
X44959680Y-59420271D01*
X45001551Y-59364337D01*
X45032529Y-59347422D01*
X45164086Y-59298354D01*
X45164093Y-59298350D01*
X45279187Y-59212190D01*
X45279190Y-59212187D01*
X45365350Y-59097093D01*
X45365354Y-59097086D01*
X45415596Y-58962379D01*
X45415598Y-58962372D01*
X45421999Y-58902844D01*
X45422000Y-58902827D01*
X45422000Y-58255000D01*
X44505012Y-58255000D01*
X44537925Y-58197993D01*
X44572000Y-58070826D01*
X44572000Y-57939174D01*
X44537925Y-57812007D01*
X44505012Y-57755000D01*
X45422000Y-57755000D01*
X45422000Y-57107172D01*
X45421999Y-57107155D01*
X45415598Y-57047627D01*
X45415596Y-57047620D01*
X45365354Y-56912913D01*
X45365350Y-56912906D01*
X45279190Y-56797812D01*
X45279187Y-56797809D01*
X45164093Y-56711649D01*
X45164086Y-56711645D01*
X45029379Y-56661403D01*
X45029372Y-56661401D01*
X44969844Y-56655000D01*
X44322000Y-56655000D01*
X44322000Y-57571988D01*
X44264993Y-57539075D01*
X44137826Y-57505000D01*
X44006174Y-57505000D01*
X43879007Y-57539075D01*
X43822000Y-57571988D01*
X43822000Y-56655000D01*
X43174155Y-56655000D01*
X43114627Y-56661401D01*
X43114620Y-56661403D01*
X42979913Y-56711645D01*
X42979906Y-56711649D01*
X42864812Y-56797809D01*
X42864809Y-56797812D01*
X42778649Y-56912906D01*
X42778645Y-56912913D01*
X42728403Y-57047620D01*
X42728401Y-57047627D01*
X42722000Y-57107155D01*
X42722000Y-57755000D01*
X43638988Y-57755000D01*
X43606075Y-57812007D01*
X43572000Y-57939174D01*
X43572000Y-58070826D01*
X43606075Y-58197993D01*
X43638988Y-58255000D01*
X42722000Y-58255000D01*
X42722000Y-58902844D01*
X42728401Y-58962372D01*
X42728403Y-58962379D01*
X42778645Y-59097086D01*
X42778649Y-59097093D01*
X42864809Y-59212187D01*
X42864812Y-59212190D01*
X42979906Y-59298350D01*
X42979913Y-59298354D01*
X43111470Y-59347421D01*
X43167403Y-59389292D01*
X43191821Y-59454756D01*
X43176970Y-59523029D01*
X43155819Y-59551284D01*
X43033503Y-59673600D01*
X42897965Y-59867169D01*
X42897964Y-59867171D01*
X42798098Y-60081335D01*
X42798094Y-60081344D01*
X42736938Y-60309586D01*
X42736936Y-60309596D01*
X42716341Y-60544999D01*
X42716341Y-60545000D01*
X42736936Y-60780403D01*
X42736938Y-60780413D01*
X42798094Y-61008655D01*
X42798096Y-61008659D01*
X42798097Y-61008663D01*
X42897965Y-61222830D01*
X42897967Y-61222834D01*
X43033501Y-61416395D01*
X43033506Y-61416402D01*
X43200597Y-61583493D01*
X43200603Y-61583498D01*
X43386158Y-61713425D01*
X43429783Y-61768002D01*
X43436977Y-61837500D01*
X43405454Y-61899855D01*
X43386158Y-61916575D01*
X43200597Y-62046505D01*
X43033505Y-62213597D01*
X42897965Y-62407169D01*
X42897964Y-62407171D01*
X42798098Y-62621335D01*
X42798094Y-62621344D01*
X42736938Y-62849586D01*
X42736936Y-62849596D01*
X42716341Y-63084999D01*
X42716341Y-63085001D01*
X42734977Y-63298012D01*
X42721210Y-63366512D01*
X42699130Y-63396500D01*
X38119050Y-67976580D01*
X38119044Y-67976588D01*
X38069812Y-68050268D01*
X38069813Y-68050269D01*
X38036921Y-68099496D01*
X38036914Y-68099508D01*
X37980342Y-68236086D01*
X37980340Y-68236092D01*
X37951500Y-68381079D01*
X37951500Y-68381082D01*
X37951500Y-85554918D01*
X37951500Y-85554920D01*
X37951499Y-85554920D01*
X37980340Y-85699907D01*
X37980343Y-85699917D01*
X38036914Y-85836492D01*
X38069812Y-85885727D01*
X38069813Y-85885730D01*
X38119046Y-85959414D01*
X38119050Y-85959419D01*
X42953130Y-90793498D01*
X42986615Y-90854821D01*
X42988977Y-90891986D01*
X42970341Y-91104997D01*
X42970341Y-91105000D01*
X42990936Y-91340403D01*
X42990938Y-91340413D01*
X43052094Y-91568655D01*
X43052096Y-91568659D01*
X43052097Y-91568663D01*
X43135582Y-91747696D01*
X43151965Y-91782830D01*
X43151967Y-91782834D01*
X43255874Y-91931228D01*
X43287505Y-91976401D01*
X43454599Y-92143495D01*
X43551384Y-92211265D01*
X43648165Y-92279032D01*
X43648167Y-92279033D01*
X43648170Y-92279035D01*
X43862337Y-92378903D01*
X44090592Y-92440063D01*
X44278918Y-92456539D01*
X44325999Y-92460659D01*
X44326000Y-92460659D01*
X44326001Y-92460659D01*
X44361284Y-92457571D01*
X44539013Y-92442022D01*
X44607512Y-92455788D01*
X44637501Y-92477869D01*
X46283048Y-94123415D01*
X46283049Y-94123416D01*
X46387584Y-94227951D01*
X46387585Y-94227952D01*
X46510498Y-94310080D01*
X46510511Y-94310087D01*
X46647082Y-94366656D01*
X46647087Y-94366658D01*
X46647091Y-94366658D01*
X46647092Y-94366659D01*
X46792079Y-94395500D01*
X46792082Y-94395500D01*
X48239754Y-94395500D01*
X48306793Y-94415185D01*
X48341326Y-94448373D01*
X48357333Y-94471233D01*
X48357334Y-94471234D01*
X48357335Y-94471235D01*
X48515765Y-94629665D01*
X48515771Y-94629670D01*
X48699299Y-94758178D01*
X48699301Y-94758179D01*
X48699304Y-94758181D01*
X48794600Y-94802618D01*
X48847039Y-94848790D01*
X48866191Y-94915984D01*
X48845975Y-94982865D01*
X48794600Y-95027382D01*
X48699306Y-95071818D01*
X48699304Y-95071819D01*
X48515764Y-95200334D01*
X48357334Y-95358764D01*
X48228819Y-95542304D01*
X48228818Y-95542306D01*
X48134129Y-95745368D01*
X48134126Y-95745374D01*
X48076137Y-95961791D01*
X48076136Y-95961799D01*
X48056609Y-96184998D01*
X48056609Y-96185001D01*
X48076136Y-96408200D01*
X48076137Y-96408208D01*
X48134126Y-96624625D01*
X48134127Y-96624627D01*
X48134128Y-96624630D01*
X48228819Y-96827696D01*
X48228821Y-96827700D01*
X48357329Y-97011228D01*
X48357334Y-97011234D01*
X48515765Y-97169665D01*
X48515771Y-97169670D01*
X48699299Y-97298178D01*
X48699301Y-97298179D01*
X48699304Y-97298181D01*
X48794600Y-97342618D01*
X48847039Y-97388790D01*
X48866191Y-97455984D01*
X48845975Y-97522865D01*
X48794600Y-97567382D01*
X48699306Y-97611818D01*
X48699304Y-97611819D01*
X48515764Y-97740334D01*
X48357334Y-97898764D01*
X48228819Y-98082304D01*
X48228818Y-98082306D01*
X48134129Y-98285368D01*
X48134126Y-98285374D01*
X48076137Y-98501791D01*
X48076136Y-98501799D01*
X48056609Y-98724998D01*
X48056609Y-98725001D01*
X48076136Y-98948200D01*
X48076137Y-98948208D01*
X48134126Y-99164625D01*
X48134127Y-99164627D01*
X48134128Y-99164630D01*
X48228819Y-99367696D01*
X48228821Y-99367700D01*
X48357329Y-99551228D01*
X48357334Y-99551234D01*
X48515765Y-99709665D01*
X48515771Y-99709670D01*
X48699299Y-99838178D01*
X48699301Y-99838179D01*
X48699304Y-99838181D01*
X48794600Y-99882618D01*
X48847039Y-99928790D01*
X48866191Y-99995984D01*
X48845975Y-100062865D01*
X48794600Y-100107382D01*
X48699306Y-100151818D01*
X48699304Y-100151819D01*
X48515764Y-100280334D01*
X48357334Y-100438764D01*
X48228819Y-100622304D01*
X48228818Y-100622306D01*
X48134129Y-100825368D01*
X48134126Y-100825374D01*
X48076137Y-101041791D01*
X48076136Y-101041799D01*
X48056609Y-101264998D01*
X48056609Y-101265001D01*
X48076136Y-101488200D01*
X48076137Y-101488208D01*
X48134126Y-101704625D01*
X48134127Y-101704627D01*
X48134128Y-101704630D01*
X48228819Y-101907696D01*
X48228821Y-101907700D01*
X48357329Y-102091228D01*
X48357334Y-102091234D01*
X48515765Y-102249665D01*
X48515771Y-102249670D01*
X48699299Y-102378178D01*
X48699301Y-102378179D01*
X48699304Y-102378181D01*
X48794600Y-102422618D01*
X48847039Y-102468790D01*
X48866191Y-102535984D01*
X48845975Y-102602865D01*
X48794600Y-102647382D01*
X48699306Y-102691818D01*
X48699304Y-102691819D01*
X48515764Y-102820334D01*
X48357334Y-102978764D01*
X48228819Y-103162304D01*
X48228818Y-103162306D01*
X48134129Y-103365368D01*
X48134126Y-103365374D01*
X48076137Y-103581791D01*
X48076136Y-103581799D01*
X48056609Y-103804998D01*
X48056609Y-103805001D01*
X48076136Y-104028200D01*
X48076137Y-104028208D01*
X48134126Y-104244625D01*
X48134127Y-104244627D01*
X48134128Y-104244630D01*
X48228819Y-104447696D01*
X48228821Y-104447700D01*
X48357329Y-104631228D01*
X48357334Y-104631234D01*
X48515765Y-104789665D01*
X48515771Y-104789670D01*
X48699299Y-104918178D01*
X48699301Y-104918179D01*
X48699304Y-104918181D01*
X48794600Y-104962618D01*
X48847039Y-105008790D01*
X48866191Y-105075984D01*
X48845975Y-105142865D01*
X48794600Y-105187382D01*
X48699306Y-105231818D01*
X48699304Y-105231819D01*
X48515764Y-105360334D01*
X48357334Y-105518764D01*
X48228819Y-105702304D01*
X48228818Y-105702306D01*
X48134129Y-105905368D01*
X48134126Y-105905374D01*
X48076137Y-106121791D01*
X48076136Y-106121799D01*
X48056609Y-106344998D01*
X48056609Y-106345001D01*
X48076136Y-106568200D01*
X48076137Y-106568208D01*
X48134126Y-106784625D01*
X48134127Y-106784627D01*
X48134128Y-106784630D01*
X48228819Y-106987696D01*
X48228821Y-106987700D01*
X48357329Y-107171228D01*
X48357334Y-107171234D01*
X48515765Y-107329665D01*
X48515771Y-107329670D01*
X48699299Y-107458178D01*
X48699301Y-107458179D01*
X48699304Y-107458181D01*
X48794600Y-107502618D01*
X48847039Y-107548790D01*
X48866191Y-107615984D01*
X48845975Y-107682865D01*
X48794600Y-107727382D01*
X48699306Y-107771818D01*
X48699304Y-107771819D01*
X48515764Y-107900334D01*
X48357334Y-108058764D01*
X48228819Y-108242304D01*
X48228818Y-108242306D01*
X48134129Y-108445368D01*
X48134126Y-108445374D01*
X48076137Y-108661791D01*
X48076136Y-108661799D01*
X48056609Y-108884998D01*
X48056609Y-108885001D01*
X48076136Y-109108200D01*
X48076137Y-109108208D01*
X48134126Y-109324625D01*
X48134127Y-109324627D01*
X48134128Y-109324630D01*
X48228819Y-109527696D01*
X48228821Y-109527700D01*
X48357329Y-109711228D01*
X48357334Y-109711234D01*
X48515765Y-109869665D01*
X48515771Y-109869670D01*
X48699299Y-109998178D01*
X48699301Y-109998179D01*
X48699304Y-109998181D01*
X48794600Y-110042618D01*
X48847039Y-110088790D01*
X48866191Y-110155984D01*
X48845975Y-110222865D01*
X48794600Y-110267382D01*
X48699306Y-110311818D01*
X48699304Y-110311819D01*
X48515764Y-110440334D01*
X48357334Y-110598764D01*
X48228819Y-110782304D01*
X48228818Y-110782306D01*
X48134129Y-110985368D01*
X48134126Y-110985374D01*
X48076137Y-111201791D01*
X48076136Y-111201799D01*
X48056609Y-111424998D01*
X48056609Y-111425001D01*
X48076136Y-111648200D01*
X48076137Y-111648208D01*
X48134126Y-111864625D01*
X48134127Y-111864627D01*
X48134128Y-111864630D01*
X48228819Y-112067696D01*
X48228821Y-112067700D01*
X48357329Y-112251228D01*
X48357334Y-112251234D01*
X48515765Y-112409665D01*
X48515771Y-112409670D01*
X48699299Y-112538178D01*
X48699301Y-112538179D01*
X48699304Y-112538181D01*
X48794600Y-112582618D01*
X48847039Y-112628790D01*
X48866191Y-112695984D01*
X48845975Y-112762865D01*
X48794600Y-112807382D01*
X48699306Y-112851818D01*
X48699304Y-112851819D01*
X48515764Y-112980334D01*
X48357334Y-113138764D01*
X48228819Y-113322304D01*
X48228818Y-113322306D01*
X48134129Y-113525368D01*
X48134126Y-113525374D01*
X48076137Y-113741791D01*
X48076136Y-113741799D01*
X48056609Y-113964998D01*
X48056609Y-113965001D01*
X48076136Y-114188200D01*
X48076137Y-114188208D01*
X48134126Y-114404625D01*
X48134127Y-114404627D01*
X48134128Y-114404630D01*
X48228819Y-114607696D01*
X48228821Y-114607700D01*
X48357329Y-114791228D01*
X48357334Y-114791234D01*
X48515765Y-114949665D01*
X48515771Y-114949670D01*
X48699299Y-115078178D01*
X48699301Y-115078179D01*
X48699304Y-115078181D01*
X48794600Y-115122618D01*
X48847039Y-115168790D01*
X48866191Y-115235984D01*
X48845975Y-115302865D01*
X48794600Y-115347382D01*
X48699306Y-115391818D01*
X48699304Y-115391819D01*
X48515764Y-115520334D01*
X48357334Y-115678764D01*
X48228819Y-115862304D01*
X48228818Y-115862306D01*
X48134129Y-116065368D01*
X48134126Y-116065374D01*
X48076137Y-116281791D01*
X48076136Y-116281799D01*
X48056609Y-116504998D01*
X48056609Y-116505001D01*
X48076136Y-116728200D01*
X48076137Y-116728208D01*
X48134126Y-116944625D01*
X48134127Y-116944627D01*
X48134128Y-116944630D01*
X48228819Y-117147696D01*
X48228821Y-117147700D01*
X48357329Y-117331228D01*
X48357334Y-117331234D01*
X48515765Y-117489665D01*
X48515771Y-117489670D01*
X48699299Y-117618178D01*
X48699301Y-117618179D01*
X48699304Y-117618181D01*
X48794600Y-117662618D01*
X48847039Y-117708790D01*
X48866191Y-117775984D01*
X48845975Y-117842865D01*
X48794600Y-117887382D01*
X48699306Y-117931818D01*
X48699304Y-117931819D01*
X48515764Y-118060334D01*
X48357334Y-118218764D01*
X48228819Y-118402304D01*
X48228818Y-118402306D01*
X48134129Y-118605368D01*
X48134126Y-118605374D01*
X48076137Y-118821791D01*
X48076136Y-118821799D01*
X48056609Y-119044998D01*
X48056609Y-119045001D01*
X48076136Y-119268200D01*
X48076137Y-119268208D01*
X48134126Y-119484625D01*
X48134127Y-119484627D01*
X48134128Y-119484630D01*
X48228819Y-119687696D01*
X48228821Y-119687700D01*
X48357329Y-119871228D01*
X48357334Y-119871234D01*
X48515765Y-120029665D01*
X48515771Y-120029670D01*
X48699299Y-120158178D01*
X48699301Y-120158179D01*
X48699304Y-120158181D01*
X48795190Y-120202893D01*
X48847630Y-120249065D01*
X48866782Y-120316258D01*
X48846567Y-120383139D01*
X48795192Y-120427657D01*
X48699554Y-120472254D01*
X48630887Y-120520334D01*
X49196260Y-121085707D01*
X49141288Y-121100437D01*
X49022713Y-121168896D01*
X48925896Y-121265713D01*
X48857437Y-121384288D01*
X48842707Y-121439260D01*
X48277334Y-120873887D01*
X48229253Y-120942556D01*
X48134600Y-121145540D01*
X48134596Y-121145549D01*
X48076632Y-121361875D01*
X48076630Y-121361886D01*
X48057111Y-121584997D01*
X48057111Y-121585002D01*
X48076630Y-121808113D01*
X48076632Y-121808124D01*
X48134596Y-122024450D01*
X48134600Y-122024459D01*
X48229252Y-122227443D01*
X48229253Y-122227445D01*
X48277334Y-122296112D01*
X48842707Y-121730739D01*
X48857437Y-121785712D01*
X48925896Y-121904287D01*
X49022713Y-122001104D01*
X49141288Y-122069563D01*
X49196259Y-122084292D01*
X48630886Y-122649664D01*
X48699556Y-122697747D01*
X48699558Y-122697748D01*
X48795190Y-122742342D01*
X48847630Y-122788514D01*
X48866782Y-122855707D01*
X48846567Y-122922588D01*
X48795192Y-122967106D01*
X48699303Y-123011820D01*
X48515768Y-123140331D01*
X48357333Y-123298767D01*
X48341328Y-123321625D01*
X48286750Y-123365249D01*
X48239754Y-123374500D01*
X46308858Y-123374500D01*
X46241819Y-123354815D01*
X46201471Y-123312500D01*
X46167464Y-123253599D01*
X46115959Y-123164388D01*
X45957050Y-122965123D01*
X45770217Y-122791768D01*
X45559634Y-122648195D01*
X45559630Y-122648193D01*
X45559627Y-122648191D01*
X45559626Y-122648190D01*
X45330006Y-122537612D01*
X45330008Y-122537612D01*
X45086466Y-122462489D01*
X45086462Y-122462488D01*
X45086458Y-122462487D01*
X44965231Y-122444214D01*
X44834440Y-122424500D01*
X44834435Y-122424500D01*
X44579565Y-122424500D01*
X44579559Y-122424500D01*
X44422609Y-122448157D01*
X44327542Y-122462487D01*
X44327539Y-122462488D01*
X44327533Y-122462489D01*
X44083992Y-122537612D01*
X43854373Y-122648190D01*
X43854372Y-122648191D01*
X43643782Y-122791768D01*
X43456952Y-122965121D01*
X43456950Y-122965123D01*
X43298041Y-123164388D01*
X43212529Y-123312500D01*
X43161962Y-123360716D01*
X43105142Y-123374500D01*
X40306701Y-123374500D01*
X40239662Y-123354815D01*
X40205126Y-123321623D01*
X40157496Y-123253600D01*
X40157495Y-123253599D01*
X40035179Y-123131283D01*
X40001696Y-123069963D01*
X40006680Y-123000271D01*
X40048551Y-122944337D01*
X40079529Y-122927422D01*
X40211086Y-122878354D01*
X40211093Y-122878350D01*
X40326187Y-122792190D01*
X40326190Y-122792187D01*
X40412350Y-122677093D01*
X40412354Y-122677086D01*
X40462596Y-122542379D01*
X40462598Y-122542372D01*
X40468999Y-122482844D01*
X40469000Y-122482827D01*
X40469000Y-121835000D01*
X39552012Y-121835000D01*
X39584925Y-121777993D01*
X39619000Y-121650826D01*
X39619000Y-121519174D01*
X39584925Y-121392007D01*
X39552012Y-121335000D01*
X40469000Y-121335000D01*
X40469000Y-120687172D01*
X40468999Y-120687155D01*
X40462598Y-120627627D01*
X40462596Y-120627620D01*
X40412354Y-120492913D01*
X40412350Y-120492906D01*
X40326190Y-120377812D01*
X40326187Y-120377809D01*
X40211093Y-120291649D01*
X40211086Y-120291645D01*
X40076379Y-120241403D01*
X40076372Y-120241401D01*
X40016844Y-120235000D01*
X39369000Y-120235000D01*
X39369000Y-121151988D01*
X39311993Y-121119075D01*
X39184826Y-121085000D01*
X39053174Y-121085000D01*
X38926007Y-121119075D01*
X38869000Y-121151988D01*
X38869000Y-120235000D01*
X38221155Y-120235000D01*
X38161627Y-120241401D01*
X38161620Y-120241403D01*
X38026913Y-120291645D01*
X38026906Y-120291649D01*
X37911812Y-120377809D01*
X37911809Y-120377812D01*
X37825649Y-120492906D01*
X37825645Y-120492913D01*
X37775403Y-120627620D01*
X37775401Y-120627627D01*
X37769000Y-120687155D01*
X37769000Y-121335000D01*
X38685988Y-121335000D01*
X38653075Y-121392007D01*
X38619000Y-121519174D01*
X38619000Y-121650826D01*
X38653075Y-121777993D01*
X38685988Y-121835000D01*
X37769000Y-121835000D01*
X37769000Y-122482844D01*
X37775401Y-122542372D01*
X37775403Y-122542379D01*
X37825645Y-122677086D01*
X37825649Y-122677093D01*
X37911809Y-122792187D01*
X37911812Y-122792190D01*
X38026906Y-122878350D01*
X38026913Y-122878354D01*
X38158470Y-122927421D01*
X38214403Y-122969292D01*
X38238821Y-123034756D01*
X38223970Y-123103029D01*
X38202819Y-123131284D01*
X38080503Y-123253600D01*
X37944965Y-123447169D01*
X37944964Y-123447171D01*
X37845098Y-123661335D01*
X37845094Y-123661344D01*
X37783938Y-123889586D01*
X37783936Y-123889596D01*
X37763341Y-124124999D01*
X37763341Y-124125000D01*
X37783936Y-124360403D01*
X37783938Y-124360413D01*
X37845094Y-124588655D01*
X37845096Y-124588659D01*
X37845097Y-124588663D01*
X37928582Y-124767696D01*
X37944965Y-124802830D01*
X37944967Y-124802834D01*
X38080501Y-124996395D01*
X38080506Y-124996402D01*
X38247597Y-125163493D01*
X38247603Y-125163498D01*
X38433158Y-125293425D01*
X38476783Y-125348002D01*
X38483977Y-125417500D01*
X38452454Y-125479855D01*
X38433158Y-125496575D01*
X38247597Y-125626505D01*
X38080505Y-125793597D01*
X37944965Y-125987169D01*
X37944964Y-125987171D01*
X37845098Y-126201335D01*
X37845094Y-126201344D01*
X37783938Y-126429586D01*
X37783936Y-126429596D01*
X37763341Y-126664999D01*
X37763341Y-126665000D01*
X33151952Y-126665000D01*
X33151952Y-43155001D01*
X65656390Y-43155001D01*
X65676804Y-43440433D01*
X65737628Y-43720037D01*
X65737630Y-43720043D01*
X65737631Y-43720046D01*
X65790485Y-43861753D01*
X65837635Y-43988166D01*
X65974770Y-44239309D01*
X65974775Y-44239317D01*
X66146254Y-44468387D01*
X66146270Y-44468405D01*
X66348594Y-44670729D01*
X66348612Y-44670745D01*
X66577682Y-44842224D01*
X66577690Y-44842229D01*
X66828833Y-44979364D01*
X66828832Y-44979364D01*
X66828836Y-44979365D01*
X66828839Y-44979367D01*
X67096954Y-45079369D01*
X67096960Y-45079370D01*
X67096962Y-45079371D01*
X67376566Y-45140195D01*
X67376568Y-45140195D01*
X67376572Y-45140196D01*
X67630220Y-45158337D01*
X67661999Y-45160610D01*
X67662000Y-45160610D01*
X67662001Y-45160610D01*
X67690595Y-45158564D01*
X67947428Y-45140196D01*
X67993398Y-45130196D01*
X68227037Y-45079371D01*
X68227037Y-45079370D01*
X68227046Y-45079369D01*
X68495161Y-44979367D01*
X68746315Y-44842226D01*
X68975395Y-44670739D01*
X69177739Y-44468395D01*
X69349226Y-44239315D01*
X69486367Y-43988161D01*
X69586369Y-43720046D01*
X69626081Y-43537492D01*
X69647195Y-43440433D01*
X69647195Y-43440432D01*
X69647196Y-43440428D01*
X69667610Y-43155000D01*
X69666895Y-43145001D01*
X100486390Y-43145001D01*
X100506804Y-43430433D01*
X100567628Y-43710037D01*
X100567630Y-43710043D01*
X100567631Y-43710046D01*
X100571361Y-43720046D01*
X100667635Y-43978166D01*
X100804770Y-44229309D01*
X100804775Y-44229317D01*
X100976254Y-44458387D01*
X100976270Y-44458405D01*
X101178594Y-44660729D01*
X101178612Y-44660745D01*
X101407682Y-44832224D01*
X101407690Y-44832229D01*
X101658833Y-44969364D01*
X101658832Y-44969364D01*
X101658836Y-44969365D01*
X101658839Y-44969367D01*
X101926954Y-45069369D01*
X101926960Y-45069370D01*
X101926962Y-45069371D01*
X102206566Y-45130195D01*
X102206568Y-45130195D01*
X102206572Y-45130196D01*
X102460220Y-45148337D01*
X102491999Y-45150610D01*
X102492000Y-45150610D01*
X102492001Y-45150610D01*
X102520595Y-45148564D01*
X102777428Y-45130196D01*
X103011068Y-45079371D01*
X103057037Y-45069371D01*
X103057037Y-45069370D01*
X103057046Y-45069369D01*
X103325161Y-44969367D01*
X103576315Y-44832226D01*
X103805395Y-44660739D01*
X104007739Y-44458395D01*
X104179226Y-44229315D01*
X104316367Y-43978161D01*
X104416369Y-43710046D01*
X104477196Y-43430428D01*
X104497610Y-43145000D01*
X104477196Y-42859572D01*
X104458256Y-42772508D01*
X104416371Y-42579962D01*
X104416370Y-42579960D01*
X104416369Y-42579954D01*
X104316367Y-42311839D01*
X104236025Y-42164705D01*
X104179229Y-42060690D01*
X104179224Y-42060682D01*
X104007745Y-41831612D01*
X104007729Y-41831594D01*
X103805405Y-41629270D01*
X103805387Y-41629254D01*
X103576317Y-41457775D01*
X103576309Y-41457770D01*
X103325166Y-41320635D01*
X103325167Y-41320635D01*
X103217915Y-41280632D01*
X103057046Y-41220631D01*
X103057043Y-41220630D01*
X103057037Y-41220628D01*
X102777433Y-41159804D01*
X102492001Y-41139390D01*
X102491999Y-41139390D01*
X102206566Y-41159804D01*
X101926962Y-41220628D01*
X101658833Y-41320635D01*
X101407690Y-41457770D01*
X101407682Y-41457775D01*
X101178612Y-41629254D01*
X101178594Y-41629270D01*
X100976270Y-41831594D01*
X100976254Y-41831612D01*
X100804775Y-42060682D01*
X100804770Y-42060690D01*
X100667635Y-42311833D01*
X100567628Y-42579962D01*
X100506804Y-42859566D01*
X100486390Y-43144998D01*
X100486390Y-43145001D01*
X69666895Y-43145001D01*
X69647196Y-42869572D01*
X69645019Y-42859566D01*
X69586371Y-42589962D01*
X69586370Y-42589960D01*
X69586369Y-42589954D01*
X69486367Y-42321839D01*
X69480903Y-42311833D01*
X69349229Y-42070690D01*
X69349224Y-42070682D01*
X69177745Y-41841612D01*
X69177729Y-41841594D01*
X68975405Y-41639270D01*
X68975387Y-41639254D01*
X68746317Y-41467775D01*
X68746309Y-41467770D01*
X68495166Y-41330635D01*
X68495167Y-41330635D01*
X68387915Y-41290632D01*
X68227046Y-41230631D01*
X68227043Y-41230630D01*
X68227037Y-41230628D01*
X67947433Y-41169804D01*
X67662001Y-41149390D01*
X67661999Y-41149390D01*
X67376566Y-41169804D01*
X67096962Y-41230628D01*
X66828833Y-41330635D01*
X66577690Y-41467770D01*
X66577682Y-41467775D01*
X66348612Y-41639254D01*
X66348594Y-41639270D01*
X66146270Y-41841594D01*
X66146254Y-41841612D01*
X65974775Y-42070682D01*
X65974770Y-42070690D01*
X65837635Y-42321833D01*
X65737628Y-42589962D01*
X65676804Y-42869566D01*
X65656390Y-43154998D01*
X65656390Y-43155001D01*
X33151952Y-43155001D01*
X33151952Y-35456775D01*
X33153634Y-35436423D01*
X33168995Y-35344103D01*
X33199509Y-35160711D01*
X33202566Y-35147113D01*
X33284911Y-34857863D01*
X33289475Y-34844692D01*
X33356073Y-34682594D01*
X33403769Y-34566501D01*
X33409775Y-34553943D01*
X33554576Y-34290328D01*
X33561952Y-34278525D01*
X33735417Y-34032838D01*
X33744073Y-34021934D01*
X33944027Y-33797259D01*
X33953858Y-33787392D01*
X34177753Y-33586589D01*
X34188623Y-33577890D01*
X34433656Y-33403474D01*
X34445415Y-33396062D01*
X34708488Y-33250244D01*
X34721020Y-33244192D01*
X34998781Y-33128828D01*
X35011900Y-33124225D01*
X35300862Y-33040762D01*
X35314429Y-33037658D01*
X35610924Y-32987156D01*
X35624742Y-32985595D01*
X35918875Y-32969036D01*
X35928519Y-32968494D01*
X35935488Y-32968298D01*
X36005814Y-32968298D01*
X36006256Y-32968269D01*
X110771568Y-32968269D01*
X110787690Y-32969322D01*
G37*
%TD.AperFunction*%
%TD*%
M02*
