%TF.GenerationSoftware,KiCad,Pcbnew,8.0.1*%
%TF.CreationDate,2024-04-10T08:00:09+05:30*%
%TF.ProjectId,AquaSense,41717561-5365-46e7-9365-2e6b69636164,V 1.0*%
%TF.SameCoordinates,Original*%
%TF.FileFunction,Soldermask,Bot*%
%TF.FilePolarity,Negative*%
%FSLAX46Y46*%
G04 Gerber Fmt 4.6, Leading zero omitted, Abs format (unit mm)*
G04 Created by KiCad (PCBNEW 8.0.1) date 2024-04-10 08:00:09*
%MOMM*%
%LPD*%
G01*
G04 APERTURE LIST*
G04 Aperture macros list*
%AMRoundRect*
0 Rectangle with rounded corners*
0 $1 Rounding radius*
0 $2 $3 $4 $5 $6 $7 $8 $9 X,Y pos of 4 corners*
0 Add a 4 corners polygon primitive as box body*
4,1,4,$2,$3,$4,$5,$6,$7,$8,$9,$2,$3,0*
0 Add four circle primitives for the rounded corners*
1,1,$1+$1,$2,$3*
1,1,$1+$1,$4,$5*
1,1,$1+$1,$6,$7*
1,1,$1+$1,$8,$9*
0 Add four rect primitives between the rounded corners*
20,1,$1+$1,$2,$3,$4,$5,0*
20,1,$1+$1,$4,$5,$6,$7,0*
20,1,$1+$1,$6,$7,$8,$9,0*
20,1,$1+$1,$8,$9,$2,$3,0*%
G04 Aperture macros list end*
%ADD10R,1.700000X1.700000*%
%ADD11O,1.700000X1.700000*%
%ADD12RoundRect,0.102000X-0.780000X-0.780000X0.780000X-0.780000X0.780000X0.780000X-0.780000X0.780000X0*%
%ADD13C,1.764000*%
%ADD14C,2.400000*%
%ADD15O,2.400000X2.400000*%
G04 APERTURE END LIST*
D10*
%TO.C,J5*%
X44072000Y-58005000D03*
D11*
X44072000Y-60545000D03*
X44072000Y-63085000D03*
%TD*%
D10*
%TO.C,J2*%
X39119000Y-121585000D03*
D11*
X39119000Y-124125000D03*
X39119000Y-126665000D03*
%TD*%
D12*
%TO.C,U1*%
X49342000Y-88565000D03*
D13*
X49342000Y-91105000D03*
X49342000Y-93645000D03*
X49342000Y-96185000D03*
X49342000Y-98725000D03*
X49342000Y-101265000D03*
X49342000Y-103805000D03*
X49342000Y-106345000D03*
X49342000Y-108885000D03*
X49342000Y-111425000D03*
X49342000Y-113965000D03*
X49342000Y-116505000D03*
X49342000Y-119045000D03*
X49342000Y-121585000D03*
X49342000Y-124125000D03*
X49342000Y-126665000D03*
X49342000Y-129205000D03*
X49342000Y-131745000D03*
X49342000Y-134285000D03*
X72012000Y-88565000D03*
X72012000Y-91105000D03*
X72012000Y-93645000D03*
X72012000Y-96185000D03*
X72012000Y-98725000D03*
X72012000Y-101265000D03*
X72012000Y-103805000D03*
X72012000Y-106345000D03*
X72012000Y-108885000D03*
X72012000Y-111425000D03*
X72012000Y-113965000D03*
X72012000Y-116505000D03*
X72012000Y-119045000D03*
X72012000Y-121585000D03*
X72012000Y-124125000D03*
X72012000Y-126665000D03*
X72012000Y-129205000D03*
X72012000Y-131745000D03*
X72012000Y-134285000D03*
%TD*%
D10*
%TO.C,J4*%
X90358000Y-138622000D03*
D11*
X87818000Y-138622000D03*
%TD*%
D10*
%TO.C,J3*%
X90448000Y-133442000D03*
D11*
X87908000Y-133442000D03*
%TD*%
D14*
%TO.C,R1*%
X44707000Y-124125000D03*
D15*
X44707000Y-139365000D03*
%TD*%
D10*
%TO.C,J1*%
X44326000Y-86025000D03*
D11*
X44326000Y-88565000D03*
X44326000Y-91105000D03*
%TD*%
M02*
